G04 #@! TF.FileFunction,Soldermask,Top*
%FSLAX46Y46*%
G04 Gerber Fmt 4.6, Leading zero omitted, Abs format (unit mm)*
G04 Created by KiCad (PCBNEW (after 2015-may-25 BZR unknown)-product) date 9/14/2015 8:53:30 AM*
%MOMM*%
G01*
G04 APERTURE LIST*
%ADD10C,0.100000*%
%ADD11R,0.900000X0.500000*%
%ADD12R,1.600000X3.000000*%
%ADD13R,1.400000X1.500000*%
%ADD14R,1.000000X1.500000*%
%ADD15R,1.900000X1.900000*%
%ADD16R,1.900000X1.800000*%
%ADD17R,1.600000X2.100000*%
%ADD18R,2.000000X0.400000*%
%ADD19R,1.500000X4.200000*%
%ADD20C,1.750000*%
%ADD21R,0.500000X0.900000*%
%ADD22C,1.200000*%
%ADD23R,1.300000X0.550000*%
%ADD24O,1.200000X0.500000*%
%ADD25R,1.200000X0.500000*%
%ADD26R,0.500000X1.200000*%
%ADD27O,0.580000X1.180000*%
%ADD28R,0.580000X1.180000*%
%ADD29R,1.750000X1.000000*%
%ADD30R,1.000000X1.750000*%
%ADD31O,1.750000X0.760000*%
%ADD32R,1.750000X0.760000*%
G04 APERTURE END LIST*
D10*
D11*
X126238000Y-88138000D03*
X126238000Y-86614000D03*
D12*
X142240000Y-104775000D03*
X142240000Y-100375000D03*
D13*
X147320000Y-98552000D03*
X149370000Y-98552000D03*
D11*
X133350000Y-86614000D03*
X133350000Y-88138000D03*
X157226000Y-103886000D03*
X157226000Y-102362000D03*
X131572000Y-94234000D03*
X131572000Y-92710000D03*
X134112000Y-94234000D03*
X134112000Y-92710000D03*
D14*
X149860000Y-101346000D03*
X146860000Y-101346000D03*
D11*
X136652000Y-99568000D03*
X136652000Y-101092000D03*
X145288000Y-76454000D03*
X145288000Y-74930000D03*
X142240000Y-76454000D03*
X142240000Y-74930000D03*
X139192000Y-76454000D03*
X139192000Y-74930000D03*
D15*
X124841000Y-97339000D03*
X124841000Y-94939000D03*
D16*
X124841000Y-99939000D03*
X124841000Y-92339000D03*
D17*
X127391000Y-93039000D03*
X127391000Y-99239000D03*
D18*
X127841000Y-95489000D03*
X127841000Y-96139000D03*
X127841000Y-96789000D03*
X127841000Y-97439000D03*
X127841000Y-94839000D03*
D10*
G36*
X157615000Y-105547000D02*
X158615000Y-105797000D01*
X158615000Y-106547000D01*
X157615000Y-106797000D01*
X157615000Y-105547000D01*
X157615000Y-105547000D01*
G37*
G36*
X156345000Y-105797000D02*
X157345000Y-105547000D01*
X157345000Y-106797000D01*
X156345000Y-106547000D01*
X156345000Y-105797000D01*
X156345000Y-105797000D01*
G37*
D19*
X152146000Y-100076000D03*
X154846000Y-100076000D03*
D20*
X125730000Y-69850000D03*
X123190000Y-72390000D03*
X125730000Y-72390000D03*
X128270000Y-72390000D03*
X130810000Y-72390000D03*
X165100000Y-97790000D03*
X165100000Y-100330000D03*
X166370000Y-80010000D03*
X166370000Y-85090000D03*
X123190000Y-80010000D03*
X123190000Y-85090000D03*
D21*
X148082000Y-104140000D03*
X149606000Y-104140000D03*
X149606000Y-106172000D03*
X148082000Y-106172000D03*
D11*
X134112000Y-101092000D03*
X134112000Y-99568000D03*
X131572000Y-99568000D03*
X131572000Y-101092000D03*
D21*
X145288000Y-73152000D03*
X146812000Y-73152000D03*
X142240000Y-73152000D03*
X143764000Y-73152000D03*
X139192000Y-73152000D03*
X140716000Y-73152000D03*
D22*
X124460000Y-104140000D03*
X126960000Y-104140000D03*
X129460000Y-104140000D03*
D23*
X128524000Y-86426000D03*
X128524000Y-87376000D03*
X128524000Y-88326000D03*
X131024000Y-88326000D03*
X131024000Y-86426000D03*
X152146000Y-104206000D03*
X152146000Y-105156000D03*
X152146000Y-106106000D03*
X154646000Y-106106000D03*
X154646000Y-104206000D03*
X134112000Y-97724000D03*
X134112000Y-96774000D03*
X134112000Y-95824000D03*
X131612000Y-95824000D03*
X131612000Y-97724000D03*
D24*
X136652000Y-80766000D03*
D25*
X136652000Y-81566000D03*
X136652000Y-82366000D03*
X136652000Y-83166000D03*
X136652000Y-83966000D03*
X136652000Y-84766000D03*
X136652000Y-85566000D03*
X136652000Y-86366000D03*
X145112000Y-86366000D03*
X145112000Y-85566000D03*
X145112000Y-84766000D03*
X145112000Y-83966000D03*
X145112000Y-83166000D03*
X145112000Y-82366000D03*
X145112000Y-81566000D03*
X145112000Y-80766000D03*
D26*
X137852000Y-87816000D03*
X138652000Y-87816000D03*
X139452000Y-87816000D03*
X140252000Y-87816000D03*
X141052000Y-87816000D03*
X141852000Y-87816000D03*
X142652000Y-87816000D03*
X143452000Y-87816000D03*
X143452000Y-79316000D03*
X142652000Y-79316000D03*
X141852000Y-79316000D03*
X141052000Y-79316000D03*
X140252000Y-79316000D03*
X139452000Y-79316000D03*
X138652000Y-79316000D03*
X137852000Y-79316000D03*
D27*
X143002000Y-90932000D03*
D28*
X142002000Y-90932000D03*
X141002000Y-90932000D03*
X140002000Y-90932000D03*
X139002000Y-90932000D03*
X139002000Y-96252000D03*
X140002000Y-96252000D03*
X141002000Y-96252000D03*
X142002000Y-96252000D03*
X143002000Y-96252000D03*
D29*
X149860000Y-73660000D03*
X149860000Y-75160000D03*
X149860000Y-76660000D03*
X149860000Y-78160000D03*
X149860000Y-79660000D03*
X149860000Y-81160000D03*
X149860000Y-82660000D03*
X149860000Y-84160000D03*
X149860000Y-85660000D03*
X149860000Y-87160000D03*
X149860000Y-88660000D03*
X149860000Y-90160000D03*
X149860000Y-91660000D03*
X162560000Y-91660000D03*
X162560000Y-90160000D03*
X162560000Y-88660000D03*
X162560000Y-87160000D03*
X162560000Y-85660000D03*
X162560000Y-84160000D03*
X162560000Y-82660000D03*
X162560000Y-81160000D03*
X162560000Y-79660000D03*
X162560000Y-78160000D03*
X162560000Y-76660000D03*
X162560000Y-75160000D03*
X162560000Y-73660000D03*
D30*
X150960000Y-93560000D03*
X152460000Y-93560000D03*
X153960000Y-93560000D03*
X155460000Y-93560000D03*
X156960000Y-93560000D03*
X158460000Y-93560000D03*
X159960000Y-93560000D03*
X161460000Y-93560000D03*
D31*
X127873000Y-78018000D03*
D32*
X132223000Y-78018000D03*
X127873000Y-79288000D03*
X132223000Y-79288000D03*
X127873000Y-80558000D03*
X132223000Y-80558000D03*
X127873000Y-81828000D03*
X132223000Y-81828000D03*
X127873000Y-83098000D03*
X132223000Y-83098000D03*
D20*
X137160000Y-105410000D03*
X134620000Y-105410000D03*
X128270000Y-69850000D03*
X133350000Y-72390000D03*
X123190000Y-69850000D03*
M02*
