G04 #@! TF.FileFunction,Copper,L2,Bot,Signal*
%FSLAX46Y46*%
G04 Gerber Fmt 4.6, Leading zero omitted, Abs format (unit mm)*
G04 Created by KiCad (PCBNEW (after 2015-may-25 BZR unknown)-product) date 9/14/2015 8:53:30 AM*
%MOMM*%
G01*
G04 APERTURE LIST*
%ADD10C,0.100000*%
%ADD11C,1.750000*%
%ADD12C,1.200000*%
%ADD13C,0.889000*%
%ADD14C,0.254000*%
%ADD15C,0.400000*%
G04 APERTURE END LIST*
D10*
D11*
X125730000Y-69850000D03*
X123190000Y-72390000D03*
X125730000Y-72390000D03*
X128270000Y-72390000D03*
X130810000Y-72390000D03*
X165100000Y-97790000D03*
X165100000Y-100330000D03*
X166370000Y-80010000D03*
X166370000Y-85090000D03*
X123190000Y-80010000D03*
X123190000Y-85090000D03*
D12*
X124460000Y-104140000D03*
X126960000Y-104140000D03*
X129460000Y-104140000D03*
D11*
X137160000Y-105410000D03*
X134620000Y-105410000D03*
X128270000Y-69850000D03*
X133350000Y-72390000D03*
X123190000Y-69850000D03*
D13*
X135991600Y-98094800D03*
X137566400Y-96520000D03*
X159359600Y-100888800D03*
X157226000Y-100888800D03*
X136855200Y-90779600D03*
X138328400Y-83718400D03*
X147447000Y-90170000D03*
X137418445Y-89670255D03*
X135001000Y-86233000D03*
X135211724Y-84919724D03*
X136652000Y-87884000D03*
X124587000Y-77597000D03*
X138684000Y-86487000D03*
X141351000Y-86487000D03*
X143383000Y-86106000D03*
X141986000Y-94742000D03*
X141986000Y-97790000D03*
X138684000Y-93980000D03*
X137922000Y-94996000D03*
X155752800Y-103073200D03*
X128524000Y-89408000D03*
D14*
X135991600Y-98094800D02*
X137566400Y-96520000D01*
X157226000Y-100888800D02*
X159359600Y-100888800D01*
X139509501Y-84899501D02*
X138328400Y-83718400D01*
X139509501Y-86883241D02*
X139509501Y-84899501D01*
X139080241Y-87312501D02*
X139509501Y-86883241D01*
X138554457Y-87312501D02*
X139080241Y-87312501D01*
X136410701Y-89456257D02*
X138554457Y-87312501D01*
X136410701Y-90335101D02*
X136410701Y-89456257D01*
X136855200Y-90779600D02*
X136410701Y-90335101D01*
X147447000Y-90170000D02*
X146939000Y-89662000D01*
X146939000Y-89662000D02*
X146685000Y-89662000D01*
X137414000Y-89662000D02*
X146685000Y-89662000D01*
X135001000Y-86233000D02*
X121933999Y-73165999D01*
X121933999Y-73165999D02*
X121933999Y-71106001D01*
X121933999Y-71106001D02*
X122315001Y-70724999D01*
X122315001Y-70724999D02*
X123190000Y-69850000D01*
X135211724Y-84919724D02*
X135211724Y-83730606D01*
X135211724Y-83730606D02*
X124473999Y-72992881D01*
X124473999Y-72992881D02*
X124473999Y-71106001D01*
X124473999Y-71106001D02*
X124855001Y-70724999D01*
X124855001Y-70724999D02*
X125730000Y-69850000D01*
X124587000Y-77597000D02*
X134874000Y-87884000D01*
X134874000Y-87884000D02*
X136652000Y-87884000D01*
X125730000Y-72390000D02*
X138684000Y-85344000D01*
X138684000Y-85344000D02*
X138684000Y-86487000D01*
X141351000Y-86487000D02*
X141351000Y-85471000D01*
X141351000Y-85471000D02*
X128270000Y-72390000D01*
X130810000Y-72390000D02*
X143383000Y-84963000D01*
X143383000Y-84963000D02*
X143383000Y-86106000D01*
D15*
X141986000Y-94742000D02*
X151638000Y-94742000D01*
X151638000Y-94742000D02*
X166370000Y-80010000D01*
X144272000Y-95504000D02*
X155956000Y-95504000D01*
X155956000Y-95504000D02*
X166370000Y-85090000D01*
X141986000Y-97790000D02*
X144272000Y-95504000D01*
X138684000Y-93980000D02*
X124714000Y-80010000D01*
X124714000Y-80010000D02*
X123190000Y-80010000D01*
X137922000Y-94996000D02*
X128016000Y-85090000D01*
X128016000Y-85090000D02*
X123190000Y-85090000D01*
X129460000Y-104140000D02*
X130526800Y-103073200D01*
X130526800Y-103073200D02*
X155752800Y-103073200D01*
X129460000Y-104140000D02*
X129460000Y-90344000D01*
X129460000Y-90344000D02*
X128524000Y-89408000D01*
D14*
G36*
X168433000Y-105363017D02*
X168267329Y-106195900D01*
X167822153Y-106862153D01*
X167672226Y-106962331D01*
X167672226Y-84832152D01*
X167474426Y-84353440D01*
X167108487Y-83986861D01*
X166630120Y-83788226D01*
X166112152Y-83787774D01*
X165633440Y-83985574D01*
X165266861Y-84351513D01*
X165068226Y-84829880D01*
X165067774Y-85347848D01*
X165113872Y-85459415D01*
X155696288Y-94877000D01*
X152389712Y-94877000D01*
X166000398Y-81266313D01*
X166109880Y-81311774D01*
X166627848Y-81312226D01*
X167106560Y-81114426D01*
X167473139Y-80748487D01*
X167671774Y-80270120D01*
X167672226Y-79752152D01*
X167474426Y-79273440D01*
X167108487Y-78906861D01*
X166630120Y-78708226D01*
X166112152Y-78707774D01*
X165633440Y-78905574D01*
X165266861Y-79271513D01*
X165068226Y-79749880D01*
X165067774Y-80267848D01*
X165113872Y-80379415D01*
X151378288Y-94115000D01*
X148318651Y-94115000D01*
X148318651Y-89997408D01*
X148186253Y-89676980D01*
X147941310Y-89431609D01*
X147621113Y-89298651D01*
X147358896Y-89298422D01*
X147330737Y-89270263D01*
X147151007Y-89150171D01*
X146939000Y-89108000D01*
X146685000Y-89108000D01*
X144254651Y-89108000D01*
X144254651Y-85933408D01*
X144122253Y-85612980D01*
X143937000Y-85427403D01*
X143937000Y-84963000D01*
X143894829Y-84750994D01*
X143894829Y-84750993D01*
X143774737Y-84571263D01*
X134862381Y-75658907D01*
X134862381Y-72101864D01*
X134636993Y-71545034D01*
X134623158Y-71524328D01*
X134359747Y-71448135D01*
X134291865Y-71516017D01*
X134291865Y-71380253D01*
X134215672Y-71116842D01*
X133662560Y-70882477D01*
X133061864Y-70877619D01*
X132505034Y-71103007D01*
X132484328Y-71116842D01*
X132408135Y-71380253D01*
X133350000Y-72322118D01*
X134291865Y-71380253D01*
X134291865Y-71516017D01*
X133417882Y-72390000D01*
X134359747Y-73331865D01*
X134623158Y-73255672D01*
X134857523Y-72702560D01*
X134862381Y-72101864D01*
X134862381Y-75658907D01*
X133101515Y-73898041D01*
X133638136Y-73902381D01*
X134194966Y-73676993D01*
X134215672Y-73663158D01*
X134291865Y-73399747D01*
X133350000Y-72457882D01*
X133335857Y-72472024D01*
X133267975Y-72404142D01*
X133282118Y-72390000D01*
X132340253Y-71448135D01*
X132076842Y-71524328D01*
X131967602Y-71782137D01*
X131914426Y-71653440D01*
X131548487Y-71286861D01*
X131070120Y-71088226D01*
X130552152Y-71087774D01*
X130073440Y-71285574D01*
X129782381Y-71576124D01*
X129782381Y-69561864D01*
X129556993Y-69005034D01*
X129543158Y-68984328D01*
X129279747Y-68908135D01*
X129211865Y-68976017D01*
X129211865Y-68840253D01*
X129135672Y-68576842D01*
X128582560Y-68342477D01*
X127981864Y-68337619D01*
X127425034Y-68563007D01*
X127404328Y-68576842D01*
X127328135Y-68840253D01*
X128270000Y-69782118D01*
X129211865Y-68840253D01*
X129211865Y-68976017D01*
X128337882Y-69850000D01*
X129279747Y-70791865D01*
X129543158Y-70715672D01*
X129777523Y-70162560D01*
X129782381Y-69561864D01*
X129782381Y-71576124D01*
X129706861Y-71651513D01*
X129539834Y-72053758D01*
X129374426Y-71653440D01*
X129008487Y-71286861D01*
X128878282Y-71232795D01*
X129114966Y-71136993D01*
X129135672Y-71123158D01*
X129211865Y-70859747D01*
X128270000Y-69917882D01*
X127328135Y-70859747D01*
X127404328Y-71123158D01*
X127662137Y-71232397D01*
X127533440Y-71285574D01*
X127166861Y-71651513D01*
X126999834Y-72053758D01*
X126834426Y-71653440D01*
X126468487Y-71286861D01*
X126066241Y-71119834D01*
X126466560Y-70954426D01*
X126833139Y-70588487D01*
X126887204Y-70458282D01*
X126983007Y-70694966D01*
X126996842Y-70715672D01*
X127260253Y-70791865D01*
X128202118Y-69850000D01*
X127260253Y-68908135D01*
X126996842Y-68984328D01*
X126887602Y-69242137D01*
X126834426Y-69113440D01*
X126468487Y-68746861D01*
X125990120Y-68548226D01*
X125472152Y-68547774D01*
X124993440Y-68745574D01*
X124626861Y-69111513D01*
X124459834Y-69513758D01*
X124294426Y-69113440D01*
X123928487Y-68746861D01*
X123450120Y-68548226D01*
X122932152Y-68547774D01*
X122453440Y-68745574D01*
X122086861Y-69111513D01*
X121888226Y-69589880D01*
X121887774Y-70107848D01*
X121964057Y-70292468D01*
X121923264Y-70333262D01*
X121542262Y-70714264D01*
X121422170Y-70893994D01*
X121379999Y-71106001D01*
X121379999Y-73165999D01*
X121422170Y-73378006D01*
X121542262Y-73557736D01*
X124710132Y-76725606D01*
X124414408Y-76725349D01*
X124093980Y-76857747D01*
X123848609Y-77102690D01*
X123715651Y-77422887D01*
X123715349Y-77769592D01*
X123847747Y-78090020D01*
X124092690Y-78335391D01*
X124412887Y-78468349D01*
X124675103Y-78468577D01*
X134482263Y-88275737D01*
X134661993Y-88395829D01*
X134661994Y-88395829D01*
X134874000Y-88438000D01*
X135973620Y-88438000D01*
X136157690Y-88622391D01*
X136477887Y-88755349D01*
X136824592Y-88755651D01*
X137145020Y-88623253D01*
X137390391Y-88378310D01*
X137523349Y-88058113D01*
X137523651Y-87711408D01*
X137391253Y-87390980D01*
X137146310Y-87145609D01*
X136826113Y-87012651D01*
X136479408Y-87012349D01*
X136158980Y-87144747D01*
X135973403Y-87330000D01*
X135103474Y-87330000D01*
X134877867Y-87104393D01*
X135173592Y-87104651D01*
X135494020Y-86972253D01*
X135739391Y-86727310D01*
X135872349Y-86407113D01*
X135872651Y-86060408D01*
X135740253Y-85739980D01*
X135672635Y-85672244D01*
X135704744Y-85658977D01*
X135950115Y-85414034D01*
X136083073Y-85093837D01*
X136083375Y-84747132D01*
X135950977Y-84426704D01*
X135765724Y-84241127D01*
X135765724Y-83730606D01*
X135723553Y-83518600D01*
X135723553Y-83518599D01*
X135603461Y-83338869D01*
X125956790Y-73692198D01*
X125987848Y-73692226D01*
X126172468Y-73615942D01*
X138130000Y-85573474D01*
X138130000Y-85808620D01*
X137945609Y-85992690D01*
X137812651Y-86312887D01*
X137812349Y-86659592D01*
X137944747Y-86980020D01*
X138189690Y-87225391D01*
X138509887Y-87358349D01*
X138856592Y-87358651D01*
X139177020Y-87226253D01*
X139422391Y-86981310D01*
X139555349Y-86661113D01*
X139555651Y-86314408D01*
X139423253Y-85993980D01*
X139238000Y-85808403D01*
X139238000Y-85344000D01*
X139195829Y-85131993D01*
X139075737Y-84952263D01*
X139075737Y-84952262D01*
X127677041Y-73553567D01*
X128009880Y-73691774D01*
X128527848Y-73692226D01*
X128712468Y-73615942D01*
X140797000Y-85700474D01*
X140797000Y-85808620D01*
X140612609Y-85992690D01*
X140479651Y-86312887D01*
X140479349Y-86659592D01*
X140611747Y-86980020D01*
X140856690Y-87225391D01*
X141176887Y-87358349D01*
X141523592Y-87358651D01*
X141844020Y-87226253D01*
X142089391Y-86981310D01*
X142222349Y-86661113D01*
X142222651Y-86314408D01*
X142090253Y-85993980D01*
X141905000Y-85808403D01*
X141905000Y-85471000D01*
X141862830Y-85258994D01*
X141862829Y-85258993D01*
X141742737Y-85079263D01*
X130217041Y-73553567D01*
X130549880Y-73691774D01*
X131067848Y-73692226D01*
X131252468Y-73615942D01*
X142829000Y-85192474D01*
X142829000Y-85427620D01*
X142644609Y-85611690D01*
X142511651Y-85931887D01*
X142511349Y-86278592D01*
X142643747Y-86599020D01*
X142888690Y-86844391D01*
X143208887Y-86977349D01*
X143555592Y-86977651D01*
X143876020Y-86845253D01*
X144121391Y-86600310D01*
X144254349Y-86280113D01*
X144254651Y-85933408D01*
X144254651Y-89108000D01*
X138088583Y-89108000D01*
X137912755Y-88931864D01*
X137592558Y-88798906D01*
X137245853Y-88798604D01*
X136925425Y-88931002D01*
X136680054Y-89175945D01*
X136547096Y-89496142D01*
X136546794Y-89842847D01*
X136679192Y-90163275D01*
X136924135Y-90408646D01*
X137244332Y-90541604D01*
X137591037Y-90541906D01*
X137911465Y-90409508D01*
X138105311Y-90216000D01*
X146575459Y-90216000D01*
X146575349Y-90342592D01*
X146707747Y-90663020D01*
X146952690Y-90908391D01*
X147272887Y-91041349D01*
X147619592Y-91041651D01*
X147940020Y-90909253D01*
X148185391Y-90664310D01*
X148318349Y-90344113D01*
X148318651Y-89997408D01*
X148318651Y-94115000D01*
X142591506Y-94115000D01*
X142480310Y-94003609D01*
X142160113Y-93870651D01*
X141813408Y-93870349D01*
X141492980Y-94002747D01*
X141247609Y-94247690D01*
X141114651Y-94567887D01*
X141114349Y-94914592D01*
X141246747Y-95235020D01*
X141491690Y-95480391D01*
X141811887Y-95613349D01*
X142158592Y-95613651D01*
X142479020Y-95481253D01*
X142591469Y-95369000D01*
X143520288Y-95369000D01*
X141970801Y-96918486D01*
X141813408Y-96918349D01*
X141492980Y-97050747D01*
X141247609Y-97295690D01*
X141114651Y-97615887D01*
X141114349Y-97962592D01*
X141246747Y-98283020D01*
X141491690Y-98528391D01*
X141811887Y-98661349D01*
X142158592Y-98661651D01*
X142479020Y-98529253D01*
X142724391Y-98284310D01*
X142857349Y-97964113D01*
X142857487Y-97805224D01*
X144531712Y-96131000D01*
X155956000Y-96131000D01*
X156195942Y-96083272D01*
X156195943Y-96083272D01*
X156399356Y-95947356D01*
X166000398Y-86346313D01*
X166109880Y-86391774D01*
X166627848Y-86392226D01*
X167106560Y-86194426D01*
X167473139Y-85828487D01*
X167671774Y-85350120D01*
X167672226Y-84832152D01*
X167672226Y-106962331D01*
X167155900Y-107307329D01*
X166612381Y-107415441D01*
X166612381Y-100041864D01*
X166402226Y-99522667D01*
X166402226Y-97532152D01*
X166204426Y-97053440D01*
X165838487Y-96686861D01*
X165360120Y-96488226D01*
X164842152Y-96487774D01*
X164363440Y-96685574D01*
X163996861Y-97051513D01*
X163798226Y-97529880D01*
X163797774Y-98047848D01*
X163995574Y-98526560D01*
X164361513Y-98893139D01*
X164491717Y-98947204D01*
X164255034Y-99043007D01*
X164234328Y-99056842D01*
X164158135Y-99320253D01*
X165100000Y-100262118D01*
X166041865Y-99320253D01*
X165965672Y-99056842D01*
X165707862Y-98947602D01*
X165836560Y-98894426D01*
X166203139Y-98528487D01*
X166401774Y-98050120D01*
X166402226Y-97532152D01*
X166402226Y-99522667D01*
X166386993Y-99485034D01*
X166373158Y-99464328D01*
X166109747Y-99388135D01*
X165167882Y-100330000D01*
X166109747Y-101271865D01*
X166373158Y-101195672D01*
X166607523Y-100642560D01*
X166612381Y-100041864D01*
X166612381Y-107415441D01*
X166323017Y-107473000D01*
X166041865Y-107473000D01*
X166041865Y-101339747D01*
X165100000Y-100397882D01*
X165032118Y-100465764D01*
X165032118Y-100330000D01*
X164090253Y-99388135D01*
X163826842Y-99464328D01*
X163592477Y-100017440D01*
X163587619Y-100618136D01*
X163813007Y-101174966D01*
X163826842Y-101195672D01*
X164090253Y-101271865D01*
X165032118Y-100330000D01*
X165032118Y-100465764D01*
X164158135Y-101339747D01*
X164234328Y-101603158D01*
X164787440Y-101837523D01*
X165388136Y-101842381D01*
X165944966Y-101616993D01*
X165965672Y-101603158D01*
X166041865Y-101339747D01*
X166041865Y-107473000D01*
X156624451Y-107473000D01*
X156624451Y-102900608D01*
X156492053Y-102580180D01*
X156247110Y-102334809D01*
X155926913Y-102201851D01*
X155580208Y-102201549D01*
X155259780Y-102333947D01*
X155147330Y-102446200D01*
X139555651Y-102446200D01*
X139555651Y-93807408D01*
X139423253Y-93486980D01*
X139178310Y-93241609D01*
X138858113Y-93108651D01*
X138699224Y-93108512D01*
X125157356Y-79566644D01*
X124953943Y-79430728D01*
X124714000Y-79383000D01*
X124339695Y-79383000D01*
X124294426Y-79273440D01*
X123928487Y-78906861D01*
X123450120Y-78708226D01*
X122932152Y-78707774D01*
X122453440Y-78905574D01*
X122086861Y-79271513D01*
X121888226Y-79749880D01*
X121887774Y-80267848D01*
X122085574Y-80746560D01*
X122451513Y-81113139D01*
X122929880Y-81311774D01*
X123447848Y-81312226D01*
X123926560Y-81114426D01*
X124293139Y-80748487D01*
X124339432Y-80637000D01*
X124454288Y-80637000D01*
X137812486Y-93995198D01*
X137812482Y-93999770D01*
X128459356Y-84646644D01*
X128255943Y-84510728D01*
X128016000Y-84463000D01*
X124339695Y-84463000D01*
X124294426Y-84353440D01*
X123928487Y-83986861D01*
X123450120Y-83788226D01*
X122932152Y-83787774D01*
X122453440Y-83985574D01*
X122086861Y-84351513D01*
X121888226Y-84829880D01*
X121887774Y-85347848D01*
X122085574Y-85826560D01*
X122451513Y-86193139D01*
X122929880Y-86391774D01*
X123447848Y-86392226D01*
X123926560Y-86194426D01*
X124293139Y-85828487D01*
X124339432Y-85717000D01*
X127756288Y-85717000D01*
X137050486Y-95011198D01*
X137050349Y-95168592D01*
X137182747Y-95489020D01*
X137427690Y-95734391D01*
X137747887Y-95867349D01*
X138094592Y-95867651D01*
X138415020Y-95735253D01*
X138660391Y-95490310D01*
X138793349Y-95170113D01*
X138793626Y-94851596D01*
X138856592Y-94851651D01*
X139177020Y-94719253D01*
X139422391Y-94474310D01*
X139555349Y-94154113D01*
X139555651Y-93807408D01*
X139555651Y-102446200D01*
X130526800Y-102446200D01*
X130286857Y-102493928D01*
X130087000Y-102627467D01*
X130087000Y-90344000D01*
X130039273Y-90104058D01*
X130039272Y-90104057D01*
X129903356Y-89900644D01*
X129395513Y-89392801D01*
X129395651Y-89235408D01*
X129263253Y-88914980D01*
X129018310Y-88669609D01*
X128698113Y-88536651D01*
X128351408Y-88536349D01*
X128030980Y-88668747D01*
X127785609Y-88913690D01*
X127652651Y-89233887D01*
X127652349Y-89580592D01*
X127784747Y-89901020D01*
X128029690Y-90146391D01*
X128349887Y-90279349D01*
X128508775Y-90279487D01*
X128833000Y-90603712D01*
X128833000Y-103314774D01*
X128589860Y-103557492D01*
X128433179Y-103934821D01*
X128432822Y-104343387D01*
X128588844Y-104720989D01*
X128877492Y-105010140D01*
X129254821Y-105166821D01*
X129663387Y-105167178D01*
X130040989Y-105011156D01*
X130330140Y-104722508D01*
X130486821Y-104345179D01*
X130487122Y-103999589D01*
X130786512Y-103700200D01*
X155147293Y-103700200D01*
X155258490Y-103811591D01*
X155578687Y-103944549D01*
X155925392Y-103944851D01*
X156245820Y-103812453D01*
X156491191Y-103567510D01*
X156624149Y-103247313D01*
X156624451Y-102900608D01*
X156624451Y-107473000D01*
X138672381Y-107473000D01*
X138672381Y-105121864D01*
X138446993Y-104565034D01*
X138433158Y-104544328D01*
X138169747Y-104468135D01*
X138101865Y-104536017D01*
X138101865Y-104400253D01*
X138025672Y-104136842D01*
X137472560Y-103902477D01*
X136871864Y-103897619D01*
X136315034Y-104123007D01*
X136294328Y-104136842D01*
X136218135Y-104400253D01*
X137160000Y-105342118D01*
X138101865Y-104400253D01*
X138101865Y-104536017D01*
X137227882Y-105410000D01*
X138169747Y-106351865D01*
X138433158Y-106275672D01*
X138667523Y-105722560D01*
X138672381Y-105121864D01*
X138672381Y-107473000D01*
X138101865Y-107473000D01*
X138101865Y-106419747D01*
X137160000Y-105477882D01*
X137092118Y-105545764D01*
X137092118Y-105410000D01*
X136150253Y-104468135D01*
X135886842Y-104544328D01*
X135777602Y-104802137D01*
X135724426Y-104673440D01*
X135358487Y-104306861D01*
X134880120Y-104108226D01*
X134362152Y-104107774D01*
X133883440Y-104305574D01*
X133516861Y-104671513D01*
X133318226Y-105149880D01*
X133317774Y-105667848D01*
X133515574Y-106146560D01*
X133881513Y-106513139D01*
X134359880Y-106711774D01*
X134877848Y-106712226D01*
X135356560Y-106514426D01*
X135723139Y-106148487D01*
X135777204Y-106018282D01*
X135873007Y-106254966D01*
X135886842Y-106275672D01*
X136150253Y-106351865D01*
X137092118Y-105410000D01*
X137092118Y-105545764D01*
X136218135Y-106419747D01*
X136294328Y-106683158D01*
X136847440Y-106917523D01*
X137448136Y-106922381D01*
X138004966Y-106696993D01*
X138025672Y-106683158D01*
X138101865Y-106419747D01*
X138101865Y-107473000D01*
X127987178Y-107473000D01*
X127987178Y-103936613D01*
X127831156Y-103559011D01*
X127542508Y-103269860D01*
X127165179Y-103113179D01*
X126756613Y-103112822D01*
X126379011Y-103268844D01*
X126089860Y-103557492D01*
X125933179Y-103934821D01*
X125932822Y-104343387D01*
X126088844Y-104720989D01*
X126377492Y-105010140D01*
X126754821Y-105166821D01*
X127163387Y-105167178D01*
X127540989Y-105011156D01*
X127830140Y-104722508D01*
X127986821Y-104345179D01*
X127987178Y-103936613D01*
X127987178Y-107473000D01*
X125487178Y-107473000D01*
X125487178Y-103936613D01*
X125331156Y-103559011D01*
X125042508Y-103269860D01*
X124665179Y-103113179D01*
X124256613Y-103112822D01*
X123879011Y-103268844D01*
X123589860Y-103557492D01*
X123433179Y-103934821D01*
X123432822Y-104343387D01*
X123588844Y-104720989D01*
X123877492Y-105010140D01*
X124254821Y-105166821D01*
X124663387Y-105167178D01*
X125040989Y-105011156D01*
X125330140Y-104722508D01*
X125486821Y-104345179D01*
X125487178Y-103936613D01*
X125487178Y-107473000D01*
X123236982Y-107473000D01*
X122404099Y-107307329D01*
X121737846Y-106862153D01*
X121292670Y-106195900D01*
X121127000Y-105363017D01*
X121127000Y-69896982D01*
X121292670Y-69064099D01*
X121737846Y-68397846D01*
X122404099Y-67952670D01*
X123236982Y-67787000D01*
X166323017Y-67787000D01*
X167155900Y-67952670D01*
X167822153Y-68397846D01*
X168267329Y-69064099D01*
X168433000Y-69896982D01*
X168433000Y-105363017D01*
X168433000Y-105363017D01*
G37*
X168433000Y-105363017D02*
X168267329Y-106195900D01*
X167822153Y-106862153D01*
X167672226Y-106962331D01*
X167672226Y-84832152D01*
X167474426Y-84353440D01*
X167108487Y-83986861D01*
X166630120Y-83788226D01*
X166112152Y-83787774D01*
X165633440Y-83985574D01*
X165266861Y-84351513D01*
X165068226Y-84829880D01*
X165067774Y-85347848D01*
X165113872Y-85459415D01*
X155696288Y-94877000D01*
X152389712Y-94877000D01*
X166000398Y-81266313D01*
X166109880Y-81311774D01*
X166627848Y-81312226D01*
X167106560Y-81114426D01*
X167473139Y-80748487D01*
X167671774Y-80270120D01*
X167672226Y-79752152D01*
X167474426Y-79273440D01*
X167108487Y-78906861D01*
X166630120Y-78708226D01*
X166112152Y-78707774D01*
X165633440Y-78905574D01*
X165266861Y-79271513D01*
X165068226Y-79749880D01*
X165067774Y-80267848D01*
X165113872Y-80379415D01*
X151378288Y-94115000D01*
X148318651Y-94115000D01*
X148318651Y-89997408D01*
X148186253Y-89676980D01*
X147941310Y-89431609D01*
X147621113Y-89298651D01*
X147358896Y-89298422D01*
X147330737Y-89270263D01*
X147151007Y-89150171D01*
X146939000Y-89108000D01*
X146685000Y-89108000D01*
X144254651Y-89108000D01*
X144254651Y-85933408D01*
X144122253Y-85612980D01*
X143937000Y-85427403D01*
X143937000Y-84963000D01*
X143894829Y-84750994D01*
X143894829Y-84750993D01*
X143774737Y-84571263D01*
X134862381Y-75658907D01*
X134862381Y-72101864D01*
X134636993Y-71545034D01*
X134623158Y-71524328D01*
X134359747Y-71448135D01*
X134291865Y-71516017D01*
X134291865Y-71380253D01*
X134215672Y-71116842D01*
X133662560Y-70882477D01*
X133061864Y-70877619D01*
X132505034Y-71103007D01*
X132484328Y-71116842D01*
X132408135Y-71380253D01*
X133350000Y-72322118D01*
X134291865Y-71380253D01*
X134291865Y-71516017D01*
X133417882Y-72390000D01*
X134359747Y-73331865D01*
X134623158Y-73255672D01*
X134857523Y-72702560D01*
X134862381Y-72101864D01*
X134862381Y-75658907D01*
X133101515Y-73898041D01*
X133638136Y-73902381D01*
X134194966Y-73676993D01*
X134215672Y-73663158D01*
X134291865Y-73399747D01*
X133350000Y-72457882D01*
X133335857Y-72472024D01*
X133267975Y-72404142D01*
X133282118Y-72390000D01*
X132340253Y-71448135D01*
X132076842Y-71524328D01*
X131967602Y-71782137D01*
X131914426Y-71653440D01*
X131548487Y-71286861D01*
X131070120Y-71088226D01*
X130552152Y-71087774D01*
X130073440Y-71285574D01*
X129782381Y-71576124D01*
X129782381Y-69561864D01*
X129556993Y-69005034D01*
X129543158Y-68984328D01*
X129279747Y-68908135D01*
X129211865Y-68976017D01*
X129211865Y-68840253D01*
X129135672Y-68576842D01*
X128582560Y-68342477D01*
X127981864Y-68337619D01*
X127425034Y-68563007D01*
X127404328Y-68576842D01*
X127328135Y-68840253D01*
X128270000Y-69782118D01*
X129211865Y-68840253D01*
X129211865Y-68976017D01*
X128337882Y-69850000D01*
X129279747Y-70791865D01*
X129543158Y-70715672D01*
X129777523Y-70162560D01*
X129782381Y-69561864D01*
X129782381Y-71576124D01*
X129706861Y-71651513D01*
X129539834Y-72053758D01*
X129374426Y-71653440D01*
X129008487Y-71286861D01*
X128878282Y-71232795D01*
X129114966Y-71136993D01*
X129135672Y-71123158D01*
X129211865Y-70859747D01*
X128270000Y-69917882D01*
X127328135Y-70859747D01*
X127404328Y-71123158D01*
X127662137Y-71232397D01*
X127533440Y-71285574D01*
X127166861Y-71651513D01*
X126999834Y-72053758D01*
X126834426Y-71653440D01*
X126468487Y-71286861D01*
X126066241Y-71119834D01*
X126466560Y-70954426D01*
X126833139Y-70588487D01*
X126887204Y-70458282D01*
X126983007Y-70694966D01*
X126996842Y-70715672D01*
X127260253Y-70791865D01*
X128202118Y-69850000D01*
X127260253Y-68908135D01*
X126996842Y-68984328D01*
X126887602Y-69242137D01*
X126834426Y-69113440D01*
X126468487Y-68746861D01*
X125990120Y-68548226D01*
X125472152Y-68547774D01*
X124993440Y-68745574D01*
X124626861Y-69111513D01*
X124459834Y-69513758D01*
X124294426Y-69113440D01*
X123928487Y-68746861D01*
X123450120Y-68548226D01*
X122932152Y-68547774D01*
X122453440Y-68745574D01*
X122086861Y-69111513D01*
X121888226Y-69589880D01*
X121887774Y-70107848D01*
X121964057Y-70292468D01*
X121923264Y-70333262D01*
X121542262Y-70714264D01*
X121422170Y-70893994D01*
X121379999Y-71106001D01*
X121379999Y-73165999D01*
X121422170Y-73378006D01*
X121542262Y-73557736D01*
X124710132Y-76725606D01*
X124414408Y-76725349D01*
X124093980Y-76857747D01*
X123848609Y-77102690D01*
X123715651Y-77422887D01*
X123715349Y-77769592D01*
X123847747Y-78090020D01*
X124092690Y-78335391D01*
X124412887Y-78468349D01*
X124675103Y-78468577D01*
X134482263Y-88275737D01*
X134661993Y-88395829D01*
X134661994Y-88395829D01*
X134874000Y-88438000D01*
X135973620Y-88438000D01*
X136157690Y-88622391D01*
X136477887Y-88755349D01*
X136824592Y-88755651D01*
X137145020Y-88623253D01*
X137390391Y-88378310D01*
X137523349Y-88058113D01*
X137523651Y-87711408D01*
X137391253Y-87390980D01*
X137146310Y-87145609D01*
X136826113Y-87012651D01*
X136479408Y-87012349D01*
X136158980Y-87144747D01*
X135973403Y-87330000D01*
X135103474Y-87330000D01*
X134877867Y-87104393D01*
X135173592Y-87104651D01*
X135494020Y-86972253D01*
X135739391Y-86727310D01*
X135872349Y-86407113D01*
X135872651Y-86060408D01*
X135740253Y-85739980D01*
X135672635Y-85672244D01*
X135704744Y-85658977D01*
X135950115Y-85414034D01*
X136083073Y-85093837D01*
X136083375Y-84747132D01*
X135950977Y-84426704D01*
X135765724Y-84241127D01*
X135765724Y-83730606D01*
X135723553Y-83518600D01*
X135723553Y-83518599D01*
X135603461Y-83338869D01*
X125956790Y-73692198D01*
X125987848Y-73692226D01*
X126172468Y-73615942D01*
X138130000Y-85573474D01*
X138130000Y-85808620D01*
X137945609Y-85992690D01*
X137812651Y-86312887D01*
X137812349Y-86659592D01*
X137944747Y-86980020D01*
X138189690Y-87225391D01*
X138509887Y-87358349D01*
X138856592Y-87358651D01*
X139177020Y-87226253D01*
X139422391Y-86981310D01*
X139555349Y-86661113D01*
X139555651Y-86314408D01*
X139423253Y-85993980D01*
X139238000Y-85808403D01*
X139238000Y-85344000D01*
X139195829Y-85131993D01*
X139075737Y-84952263D01*
X139075737Y-84952262D01*
X127677041Y-73553567D01*
X128009880Y-73691774D01*
X128527848Y-73692226D01*
X128712468Y-73615942D01*
X140797000Y-85700474D01*
X140797000Y-85808620D01*
X140612609Y-85992690D01*
X140479651Y-86312887D01*
X140479349Y-86659592D01*
X140611747Y-86980020D01*
X140856690Y-87225391D01*
X141176887Y-87358349D01*
X141523592Y-87358651D01*
X141844020Y-87226253D01*
X142089391Y-86981310D01*
X142222349Y-86661113D01*
X142222651Y-86314408D01*
X142090253Y-85993980D01*
X141905000Y-85808403D01*
X141905000Y-85471000D01*
X141862830Y-85258994D01*
X141862829Y-85258993D01*
X141742737Y-85079263D01*
X130217041Y-73553567D01*
X130549880Y-73691774D01*
X131067848Y-73692226D01*
X131252468Y-73615942D01*
X142829000Y-85192474D01*
X142829000Y-85427620D01*
X142644609Y-85611690D01*
X142511651Y-85931887D01*
X142511349Y-86278592D01*
X142643747Y-86599020D01*
X142888690Y-86844391D01*
X143208887Y-86977349D01*
X143555592Y-86977651D01*
X143876020Y-86845253D01*
X144121391Y-86600310D01*
X144254349Y-86280113D01*
X144254651Y-85933408D01*
X144254651Y-89108000D01*
X138088583Y-89108000D01*
X137912755Y-88931864D01*
X137592558Y-88798906D01*
X137245853Y-88798604D01*
X136925425Y-88931002D01*
X136680054Y-89175945D01*
X136547096Y-89496142D01*
X136546794Y-89842847D01*
X136679192Y-90163275D01*
X136924135Y-90408646D01*
X137244332Y-90541604D01*
X137591037Y-90541906D01*
X137911465Y-90409508D01*
X138105311Y-90216000D01*
X146575459Y-90216000D01*
X146575349Y-90342592D01*
X146707747Y-90663020D01*
X146952690Y-90908391D01*
X147272887Y-91041349D01*
X147619592Y-91041651D01*
X147940020Y-90909253D01*
X148185391Y-90664310D01*
X148318349Y-90344113D01*
X148318651Y-89997408D01*
X148318651Y-94115000D01*
X142591506Y-94115000D01*
X142480310Y-94003609D01*
X142160113Y-93870651D01*
X141813408Y-93870349D01*
X141492980Y-94002747D01*
X141247609Y-94247690D01*
X141114651Y-94567887D01*
X141114349Y-94914592D01*
X141246747Y-95235020D01*
X141491690Y-95480391D01*
X141811887Y-95613349D01*
X142158592Y-95613651D01*
X142479020Y-95481253D01*
X142591469Y-95369000D01*
X143520288Y-95369000D01*
X141970801Y-96918486D01*
X141813408Y-96918349D01*
X141492980Y-97050747D01*
X141247609Y-97295690D01*
X141114651Y-97615887D01*
X141114349Y-97962592D01*
X141246747Y-98283020D01*
X141491690Y-98528391D01*
X141811887Y-98661349D01*
X142158592Y-98661651D01*
X142479020Y-98529253D01*
X142724391Y-98284310D01*
X142857349Y-97964113D01*
X142857487Y-97805224D01*
X144531712Y-96131000D01*
X155956000Y-96131000D01*
X156195942Y-96083272D01*
X156195943Y-96083272D01*
X156399356Y-95947356D01*
X166000398Y-86346313D01*
X166109880Y-86391774D01*
X166627848Y-86392226D01*
X167106560Y-86194426D01*
X167473139Y-85828487D01*
X167671774Y-85350120D01*
X167672226Y-84832152D01*
X167672226Y-106962331D01*
X167155900Y-107307329D01*
X166612381Y-107415441D01*
X166612381Y-100041864D01*
X166402226Y-99522667D01*
X166402226Y-97532152D01*
X166204426Y-97053440D01*
X165838487Y-96686861D01*
X165360120Y-96488226D01*
X164842152Y-96487774D01*
X164363440Y-96685574D01*
X163996861Y-97051513D01*
X163798226Y-97529880D01*
X163797774Y-98047848D01*
X163995574Y-98526560D01*
X164361513Y-98893139D01*
X164491717Y-98947204D01*
X164255034Y-99043007D01*
X164234328Y-99056842D01*
X164158135Y-99320253D01*
X165100000Y-100262118D01*
X166041865Y-99320253D01*
X165965672Y-99056842D01*
X165707862Y-98947602D01*
X165836560Y-98894426D01*
X166203139Y-98528487D01*
X166401774Y-98050120D01*
X166402226Y-97532152D01*
X166402226Y-99522667D01*
X166386993Y-99485034D01*
X166373158Y-99464328D01*
X166109747Y-99388135D01*
X165167882Y-100330000D01*
X166109747Y-101271865D01*
X166373158Y-101195672D01*
X166607523Y-100642560D01*
X166612381Y-100041864D01*
X166612381Y-107415441D01*
X166323017Y-107473000D01*
X166041865Y-107473000D01*
X166041865Y-101339747D01*
X165100000Y-100397882D01*
X165032118Y-100465764D01*
X165032118Y-100330000D01*
X164090253Y-99388135D01*
X163826842Y-99464328D01*
X163592477Y-100017440D01*
X163587619Y-100618136D01*
X163813007Y-101174966D01*
X163826842Y-101195672D01*
X164090253Y-101271865D01*
X165032118Y-100330000D01*
X165032118Y-100465764D01*
X164158135Y-101339747D01*
X164234328Y-101603158D01*
X164787440Y-101837523D01*
X165388136Y-101842381D01*
X165944966Y-101616993D01*
X165965672Y-101603158D01*
X166041865Y-101339747D01*
X166041865Y-107473000D01*
X156624451Y-107473000D01*
X156624451Y-102900608D01*
X156492053Y-102580180D01*
X156247110Y-102334809D01*
X155926913Y-102201851D01*
X155580208Y-102201549D01*
X155259780Y-102333947D01*
X155147330Y-102446200D01*
X139555651Y-102446200D01*
X139555651Y-93807408D01*
X139423253Y-93486980D01*
X139178310Y-93241609D01*
X138858113Y-93108651D01*
X138699224Y-93108512D01*
X125157356Y-79566644D01*
X124953943Y-79430728D01*
X124714000Y-79383000D01*
X124339695Y-79383000D01*
X124294426Y-79273440D01*
X123928487Y-78906861D01*
X123450120Y-78708226D01*
X122932152Y-78707774D01*
X122453440Y-78905574D01*
X122086861Y-79271513D01*
X121888226Y-79749880D01*
X121887774Y-80267848D01*
X122085574Y-80746560D01*
X122451513Y-81113139D01*
X122929880Y-81311774D01*
X123447848Y-81312226D01*
X123926560Y-81114426D01*
X124293139Y-80748487D01*
X124339432Y-80637000D01*
X124454288Y-80637000D01*
X137812486Y-93995198D01*
X137812482Y-93999770D01*
X128459356Y-84646644D01*
X128255943Y-84510728D01*
X128016000Y-84463000D01*
X124339695Y-84463000D01*
X124294426Y-84353440D01*
X123928487Y-83986861D01*
X123450120Y-83788226D01*
X122932152Y-83787774D01*
X122453440Y-83985574D01*
X122086861Y-84351513D01*
X121888226Y-84829880D01*
X121887774Y-85347848D01*
X122085574Y-85826560D01*
X122451513Y-86193139D01*
X122929880Y-86391774D01*
X123447848Y-86392226D01*
X123926560Y-86194426D01*
X124293139Y-85828487D01*
X124339432Y-85717000D01*
X127756288Y-85717000D01*
X137050486Y-95011198D01*
X137050349Y-95168592D01*
X137182747Y-95489020D01*
X137427690Y-95734391D01*
X137747887Y-95867349D01*
X138094592Y-95867651D01*
X138415020Y-95735253D01*
X138660391Y-95490310D01*
X138793349Y-95170113D01*
X138793626Y-94851596D01*
X138856592Y-94851651D01*
X139177020Y-94719253D01*
X139422391Y-94474310D01*
X139555349Y-94154113D01*
X139555651Y-93807408D01*
X139555651Y-102446200D01*
X130526800Y-102446200D01*
X130286857Y-102493928D01*
X130087000Y-102627467D01*
X130087000Y-90344000D01*
X130039273Y-90104058D01*
X130039272Y-90104057D01*
X129903356Y-89900644D01*
X129395513Y-89392801D01*
X129395651Y-89235408D01*
X129263253Y-88914980D01*
X129018310Y-88669609D01*
X128698113Y-88536651D01*
X128351408Y-88536349D01*
X128030980Y-88668747D01*
X127785609Y-88913690D01*
X127652651Y-89233887D01*
X127652349Y-89580592D01*
X127784747Y-89901020D01*
X128029690Y-90146391D01*
X128349887Y-90279349D01*
X128508775Y-90279487D01*
X128833000Y-90603712D01*
X128833000Y-103314774D01*
X128589860Y-103557492D01*
X128433179Y-103934821D01*
X128432822Y-104343387D01*
X128588844Y-104720989D01*
X128877492Y-105010140D01*
X129254821Y-105166821D01*
X129663387Y-105167178D01*
X130040989Y-105011156D01*
X130330140Y-104722508D01*
X130486821Y-104345179D01*
X130487122Y-103999589D01*
X130786512Y-103700200D01*
X155147293Y-103700200D01*
X155258490Y-103811591D01*
X155578687Y-103944549D01*
X155925392Y-103944851D01*
X156245820Y-103812453D01*
X156491191Y-103567510D01*
X156624149Y-103247313D01*
X156624451Y-102900608D01*
X156624451Y-107473000D01*
X138672381Y-107473000D01*
X138672381Y-105121864D01*
X138446993Y-104565034D01*
X138433158Y-104544328D01*
X138169747Y-104468135D01*
X138101865Y-104536017D01*
X138101865Y-104400253D01*
X138025672Y-104136842D01*
X137472560Y-103902477D01*
X136871864Y-103897619D01*
X136315034Y-104123007D01*
X136294328Y-104136842D01*
X136218135Y-104400253D01*
X137160000Y-105342118D01*
X138101865Y-104400253D01*
X138101865Y-104536017D01*
X137227882Y-105410000D01*
X138169747Y-106351865D01*
X138433158Y-106275672D01*
X138667523Y-105722560D01*
X138672381Y-105121864D01*
X138672381Y-107473000D01*
X138101865Y-107473000D01*
X138101865Y-106419747D01*
X137160000Y-105477882D01*
X137092118Y-105545764D01*
X137092118Y-105410000D01*
X136150253Y-104468135D01*
X135886842Y-104544328D01*
X135777602Y-104802137D01*
X135724426Y-104673440D01*
X135358487Y-104306861D01*
X134880120Y-104108226D01*
X134362152Y-104107774D01*
X133883440Y-104305574D01*
X133516861Y-104671513D01*
X133318226Y-105149880D01*
X133317774Y-105667848D01*
X133515574Y-106146560D01*
X133881513Y-106513139D01*
X134359880Y-106711774D01*
X134877848Y-106712226D01*
X135356560Y-106514426D01*
X135723139Y-106148487D01*
X135777204Y-106018282D01*
X135873007Y-106254966D01*
X135886842Y-106275672D01*
X136150253Y-106351865D01*
X137092118Y-105410000D01*
X137092118Y-105545764D01*
X136218135Y-106419747D01*
X136294328Y-106683158D01*
X136847440Y-106917523D01*
X137448136Y-106922381D01*
X138004966Y-106696993D01*
X138025672Y-106683158D01*
X138101865Y-106419747D01*
X138101865Y-107473000D01*
X127987178Y-107473000D01*
X127987178Y-103936613D01*
X127831156Y-103559011D01*
X127542508Y-103269860D01*
X127165179Y-103113179D01*
X126756613Y-103112822D01*
X126379011Y-103268844D01*
X126089860Y-103557492D01*
X125933179Y-103934821D01*
X125932822Y-104343387D01*
X126088844Y-104720989D01*
X126377492Y-105010140D01*
X126754821Y-105166821D01*
X127163387Y-105167178D01*
X127540989Y-105011156D01*
X127830140Y-104722508D01*
X127986821Y-104345179D01*
X127987178Y-103936613D01*
X127987178Y-107473000D01*
X125487178Y-107473000D01*
X125487178Y-103936613D01*
X125331156Y-103559011D01*
X125042508Y-103269860D01*
X124665179Y-103113179D01*
X124256613Y-103112822D01*
X123879011Y-103268844D01*
X123589860Y-103557492D01*
X123433179Y-103934821D01*
X123432822Y-104343387D01*
X123588844Y-104720989D01*
X123877492Y-105010140D01*
X124254821Y-105166821D01*
X124663387Y-105167178D01*
X125040989Y-105011156D01*
X125330140Y-104722508D01*
X125486821Y-104345179D01*
X125487178Y-103936613D01*
X125487178Y-107473000D01*
X123236982Y-107473000D01*
X122404099Y-107307329D01*
X121737846Y-106862153D01*
X121292670Y-106195900D01*
X121127000Y-105363017D01*
X121127000Y-69896982D01*
X121292670Y-69064099D01*
X121737846Y-68397846D01*
X122404099Y-67952670D01*
X123236982Y-67787000D01*
X166323017Y-67787000D01*
X167155900Y-67952670D01*
X167822153Y-68397846D01*
X168267329Y-69064099D01*
X168433000Y-69896982D01*
X168433000Y-105363017D01*
M02*
