M48
;DRILL file {KiCad (after 2015-may-25 BZR unknown)-product} date 9/14/2015 8:53:32 AM
;FORMAT={-:-/ absolute / inch / decimal}
FMAT,2
INCH,TZ
T1C0.025
T2C0.031
T3C0.040
%
G90
G05
M72
T1
X4.905Y-3.055
X5.06Y-3.52
X5.315Y-3.395
X5.3233Y-3.3433
X5.354Y-3.862
X5.38Y-3.46
X5.388Y-3.574
X5.4102Y-3.5303
X5.416Y-3.8
X5.43Y-3.74
X5.446Y-3.296
X5.46Y-3.405
X5.46Y-3.7
X5.565Y-3.405
X5.59Y-3.73
X5.59Y-3.85
X5.645Y-3.39
X5.805Y-3.55
X6.132Y-4.058
X6.19Y-3.972
X6.274Y-3.972
T2
X4.9Y-4.1
X4.9984Y-4.1
X5.0969Y-4.1
T3
X4.85Y-2.75
X4.85Y-2.85
X4.85Y-3.15
X4.85Y-3.35
X4.95Y-2.75
X4.95Y-2.85
X5.05Y-2.75
X5.05Y-2.85
X5.15Y-2.85
X5.25Y-2.85
X5.3Y-4.15
X5.4Y-4.15
X6.5Y-3.85
X6.5Y-3.95
X6.55Y-3.15
X6.55Y-3.35
T0
M30
