G04 #@! TF.FileFunction,Copper,L1,Top,Signal*
%FSLAX46Y46*%
G04 Gerber Fmt 4.6, Leading zero omitted, Abs format (unit mm)*
G04 Created by KiCad (PCBNEW (after 2015-may-25 BZR unknown)-product) date 9/14/2015 8:53:30 AM*
%MOMM*%
G01*
G04 APERTURE LIST*
%ADD10C,0.100000*%
%ADD11R,0.900000X0.500000*%
%ADD12R,1.600000X3.000000*%
%ADD13R,1.400000X1.500000*%
%ADD14R,1.000000X1.500000*%
%ADD15R,1.900000X1.900000*%
%ADD16R,1.900000X1.800000*%
%ADD17R,1.600000X2.100000*%
%ADD18R,2.000000X0.400000*%
%ADD19R,1.500000X4.200000*%
%ADD20C,1.750000*%
%ADD21R,0.500000X0.900000*%
%ADD22C,1.200000*%
%ADD23R,1.300000X0.550000*%
%ADD24O,1.200000X0.500000*%
%ADD25R,1.200000X0.500000*%
%ADD26R,0.500000X1.200000*%
%ADD27O,0.580000X1.180000*%
%ADD28R,0.580000X1.180000*%
%ADD29R,1.750000X1.000000*%
%ADD30R,1.000000X1.750000*%
%ADD31O,1.750000X0.760000*%
%ADD32R,1.750000X0.760000*%
%ADD33C,0.889000*%
%ADD34C,0.400000*%
%ADD35C,0.254000*%
G04 APERTURE END LIST*
D10*
D11*
X126238000Y-88138000D03*
X126238000Y-86614000D03*
D12*
X142240000Y-104775000D03*
X142240000Y-100375000D03*
D13*
X147320000Y-98552000D03*
X149370000Y-98552000D03*
D11*
X133350000Y-86614000D03*
X133350000Y-88138000D03*
X157226000Y-103886000D03*
X157226000Y-102362000D03*
X131572000Y-94234000D03*
X131572000Y-92710000D03*
X134112000Y-94234000D03*
X134112000Y-92710000D03*
D14*
X149860000Y-101346000D03*
X146860000Y-101346000D03*
D11*
X136652000Y-99568000D03*
X136652000Y-101092000D03*
X145288000Y-76454000D03*
X145288000Y-74930000D03*
X142240000Y-76454000D03*
X142240000Y-74930000D03*
X139192000Y-76454000D03*
X139192000Y-74930000D03*
D15*
X124841000Y-97339000D03*
X124841000Y-94939000D03*
D16*
X124841000Y-99939000D03*
X124841000Y-92339000D03*
D17*
X127391000Y-93039000D03*
X127391000Y-99239000D03*
D18*
X127841000Y-95489000D03*
X127841000Y-96139000D03*
X127841000Y-96789000D03*
X127841000Y-97439000D03*
X127841000Y-94839000D03*
D10*
G36*
X157615000Y-105547000D02*
X158615000Y-105797000D01*
X158615000Y-106547000D01*
X157615000Y-106797000D01*
X157615000Y-105547000D01*
X157615000Y-105547000D01*
G37*
G36*
X156345000Y-105797000D02*
X157345000Y-105547000D01*
X157345000Y-106797000D01*
X156345000Y-106547000D01*
X156345000Y-105797000D01*
X156345000Y-105797000D01*
G37*
D19*
X152146000Y-100076000D03*
X154846000Y-100076000D03*
D20*
X125730000Y-69850000D03*
X123190000Y-72390000D03*
X125730000Y-72390000D03*
X128270000Y-72390000D03*
X130810000Y-72390000D03*
X165100000Y-97790000D03*
X165100000Y-100330000D03*
X166370000Y-80010000D03*
X166370000Y-85090000D03*
X123190000Y-80010000D03*
X123190000Y-85090000D03*
D21*
X148082000Y-104140000D03*
X149606000Y-104140000D03*
X149606000Y-106172000D03*
X148082000Y-106172000D03*
D11*
X134112000Y-101092000D03*
X134112000Y-99568000D03*
X131572000Y-99568000D03*
X131572000Y-101092000D03*
D21*
X145288000Y-73152000D03*
X146812000Y-73152000D03*
X142240000Y-73152000D03*
X143764000Y-73152000D03*
X139192000Y-73152000D03*
X140716000Y-73152000D03*
D22*
X124460000Y-104140000D03*
X126960000Y-104140000D03*
X129460000Y-104140000D03*
D23*
X128524000Y-86426000D03*
X128524000Y-87376000D03*
X128524000Y-88326000D03*
X131024000Y-88326000D03*
X131024000Y-86426000D03*
X152146000Y-104206000D03*
X152146000Y-105156000D03*
X152146000Y-106106000D03*
X154646000Y-106106000D03*
X154646000Y-104206000D03*
X134112000Y-97724000D03*
X134112000Y-96774000D03*
X134112000Y-95824000D03*
X131612000Y-95824000D03*
X131612000Y-97724000D03*
D24*
X136652000Y-80766000D03*
D25*
X136652000Y-81566000D03*
X136652000Y-82366000D03*
X136652000Y-83166000D03*
X136652000Y-83966000D03*
X136652000Y-84766000D03*
X136652000Y-85566000D03*
X136652000Y-86366000D03*
X145112000Y-86366000D03*
X145112000Y-85566000D03*
X145112000Y-84766000D03*
X145112000Y-83966000D03*
X145112000Y-83166000D03*
X145112000Y-82366000D03*
X145112000Y-81566000D03*
X145112000Y-80766000D03*
D26*
X137852000Y-87816000D03*
X138652000Y-87816000D03*
X139452000Y-87816000D03*
X140252000Y-87816000D03*
X141052000Y-87816000D03*
X141852000Y-87816000D03*
X142652000Y-87816000D03*
X143452000Y-87816000D03*
X143452000Y-79316000D03*
X142652000Y-79316000D03*
X141852000Y-79316000D03*
X141052000Y-79316000D03*
X140252000Y-79316000D03*
X139452000Y-79316000D03*
X138652000Y-79316000D03*
X137852000Y-79316000D03*
D27*
X143002000Y-90932000D03*
D28*
X142002000Y-90932000D03*
X141002000Y-90932000D03*
X140002000Y-90932000D03*
X139002000Y-90932000D03*
X139002000Y-96252000D03*
X140002000Y-96252000D03*
X141002000Y-96252000D03*
X142002000Y-96252000D03*
X143002000Y-96252000D03*
D29*
X149860000Y-73660000D03*
X149860000Y-75160000D03*
X149860000Y-76660000D03*
X149860000Y-78160000D03*
X149860000Y-79660000D03*
X149860000Y-81160000D03*
X149860000Y-82660000D03*
X149860000Y-84160000D03*
X149860000Y-85660000D03*
X149860000Y-87160000D03*
X149860000Y-88660000D03*
X149860000Y-90160000D03*
X149860000Y-91660000D03*
X162560000Y-91660000D03*
X162560000Y-90160000D03*
X162560000Y-88660000D03*
X162560000Y-87160000D03*
X162560000Y-85660000D03*
X162560000Y-84160000D03*
X162560000Y-82660000D03*
X162560000Y-81160000D03*
X162560000Y-79660000D03*
X162560000Y-78160000D03*
X162560000Y-76660000D03*
X162560000Y-75160000D03*
X162560000Y-73660000D03*
D30*
X150960000Y-93560000D03*
X152460000Y-93560000D03*
X153960000Y-93560000D03*
X155460000Y-93560000D03*
X156960000Y-93560000D03*
X158460000Y-93560000D03*
X159960000Y-93560000D03*
X161460000Y-93560000D03*
D31*
X127873000Y-78018000D03*
D32*
X132223000Y-78018000D03*
X127873000Y-79288000D03*
X132223000Y-79288000D03*
X127873000Y-80558000D03*
X132223000Y-80558000D03*
X127873000Y-81828000D03*
X132223000Y-81828000D03*
X127873000Y-83098000D03*
X132223000Y-83098000D03*
D20*
X137160000Y-105410000D03*
X134620000Y-105410000D03*
X128270000Y-69850000D03*
X133350000Y-72390000D03*
X123190000Y-69850000D03*
D33*
X135991600Y-98094800D03*
X137566400Y-96520000D03*
X159359600Y-100888800D03*
X157226000Y-100888800D03*
X136855200Y-90779600D03*
X138328400Y-83718400D03*
X147447000Y-90170000D03*
X137418445Y-89670255D03*
X135001000Y-86233000D03*
X135211724Y-84919724D03*
X136652000Y-87884000D03*
X124587000Y-77597000D03*
X138684000Y-86487000D03*
X141351000Y-86487000D03*
X143383000Y-86106000D03*
X141986000Y-94742000D03*
X141986000Y-97790000D03*
X138684000Y-93980000D03*
X137922000Y-94996000D03*
X155752800Y-103073200D03*
X128524000Y-89408000D03*
D34*
X134620000Y-105410000D02*
X128230000Y-105410000D01*
X128230000Y-105410000D02*
X126960000Y-104140000D01*
X134620000Y-105410000D02*
X137556001Y-102473999D01*
X137556001Y-102473999D02*
X137556001Y-98218001D01*
X137556001Y-98218001D02*
X135162000Y-95824000D01*
X135162000Y-95824000D02*
X134112000Y-95824000D01*
D35*
X134112000Y-95824000D02*
X134112000Y-94234000D01*
X134112000Y-96774000D02*
X134670800Y-96774000D01*
X134670800Y-96774000D02*
X135991600Y-98094800D01*
X157226000Y-102362000D02*
X157226000Y-100888800D01*
X136652000Y-84766000D02*
X136652000Y-83966000D01*
X136652000Y-83966000D02*
X138080800Y-83966000D01*
X136695600Y-90779600D02*
X136855200Y-90779600D01*
X134054000Y-88138000D02*
X136695600Y-90779600D01*
X134054000Y-88138000D02*
X133350000Y-88138000D01*
X138080800Y-83966000D02*
X138328400Y-83718400D01*
X128524000Y-87376000D02*
X127000000Y-87376000D01*
X127000000Y-87376000D02*
X126238000Y-86614000D01*
D34*
X143002000Y-94184000D02*
X143002000Y-90932000D01*
X147320000Y-98552000D02*
X147320000Y-98502000D01*
X147320000Y-98502000D02*
X143002000Y-94184000D01*
X148082000Y-104140000D02*
X148082000Y-102568000D01*
X148082000Y-102568000D02*
X146860000Y-101346000D01*
X145889000Y-100375000D02*
X145889000Y-100033000D01*
X145889000Y-100033000D02*
X147320000Y-98602000D01*
X147320000Y-98602000D02*
X147320000Y-98552000D01*
X142240000Y-100375000D02*
X145889000Y-100375000D01*
X145889000Y-100375000D02*
X146860000Y-101346000D01*
D35*
X137418445Y-89670255D02*
X136606255Y-89670255D01*
X136606255Y-89670255D02*
X133550000Y-86614000D01*
X133550000Y-86614000D02*
X133350000Y-86614000D01*
X147447000Y-90170000D02*
X149850000Y-90170000D01*
X149850000Y-90170000D02*
X149860000Y-90160000D01*
X155392791Y-97086989D02*
X156095802Y-97790000D01*
X156095802Y-97790000D02*
X165100000Y-97790000D01*
X149860000Y-90160000D02*
X148731000Y-90160000D01*
X148731000Y-90160000D02*
X148603999Y-90287001D01*
X148603999Y-90287001D02*
X148603999Y-93264801D01*
X148603999Y-93264801D02*
X152426187Y-97086989D01*
X152426187Y-97086989D02*
X155392791Y-97086989D01*
X155392791Y-97086989D02*
X158242000Y-99936198D01*
X158242000Y-99936198D02*
X158242000Y-104648000D01*
X158242000Y-104648000D02*
X158242000Y-106172000D01*
X136652000Y-83166000D02*
X136652000Y-82366000D01*
X133350000Y-86614000D02*
X133350000Y-85614000D01*
X133350000Y-85614000D02*
X135798000Y-83166000D01*
X135798000Y-83166000D02*
X136652000Y-83166000D01*
X133350000Y-86614000D02*
X131212000Y-86614000D01*
X131212000Y-86614000D02*
X131024000Y-86426000D01*
X127873000Y-78018000D02*
X128543802Y-78018000D01*
X128543802Y-78018000D02*
X130120000Y-79594198D01*
X130120000Y-79594198D02*
X130120000Y-84993000D01*
X130120000Y-84993000D02*
X131024000Y-85897000D01*
X131024000Y-85897000D02*
X131024000Y-86426000D01*
D34*
X131612000Y-95824000D02*
X131612000Y-94274000D01*
X131612000Y-94274000D02*
X131572000Y-94234000D01*
X131612000Y-95824000D02*
X130562000Y-95824000D01*
X130562000Y-95824000D02*
X129572999Y-94834999D01*
X129572999Y-94834999D02*
X129204201Y-94834999D01*
X129204201Y-94834999D02*
X127841000Y-94834999D01*
D35*
X131987000Y-95824000D02*
X133080999Y-96917999D01*
X133080999Y-96917999D02*
X133080999Y-99922801D01*
X133080999Y-99922801D02*
X133357199Y-100199001D01*
X133357199Y-100199001D02*
X135316999Y-100199001D01*
X135316999Y-100199001D02*
X135948000Y-99568000D01*
X131612000Y-95824000D02*
X131987000Y-95824000D01*
X135948000Y-99568000D02*
X136652000Y-99568000D01*
D34*
X149860000Y-101346000D02*
X150876000Y-101346000D01*
X150876000Y-101346000D02*
X152146000Y-100076000D01*
X152146000Y-104206000D02*
X152146000Y-103632000D01*
X152146000Y-103632000D02*
X149860000Y-101346000D01*
D35*
X136652000Y-101092000D02*
X134112000Y-101092000D01*
X143452000Y-79316000D02*
X143452000Y-78090000D01*
X143452000Y-78090000D02*
X145088000Y-76454000D01*
X145088000Y-76454000D02*
X145288000Y-76454000D01*
X145288000Y-74930000D02*
X145288000Y-73152000D01*
X142652000Y-79316000D02*
X142652000Y-76866000D01*
X142652000Y-76866000D02*
X142240000Y-76454000D01*
X142240000Y-74930000D02*
X142240000Y-73152000D01*
X141852000Y-79316000D02*
X141852000Y-78410000D01*
X141852000Y-78410000D02*
X139896000Y-76454000D01*
X139896000Y-76454000D02*
X139192000Y-76454000D01*
X139192000Y-74930000D02*
X139192000Y-73152000D01*
X145112000Y-81566000D02*
X144376198Y-81566000D01*
X144376198Y-81566000D02*
X144130999Y-81320801D01*
X144130999Y-81320801D02*
X144130999Y-79041567D01*
X144130999Y-79041567D02*
X148603999Y-74568567D01*
X148603999Y-74568567D02*
X148603999Y-73787001D01*
X148603999Y-73787001D02*
X148731000Y-73660000D01*
X148731000Y-73660000D02*
X149860000Y-73660000D01*
X145112000Y-80766000D02*
X145112000Y-78779000D01*
X145112000Y-78779000D02*
X148731000Y-75160000D01*
X148731000Y-75160000D02*
X149860000Y-75160000D01*
X132223000Y-78018000D02*
X136904000Y-78018000D01*
X136904000Y-78018000D02*
X137852000Y-78966000D01*
X137852000Y-78966000D02*
X137852000Y-79316000D01*
X132223000Y-79288000D02*
X131094000Y-79288000D01*
X131094000Y-79288000D02*
X130966999Y-79160999D01*
X130966999Y-79160999D02*
X130966999Y-77333199D01*
X130966999Y-77333199D02*
X131043199Y-77256999D01*
X131043199Y-77256999D02*
X138246999Y-77256999D01*
X138246999Y-77256999D02*
X139452000Y-78462000D01*
X139452000Y-78462000D02*
X139452000Y-79316000D01*
X137646382Y-80518000D02*
X138304000Y-80518000D01*
X138304000Y-80518000D02*
X138652000Y-80170000D01*
X138652000Y-80170000D02*
X138652000Y-79316000D01*
X132223000Y-83098000D02*
X133077618Y-83098000D01*
X133077618Y-83098000D02*
X136040628Y-80134990D01*
X136040628Y-80134990D02*
X137263372Y-80134990D01*
X137263372Y-80134990D02*
X137646382Y-80518000D01*
X145112000Y-86366000D02*
X145112000Y-91966154D01*
X154646000Y-106106000D02*
X154271000Y-106106000D01*
X154271000Y-106106000D02*
X153614999Y-105449999D01*
X153614999Y-105449999D02*
X153614999Y-98009197D01*
X153614999Y-98009197D02*
X153200801Y-97594999D01*
X153200801Y-97594999D02*
X150510000Y-97594999D01*
X150510000Y-97594999D02*
X145112000Y-92196999D01*
X145112000Y-92196999D02*
X145112000Y-91966154D01*
X154646000Y-106106000D02*
X156906000Y-106106000D01*
X136652000Y-86366000D02*
X135134000Y-86366000D01*
X135134000Y-86366000D02*
X135001000Y-86233000D01*
X136652000Y-85566000D02*
X135858000Y-85566000D01*
X135858000Y-85566000D02*
X135211724Y-84919724D01*
X136652000Y-87884000D02*
X137784000Y-87884000D01*
X137784000Y-87884000D02*
X137852000Y-87816000D01*
X123190000Y-72390000D02*
X123190000Y-76200000D01*
X123190000Y-76200000D02*
X124587000Y-77597000D01*
X138684000Y-86487000D02*
X138684000Y-87784000D01*
X138684000Y-87784000D02*
X138652000Y-87816000D01*
X142652000Y-87816000D02*
X142652000Y-86962000D01*
X142652000Y-86962000D02*
X142177000Y-86487000D01*
X142177000Y-86487000D02*
X141351000Y-86487000D01*
X143383000Y-86106000D02*
X143383000Y-87747000D01*
X143383000Y-87747000D02*
X143452000Y-87816000D01*
D34*
X143002000Y-96252000D02*
X143002000Y-95262000D01*
X143002000Y-95262000D02*
X142482000Y-94742000D01*
X142482000Y-94742000D02*
X141986000Y-94742000D01*
X142002000Y-96252000D02*
X142002000Y-97774000D01*
X142002000Y-97774000D02*
X141986000Y-97790000D01*
X141002000Y-96252000D02*
X141002000Y-95262000D01*
X141002000Y-95262000D02*
X139720000Y-93980000D01*
X139720000Y-93980000D02*
X138684000Y-93980000D01*
X140002000Y-96252000D02*
X140002000Y-95262000D01*
X140002000Y-95262000D02*
X139736000Y-94996000D01*
X139736000Y-94996000D02*
X137922000Y-94996000D01*
D35*
X149606000Y-104140000D02*
X149606000Y-106172000D01*
D34*
X149606000Y-106172000D02*
X152080000Y-106172000D01*
X152080000Y-106172000D02*
X152146000Y-106106000D01*
D35*
X134112000Y-97724000D02*
X134112000Y-99568000D01*
X131612000Y-97724000D02*
X131612000Y-99528000D01*
X131612000Y-99528000D02*
X131572000Y-99568000D01*
X139452000Y-87816000D02*
X139452000Y-88670000D01*
X139452000Y-88670000D02*
X139002000Y-89120000D01*
X139002000Y-89120000D02*
X139002000Y-90088000D01*
X139002000Y-90088000D02*
X139002000Y-90932000D01*
X140252000Y-87816000D02*
X140252000Y-90682000D01*
X140252000Y-90682000D02*
X140002000Y-90932000D01*
X141052000Y-87816000D02*
X141052000Y-90882000D01*
X141052000Y-90882000D02*
X141002000Y-90932000D01*
X141852000Y-87816000D02*
X141852000Y-90782000D01*
X141852000Y-90782000D02*
X142002000Y-90932000D01*
D34*
X155752800Y-103073200D02*
X155752800Y-100982800D01*
X155752800Y-100982800D02*
X154846000Y-100076000D01*
X154646000Y-104206000D02*
X156906000Y-104206000D01*
X156906000Y-104206000D02*
X157226000Y-103886000D01*
X154646000Y-104206000D02*
X154646000Y-100276000D01*
X154646000Y-100276000D02*
X154846000Y-100076000D01*
X128524000Y-89408000D02*
X128524000Y-88326000D01*
D35*
X128524000Y-88326000D02*
X129428000Y-88326000D01*
X129428000Y-88326000D02*
X129555001Y-88198999D01*
X129555001Y-88198999D02*
X129555001Y-86553001D01*
X129555001Y-86553001D02*
X129428000Y-86426000D01*
X129428000Y-86426000D02*
X128524000Y-86426000D01*
X126238000Y-88138000D02*
X128336000Y-88138000D01*
X128336000Y-88138000D02*
X128524000Y-88326000D01*
G36*
X128592000Y-87424000D02*
X128572000Y-87424000D01*
X128572000Y-87444000D01*
X128476000Y-87444000D01*
X128476000Y-87424000D01*
X127397750Y-87424000D01*
X127239000Y-87582750D01*
X127239000Y-87584000D01*
X126999031Y-87584000D01*
X126997776Y-87582088D01*
X126855868Y-87486300D01*
X126848525Y-87484827D01*
X127047699Y-87402327D01*
X127226327Y-87223698D01*
X127239000Y-87193102D01*
X127245986Y-87176236D01*
X127397750Y-87328000D01*
X128476000Y-87328000D01*
X128476000Y-87308000D01*
X128572000Y-87308000D01*
X128572000Y-87328000D01*
X128592000Y-87328000D01*
X128592000Y-87424000D01*
X128592000Y-87424000D01*
G37*
X128592000Y-87424000D02*
X128572000Y-87424000D01*
X128572000Y-87444000D01*
X128476000Y-87444000D01*
X128476000Y-87424000D01*
X127397750Y-87424000D01*
X127239000Y-87582750D01*
X127239000Y-87584000D01*
X126999031Y-87584000D01*
X126997776Y-87582088D01*
X126855868Y-87486300D01*
X126848525Y-87484827D01*
X127047699Y-87402327D01*
X127226327Y-87223698D01*
X127239000Y-87193102D01*
X127245986Y-87176236D01*
X127397750Y-87328000D01*
X128476000Y-87328000D01*
X128476000Y-87308000D01*
X128572000Y-87308000D01*
X128572000Y-87328000D01*
X128592000Y-87328000D01*
X128592000Y-87424000D01*
G36*
X134180000Y-96822000D02*
X134160000Y-96822000D01*
X134160000Y-96842000D01*
X134064000Y-96842000D01*
X134064000Y-96822000D01*
X134044000Y-96822000D01*
X134044000Y-96726000D01*
X134064000Y-96726000D01*
X134064000Y-96706000D01*
X134160000Y-96706000D01*
X134160000Y-96726000D01*
X134180000Y-96726000D01*
X134180000Y-96822000D01*
X134180000Y-96822000D01*
G37*
X134180000Y-96822000D02*
X134160000Y-96822000D01*
X134160000Y-96842000D01*
X134064000Y-96842000D01*
X134064000Y-96822000D01*
X134044000Y-96822000D01*
X134044000Y-96726000D01*
X134064000Y-96726000D01*
X134064000Y-96706000D01*
X134160000Y-96706000D01*
X134160000Y-96726000D01*
X134180000Y-96726000D01*
X134180000Y-96822000D01*
G36*
X136821750Y-84814000D02*
X136700000Y-84814000D01*
X136700000Y-84834000D01*
X136604000Y-84834000D01*
X136604000Y-84814000D01*
X136584000Y-84814000D01*
X136584000Y-84718000D01*
X136604000Y-84718000D01*
X136604000Y-84692250D01*
X136604000Y-84039750D01*
X136604000Y-84014000D01*
X136584000Y-84014000D01*
X136584000Y-83918000D01*
X136604000Y-83918000D01*
X136604000Y-83898000D01*
X136700000Y-83898000D01*
X136700000Y-83918000D01*
X136821750Y-83918000D01*
X136725750Y-84014000D01*
X136700000Y-84014000D01*
X136700000Y-84039750D01*
X136700000Y-84692250D01*
X136700000Y-84718000D01*
X136725750Y-84718000D01*
X136821750Y-84814000D01*
X136821750Y-84814000D01*
G37*
X136821750Y-84814000D02*
X136700000Y-84814000D01*
X136700000Y-84834000D01*
X136604000Y-84834000D01*
X136604000Y-84814000D01*
X136584000Y-84814000D01*
X136584000Y-84718000D01*
X136604000Y-84718000D01*
X136604000Y-84692250D01*
X136604000Y-84039750D01*
X136604000Y-84014000D01*
X136584000Y-84014000D01*
X136584000Y-83918000D01*
X136604000Y-83918000D01*
X136604000Y-83898000D01*
X136700000Y-83898000D01*
X136700000Y-83918000D01*
X136821750Y-83918000D01*
X136725750Y-84014000D01*
X136700000Y-84014000D01*
X136700000Y-84039750D01*
X136700000Y-84692250D01*
X136700000Y-84718000D01*
X136725750Y-84718000D01*
X136821750Y-84814000D01*
G36*
X136929001Y-98882635D02*
X136202000Y-98882635D01*
X136039186Y-98914224D01*
X135896088Y-99008224D01*
X135883533Y-99026823D01*
X135735993Y-99056171D01*
X135556263Y-99176263D01*
X135087525Y-99645001D01*
X134997365Y-99645001D01*
X134997365Y-99318000D01*
X134965776Y-99155186D01*
X134871776Y-99012088D01*
X134729868Y-98916300D01*
X134666000Y-98903491D01*
X134666000Y-98434365D01*
X134762000Y-98434365D01*
X134924814Y-98402776D01*
X135067912Y-98308776D01*
X135163700Y-98166868D01*
X135197365Y-97999000D01*
X135197365Y-97511660D01*
X135300327Y-97408699D01*
X135397000Y-97175310D01*
X135397000Y-96980750D01*
X135238252Y-96822002D01*
X135273290Y-96822002D01*
X135397000Y-96945712D01*
X136929001Y-98477713D01*
X136929001Y-98882635D01*
X136929001Y-98882635D01*
G37*
X136929001Y-98882635D02*
X136202000Y-98882635D01*
X136039186Y-98914224D01*
X135896088Y-99008224D01*
X135883533Y-99026823D01*
X135735993Y-99056171D01*
X135556263Y-99176263D01*
X135087525Y-99645001D01*
X134997365Y-99645001D01*
X134997365Y-99318000D01*
X134965776Y-99155186D01*
X134871776Y-99012088D01*
X134729868Y-98916300D01*
X134666000Y-98903491D01*
X134666000Y-98434365D01*
X134762000Y-98434365D01*
X134924814Y-98402776D01*
X135067912Y-98308776D01*
X135163700Y-98166868D01*
X135197365Y-97999000D01*
X135197365Y-97511660D01*
X135300327Y-97408699D01*
X135397000Y-97175310D01*
X135397000Y-96980750D01*
X135238252Y-96822002D01*
X135273290Y-96822002D01*
X135397000Y-96945712D01*
X136929001Y-98477713D01*
X136929001Y-98882635D01*
G36*
X144106219Y-85168480D02*
X144076635Y-85316000D01*
X144076635Y-85567282D01*
X143877310Y-85367609D01*
X143557113Y-85234651D01*
X143210408Y-85234349D01*
X142889980Y-85366747D01*
X142644609Y-85611690D01*
X142511651Y-85931887D01*
X142511541Y-86057046D01*
X142389007Y-85975171D01*
X142177000Y-85933000D01*
X142029379Y-85933000D01*
X141845310Y-85748609D01*
X141525113Y-85615651D01*
X141178408Y-85615349D01*
X140857980Y-85747747D01*
X140612609Y-85992690D01*
X140479651Y-86312887D01*
X140479349Y-86659592D01*
X140531835Y-86786618D01*
X140502000Y-86780635D01*
X140002000Y-86780635D01*
X139849519Y-86810219D01*
X139702000Y-86780635D01*
X139505718Y-86780635D01*
X139555349Y-86661113D01*
X139555651Y-86314408D01*
X139423253Y-85993980D01*
X139178310Y-85748609D01*
X138858113Y-85615651D01*
X138511408Y-85615349D01*
X138190980Y-85747747D01*
X137945609Y-85992690D01*
X137812651Y-86312887D01*
X137812349Y-86659592D01*
X137862362Y-86780635D01*
X137654348Y-86780635D01*
X137687365Y-86616000D01*
X137687365Y-86116000D01*
X137657780Y-85963519D01*
X137687365Y-85816000D01*
X137687365Y-85478660D01*
X137790327Y-85375699D01*
X137887000Y-85142310D01*
X137887000Y-84972750D01*
X137728250Y-84814000D01*
X137467634Y-84814000D01*
X137611698Y-84754327D01*
X137648025Y-84718000D01*
X137728250Y-84718000D01*
X137887000Y-84559250D01*
X137887000Y-84389690D01*
X137877187Y-84366000D01*
X137887000Y-84342310D01*
X137887000Y-84172750D01*
X137728250Y-84014000D01*
X137648025Y-84014000D01*
X137611698Y-83977673D01*
X137467634Y-83918000D01*
X137728250Y-83918000D01*
X137887000Y-83759250D01*
X137887000Y-83589690D01*
X137790327Y-83356301D01*
X137687365Y-83253339D01*
X137687365Y-82916000D01*
X137657780Y-82763519D01*
X137687365Y-82616000D01*
X137687365Y-82116000D01*
X137657780Y-81963519D01*
X137687365Y-81816000D01*
X137687365Y-81316000D01*
X137655776Y-81153186D01*
X137609280Y-81082405D01*
X137619769Y-81066706D01*
X137619770Y-81066706D01*
X137646382Y-81072000D01*
X138304000Y-81072000D01*
X138516006Y-81029829D01*
X138516007Y-81029829D01*
X138695737Y-80909737D01*
X139043737Y-80561737D01*
X139163829Y-80382007D01*
X139163829Y-80382006D01*
X139171154Y-80345179D01*
X139202000Y-80351365D01*
X139702000Y-80351365D01*
X139854480Y-80321780D01*
X140002000Y-80351365D01*
X140502000Y-80351365D01*
X140654480Y-80321780D01*
X140802000Y-80351365D01*
X141302000Y-80351365D01*
X141454480Y-80321780D01*
X141602000Y-80351365D01*
X142102000Y-80351365D01*
X142254480Y-80321780D01*
X142402000Y-80351365D01*
X142902000Y-80351365D01*
X143054480Y-80321780D01*
X143202000Y-80351365D01*
X143576999Y-80351365D01*
X143576999Y-81320801D01*
X143619170Y-81532808D01*
X143739262Y-81712538D01*
X143984461Y-81957737D01*
X144093731Y-82030749D01*
X144076635Y-82116000D01*
X144076635Y-82616000D01*
X144106219Y-82768480D01*
X144076635Y-82916000D01*
X144076635Y-83416000D01*
X144106219Y-83568480D01*
X144076635Y-83716000D01*
X144076635Y-84216000D01*
X144106219Y-84368480D01*
X144076635Y-84516000D01*
X144076635Y-85016000D01*
X144106219Y-85168480D01*
X144106219Y-85168480D01*
G37*
X144106219Y-85168480D02*
X144076635Y-85316000D01*
X144076635Y-85567282D01*
X143877310Y-85367609D01*
X143557113Y-85234651D01*
X143210408Y-85234349D01*
X142889980Y-85366747D01*
X142644609Y-85611690D01*
X142511651Y-85931887D01*
X142511541Y-86057046D01*
X142389007Y-85975171D01*
X142177000Y-85933000D01*
X142029379Y-85933000D01*
X141845310Y-85748609D01*
X141525113Y-85615651D01*
X141178408Y-85615349D01*
X140857980Y-85747747D01*
X140612609Y-85992690D01*
X140479651Y-86312887D01*
X140479349Y-86659592D01*
X140531835Y-86786618D01*
X140502000Y-86780635D01*
X140002000Y-86780635D01*
X139849519Y-86810219D01*
X139702000Y-86780635D01*
X139505718Y-86780635D01*
X139555349Y-86661113D01*
X139555651Y-86314408D01*
X139423253Y-85993980D01*
X139178310Y-85748609D01*
X138858113Y-85615651D01*
X138511408Y-85615349D01*
X138190980Y-85747747D01*
X137945609Y-85992690D01*
X137812651Y-86312887D01*
X137812349Y-86659592D01*
X137862362Y-86780635D01*
X137654348Y-86780635D01*
X137687365Y-86616000D01*
X137687365Y-86116000D01*
X137657780Y-85963519D01*
X137687365Y-85816000D01*
X137687365Y-85478660D01*
X137790327Y-85375699D01*
X137887000Y-85142310D01*
X137887000Y-84972750D01*
X137728250Y-84814000D01*
X137467634Y-84814000D01*
X137611698Y-84754327D01*
X137648025Y-84718000D01*
X137728250Y-84718000D01*
X137887000Y-84559250D01*
X137887000Y-84389690D01*
X137877187Y-84366000D01*
X137887000Y-84342310D01*
X137887000Y-84172750D01*
X137728250Y-84014000D01*
X137648025Y-84014000D01*
X137611698Y-83977673D01*
X137467634Y-83918000D01*
X137728250Y-83918000D01*
X137887000Y-83759250D01*
X137887000Y-83589690D01*
X137790327Y-83356301D01*
X137687365Y-83253339D01*
X137687365Y-82916000D01*
X137657780Y-82763519D01*
X137687365Y-82616000D01*
X137687365Y-82116000D01*
X137657780Y-81963519D01*
X137687365Y-81816000D01*
X137687365Y-81316000D01*
X137655776Y-81153186D01*
X137609280Y-81082405D01*
X137619769Y-81066706D01*
X137619770Y-81066706D01*
X137646382Y-81072000D01*
X138304000Y-81072000D01*
X138516006Y-81029829D01*
X138516007Y-81029829D01*
X138695737Y-80909737D01*
X139043737Y-80561737D01*
X139163829Y-80382007D01*
X139163829Y-80382006D01*
X139171154Y-80345179D01*
X139202000Y-80351365D01*
X139702000Y-80351365D01*
X139854480Y-80321780D01*
X140002000Y-80351365D01*
X140502000Y-80351365D01*
X140654480Y-80321780D01*
X140802000Y-80351365D01*
X141302000Y-80351365D01*
X141454480Y-80321780D01*
X141602000Y-80351365D01*
X142102000Y-80351365D01*
X142254480Y-80321780D01*
X142402000Y-80351365D01*
X142902000Y-80351365D01*
X143054480Y-80321780D01*
X143202000Y-80351365D01*
X143576999Y-80351365D01*
X143576999Y-81320801D01*
X143619170Y-81532808D01*
X143739262Y-81712538D01*
X143984461Y-81957737D01*
X144093731Y-82030749D01*
X144076635Y-82116000D01*
X144076635Y-82616000D01*
X144106219Y-82768480D01*
X144076635Y-82916000D01*
X144076635Y-83416000D01*
X144106219Y-83568480D01*
X144076635Y-83716000D01*
X144076635Y-84216000D01*
X144106219Y-84368480D01*
X144076635Y-84516000D01*
X144076635Y-85016000D01*
X144106219Y-85168480D01*
G36*
X157688000Y-101477000D02*
X157549691Y-101477000D01*
X157432750Y-101477000D01*
X157274000Y-101635750D01*
X157274000Y-102314000D01*
X157294000Y-102314000D01*
X157294000Y-102410000D01*
X157274000Y-102410000D01*
X157274000Y-102430000D01*
X157178000Y-102430000D01*
X157178000Y-102410000D01*
X157158000Y-102410000D01*
X157158000Y-102314000D01*
X157178000Y-102314000D01*
X157178000Y-101635750D01*
X157019250Y-101477000D01*
X156902309Y-101477000D01*
X156649690Y-101477000D01*
X156416301Y-101573673D01*
X156379800Y-101610174D01*
X156379800Y-100982800D01*
X156332073Y-100742858D01*
X156332072Y-100742857D01*
X156196156Y-100539444D01*
X156031365Y-100374653D01*
X156031365Y-98509037D01*
X157688000Y-100165672D01*
X157688000Y-101477000D01*
X157688000Y-101477000D01*
G37*
X157688000Y-101477000D02*
X157549691Y-101477000D01*
X157432750Y-101477000D01*
X157274000Y-101635750D01*
X157274000Y-102314000D01*
X157294000Y-102314000D01*
X157294000Y-102410000D01*
X157274000Y-102410000D01*
X157274000Y-102430000D01*
X157178000Y-102430000D01*
X157178000Y-102410000D01*
X157158000Y-102410000D01*
X157158000Y-102314000D01*
X157178000Y-102314000D01*
X157178000Y-101635750D01*
X157019250Y-101477000D01*
X156902309Y-101477000D01*
X156649690Y-101477000D01*
X156416301Y-101573673D01*
X156379800Y-101610174D01*
X156379800Y-100982800D01*
X156332073Y-100742858D01*
X156332072Y-100742857D01*
X156196156Y-100539444D01*
X156031365Y-100374653D01*
X156031365Y-98509037D01*
X157688000Y-100165672D01*
X157688000Y-101477000D01*
G36*
X168433000Y-105363017D02*
X168267329Y-106195900D01*
X167822153Y-106862153D01*
X167672226Y-106962331D01*
X167672226Y-84832152D01*
X167672226Y-79752152D01*
X167474426Y-79273440D01*
X167108487Y-78906861D01*
X166630120Y-78708226D01*
X166112152Y-78707774D01*
X165633440Y-78905574D01*
X165266861Y-79271513D01*
X165068226Y-79749880D01*
X165067774Y-80267848D01*
X165265574Y-80746560D01*
X165631513Y-81113139D01*
X166109880Y-81311774D01*
X166627848Y-81312226D01*
X167106560Y-81114426D01*
X167473139Y-80748487D01*
X167671774Y-80270120D01*
X167672226Y-79752152D01*
X167672226Y-84832152D01*
X167474426Y-84353440D01*
X167108487Y-83986861D01*
X166630120Y-83788226D01*
X166112152Y-83787774D01*
X165633440Y-83985574D01*
X165266861Y-84351513D01*
X165068226Y-84829880D01*
X165067774Y-85347848D01*
X165265574Y-85826560D01*
X165631513Y-86193139D01*
X166109880Y-86391774D01*
X166627848Y-86392226D01*
X167106560Y-86194426D01*
X167473139Y-85828487D01*
X167671774Y-85350120D01*
X167672226Y-84832152D01*
X167672226Y-106962331D01*
X167155900Y-107307329D01*
X166612381Y-107415441D01*
X166612381Y-100041864D01*
X166402226Y-99522667D01*
X166402226Y-97532152D01*
X166204426Y-97053440D01*
X165838487Y-96686861D01*
X165360120Y-96488226D01*
X164842152Y-96487774D01*
X164363440Y-96685574D01*
X164070000Y-96978501D01*
X163996861Y-97051513D01*
X163920255Y-97236000D01*
X162595000Y-97236000D01*
X162595000Y-94561310D01*
X162595000Y-94308691D01*
X162595000Y-93766750D01*
X162436250Y-93608000D01*
X161508000Y-93608000D01*
X161508000Y-94911250D01*
X161666750Y-95070000D01*
X162086309Y-95070000D01*
X162319698Y-94973327D01*
X162498327Y-94794699D01*
X162595000Y-94561310D01*
X162595000Y-97236000D01*
X156325276Y-97236000D01*
X155784528Y-96695252D01*
X155604798Y-96575160D01*
X155392791Y-96532989D01*
X152655661Y-96532989D01*
X150993037Y-94870365D01*
X151460000Y-94870365D01*
X151622814Y-94838776D01*
X151710182Y-94781384D01*
X151792132Y-94836700D01*
X151960000Y-94870365D01*
X152960000Y-94870365D01*
X153122814Y-94838776D01*
X153210182Y-94781384D01*
X153292132Y-94836700D01*
X153460000Y-94870365D01*
X154460000Y-94870365D01*
X154622814Y-94838776D01*
X154710182Y-94781384D01*
X154792132Y-94836700D01*
X154960000Y-94870365D01*
X155960000Y-94870365D01*
X156122814Y-94838776D01*
X156210182Y-94781384D01*
X156292132Y-94836700D01*
X156460000Y-94870365D01*
X157460000Y-94870365D01*
X157622814Y-94838776D01*
X157710182Y-94781384D01*
X157792132Y-94836700D01*
X157960000Y-94870365D01*
X158960000Y-94870365D01*
X159122814Y-94838776D01*
X159210182Y-94781384D01*
X159292132Y-94836700D01*
X159460000Y-94870365D01*
X160460000Y-94870365D01*
X160491272Y-94864297D01*
X160600302Y-94973327D01*
X160833691Y-95070000D01*
X161253250Y-95070000D01*
X161412000Y-94911250D01*
X161412000Y-93608000D01*
X161392000Y-93608000D01*
X161392000Y-93512000D01*
X161412000Y-93512000D01*
X161412000Y-93492000D01*
X161508000Y-93492000D01*
X161508000Y-93512000D01*
X162436250Y-93512000D01*
X162595000Y-93353250D01*
X162595000Y-92811309D01*
X162595000Y-92795000D01*
X162608002Y-92795000D01*
X162608002Y-92636252D01*
X162766750Y-92795000D01*
X163561309Y-92795000D01*
X163794698Y-92698327D01*
X163973327Y-92519699D01*
X164070000Y-92286310D01*
X164070000Y-92033691D01*
X164070000Y-91866750D01*
X164070000Y-91453250D01*
X164070000Y-91286309D01*
X164070000Y-91033690D01*
X163973327Y-90800301D01*
X163864127Y-90691102D01*
X163870365Y-90660000D01*
X163870365Y-89660000D01*
X163838776Y-89497186D01*
X163781384Y-89409817D01*
X163836700Y-89327868D01*
X163870365Y-89160000D01*
X163870365Y-88160000D01*
X163838776Y-87997186D01*
X163781384Y-87909817D01*
X163836700Y-87827868D01*
X163870365Y-87660000D01*
X163870365Y-86660000D01*
X163838776Y-86497186D01*
X163781384Y-86409817D01*
X163836700Y-86327868D01*
X163870365Y-86160000D01*
X163870365Y-85160000D01*
X163838776Y-84997186D01*
X163781384Y-84909817D01*
X163836700Y-84827868D01*
X163870365Y-84660000D01*
X163870365Y-83660000D01*
X163838776Y-83497186D01*
X163781384Y-83409817D01*
X163836700Y-83327868D01*
X163870365Y-83160000D01*
X163870365Y-82160000D01*
X163838776Y-81997186D01*
X163781384Y-81909817D01*
X163836700Y-81827868D01*
X163870365Y-81660000D01*
X163870365Y-80660000D01*
X163838776Y-80497186D01*
X163781384Y-80409817D01*
X163836700Y-80327868D01*
X163870365Y-80160000D01*
X163870365Y-79160000D01*
X163838776Y-78997186D01*
X163781384Y-78909817D01*
X163836700Y-78827868D01*
X163870365Y-78660000D01*
X163870365Y-77660000D01*
X163838776Y-77497186D01*
X163781384Y-77409817D01*
X163836700Y-77327868D01*
X163870365Y-77160000D01*
X163870365Y-76160000D01*
X163838776Y-75997186D01*
X163781384Y-75909817D01*
X163836700Y-75827868D01*
X163870365Y-75660000D01*
X163870365Y-74660000D01*
X163838776Y-74497186D01*
X163781384Y-74409817D01*
X163836700Y-74327868D01*
X163870365Y-74160000D01*
X163870365Y-73160000D01*
X163838776Y-72997186D01*
X163744776Y-72854088D01*
X163602868Y-72758300D01*
X163435000Y-72724635D01*
X161685000Y-72724635D01*
X161522186Y-72756224D01*
X161379088Y-72850224D01*
X161283300Y-72992132D01*
X161249635Y-73160000D01*
X161249635Y-74160000D01*
X161281224Y-74322814D01*
X161338615Y-74410182D01*
X161283300Y-74492132D01*
X161249635Y-74660000D01*
X161249635Y-75660000D01*
X161281224Y-75822814D01*
X161338615Y-75910182D01*
X161283300Y-75992132D01*
X161249635Y-76160000D01*
X161249635Y-77160000D01*
X161281224Y-77322814D01*
X161338615Y-77410182D01*
X161283300Y-77492132D01*
X161249635Y-77660000D01*
X161249635Y-78660000D01*
X161281224Y-78822814D01*
X161338615Y-78910182D01*
X161283300Y-78992132D01*
X161249635Y-79160000D01*
X161249635Y-80160000D01*
X161281224Y-80322814D01*
X161338615Y-80410182D01*
X161283300Y-80492132D01*
X161249635Y-80660000D01*
X161249635Y-81660000D01*
X161281224Y-81822814D01*
X161338615Y-81910182D01*
X161283300Y-81992132D01*
X161249635Y-82160000D01*
X161249635Y-83160000D01*
X161281224Y-83322814D01*
X161338615Y-83410182D01*
X161283300Y-83492132D01*
X161249635Y-83660000D01*
X161249635Y-84660000D01*
X161281224Y-84822814D01*
X161338615Y-84910182D01*
X161283300Y-84992132D01*
X161249635Y-85160000D01*
X161249635Y-86160000D01*
X161281224Y-86322814D01*
X161338615Y-86410182D01*
X161283300Y-86492132D01*
X161249635Y-86660000D01*
X161249635Y-87660000D01*
X161281224Y-87822814D01*
X161338615Y-87910182D01*
X161283300Y-87992132D01*
X161249635Y-88160000D01*
X161249635Y-89160000D01*
X161281224Y-89322814D01*
X161338615Y-89410182D01*
X161283300Y-89492132D01*
X161249635Y-89660000D01*
X161249635Y-90660000D01*
X161255702Y-90691272D01*
X161146673Y-90800301D01*
X161050000Y-91033690D01*
X161050000Y-91286309D01*
X161050000Y-91453250D01*
X161208750Y-91612000D01*
X162512000Y-91612000D01*
X162512000Y-91592000D01*
X162608000Y-91592000D01*
X162608000Y-91612000D01*
X163911250Y-91612000D01*
X164070000Y-91453250D01*
X164070000Y-91866750D01*
X163911250Y-91708000D01*
X162608000Y-91708000D01*
X162608000Y-91728000D01*
X162512000Y-91728000D01*
X162512000Y-91708000D01*
X161208750Y-91708000D01*
X161050000Y-91866750D01*
X161050000Y-92033691D01*
X161050000Y-92050000D01*
X160833691Y-92050000D01*
X160600302Y-92146673D01*
X160491102Y-92255872D01*
X160460000Y-92249635D01*
X159460000Y-92249635D01*
X159297186Y-92281224D01*
X159209817Y-92338615D01*
X159127868Y-92283300D01*
X158960000Y-92249635D01*
X157960000Y-92249635D01*
X157797186Y-92281224D01*
X157709817Y-92338615D01*
X157627868Y-92283300D01*
X157460000Y-92249635D01*
X156460000Y-92249635D01*
X156297186Y-92281224D01*
X156209817Y-92338615D01*
X156127868Y-92283300D01*
X155960000Y-92249635D01*
X154960000Y-92249635D01*
X154797186Y-92281224D01*
X154709817Y-92338615D01*
X154627868Y-92283300D01*
X154460000Y-92249635D01*
X153460000Y-92249635D01*
X153297186Y-92281224D01*
X153209817Y-92338615D01*
X153127868Y-92283300D01*
X152960000Y-92249635D01*
X151960000Y-92249635D01*
X151797186Y-92281224D01*
X151709817Y-92338615D01*
X151627868Y-92283300D01*
X151460000Y-92249635D01*
X151370000Y-92249635D01*
X151370000Y-92033691D01*
X151370000Y-91866750D01*
X151211250Y-91708000D01*
X149908000Y-91708000D01*
X149908000Y-92636250D01*
X150024635Y-92752885D01*
X150024635Y-93901963D01*
X149157999Y-93035327D01*
X149157999Y-92795000D01*
X149653250Y-92795000D01*
X149812000Y-92636250D01*
X149812000Y-91708000D01*
X149792000Y-91708000D01*
X149792000Y-91612000D01*
X149812000Y-91612000D01*
X149812000Y-91592000D01*
X149908000Y-91592000D01*
X149908000Y-91612000D01*
X151211250Y-91612000D01*
X151370000Y-91453250D01*
X151370000Y-91286309D01*
X151370000Y-91033690D01*
X151273327Y-90800301D01*
X151164127Y-90691102D01*
X151170365Y-90660000D01*
X151170365Y-89660000D01*
X151138776Y-89497186D01*
X151081384Y-89409817D01*
X151136700Y-89327868D01*
X151170365Y-89160000D01*
X151170365Y-88160000D01*
X151138776Y-87997186D01*
X151081384Y-87909817D01*
X151136700Y-87827868D01*
X151170365Y-87660000D01*
X151170365Y-86660000D01*
X151138776Y-86497186D01*
X151081384Y-86409817D01*
X151136700Y-86327868D01*
X151170365Y-86160000D01*
X151170365Y-85160000D01*
X151138776Y-84997186D01*
X151081384Y-84909817D01*
X151136700Y-84827868D01*
X151170365Y-84660000D01*
X151170365Y-83660000D01*
X151138776Y-83497186D01*
X151081384Y-83409817D01*
X151136700Y-83327868D01*
X151170365Y-83160000D01*
X151170365Y-82160000D01*
X151138776Y-81997186D01*
X151081384Y-81909817D01*
X151136700Y-81827868D01*
X151170365Y-81660000D01*
X151170365Y-80660000D01*
X151138776Y-80497186D01*
X151081384Y-80409817D01*
X151136700Y-80327868D01*
X151170365Y-80160000D01*
X151170365Y-79160000D01*
X151138776Y-78997186D01*
X151081384Y-78909817D01*
X151136700Y-78827868D01*
X151170365Y-78660000D01*
X151170365Y-77660000D01*
X151138776Y-77497186D01*
X151081384Y-77409817D01*
X151136700Y-77327868D01*
X151170365Y-77160000D01*
X151170365Y-76160000D01*
X151138776Y-75997186D01*
X151081384Y-75909817D01*
X151136700Y-75827868D01*
X151170365Y-75660000D01*
X151170365Y-74660000D01*
X151138776Y-74497186D01*
X151081384Y-74409817D01*
X151136700Y-74327868D01*
X151170365Y-74160000D01*
X151170365Y-73160000D01*
X151138776Y-72997186D01*
X151044776Y-72854088D01*
X150902868Y-72758300D01*
X150735000Y-72724635D01*
X148985000Y-72724635D01*
X148822186Y-72756224D01*
X148679088Y-72850224D01*
X148583300Y-72992132D01*
X148553379Y-73141330D01*
X148518994Y-73148170D01*
X148339263Y-73268263D01*
X148212262Y-73395264D01*
X148092170Y-73574994D01*
X148049999Y-73787001D01*
X148049999Y-74339093D01*
X147697000Y-74692092D01*
X147697000Y-73728310D01*
X147697000Y-73475691D01*
X147697000Y-73358750D01*
X147697000Y-72945250D01*
X147697000Y-72828309D01*
X147697000Y-72575690D01*
X147600327Y-72342301D01*
X147421698Y-72163673D01*
X147188309Y-72067000D01*
X147018750Y-72067000D01*
X146860000Y-72225750D01*
X146860000Y-73104000D01*
X147538250Y-73104000D01*
X147697000Y-72945250D01*
X147697000Y-73358750D01*
X147538250Y-73200000D01*
X146860000Y-73200000D01*
X146860000Y-74078250D01*
X147018750Y-74237000D01*
X147188309Y-74237000D01*
X147421698Y-74140327D01*
X147600327Y-73961699D01*
X147697000Y-73728310D01*
X147697000Y-74692092D01*
X146764000Y-75625092D01*
X146764000Y-74078250D01*
X146764000Y-73200000D01*
X146744000Y-73200000D01*
X146744000Y-73104000D01*
X146764000Y-73104000D01*
X146764000Y-72225750D01*
X146605250Y-72067000D01*
X146435691Y-72067000D01*
X146202302Y-72163673D01*
X146023673Y-72342301D01*
X145941885Y-72539752D01*
X145941776Y-72539186D01*
X145847776Y-72396088D01*
X145705868Y-72300300D01*
X145538000Y-72266635D01*
X145038000Y-72266635D01*
X144875186Y-72298224D01*
X144732088Y-72392224D01*
X144636300Y-72534132D01*
X144634827Y-72541474D01*
X144552327Y-72342301D01*
X144373698Y-72163673D01*
X144140309Y-72067000D01*
X143970750Y-72067000D01*
X143812000Y-72225750D01*
X143812000Y-73104000D01*
X143832000Y-73104000D01*
X143832000Y-73200000D01*
X143812000Y-73200000D01*
X143812000Y-74078250D01*
X143970750Y-74237000D01*
X144140309Y-74237000D01*
X144373698Y-74140327D01*
X144552327Y-73961699D01*
X144634114Y-73764247D01*
X144634224Y-73764814D01*
X144728224Y-73907912D01*
X144734000Y-73911810D01*
X144734000Y-74264812D01*
X144675186Y-74276224D01*
X144532088Y-74370224D01*
X144436300Y-74512132D01*
X144402635Y-74680000D01*
X144402635Y-75180000D01*
X144434224Y-75342814D01*
X144528224Y-75485912D01*
X144670132Y-75581700D01*
X144838000Y-75615365D01*
X145738000Y-75615365D01*
X145900814Y-75583776D01*
X146043912Y-75489776D01*
X146139700Y-75347868D01*
X146173365Y-75180000D01*
X146173365Y-74680000D01*
X146141776Y-74517186D01*
X146047776Y-74374088D01*
X145905868Y-74278300D01*
X145842000Y-74265491D01*
X145842000Y-73913031D01*
X145843912Y-73911776D01*
X145939700Y-73769868D01*
X145941172Y-73762525D01*
X146023673Y-73961699D01*
X146202302Y-74140327D01*
X146435691Y-74237000D01*
X146605250Y-74237000D01*
X146764000Y-74078250D01*
X146764000Y-75625092D01*
X146173365Y-76215727D01*
X146173365Y-76204000D01*
X146141776Y-76041186D01*
X146047776Y-75898088D01*
X145905868Y-75802300D01*
X145738000Y-75768635D01*
X144838000Y-75768635D01*
X144675186Y-75800224D01*
X144532088Y-75894224D01*
X144436300Y-76036132D01*
X144402635Y-76204000D01*
X144402635Y-76355891D01*
X143716000Y-77042526D01*
X143716000Y-74078250D01*
X143716000Y-73200000D01*
X143696000Y-73200000D01*
X143696000Y-73104000D01*
X143716000Y-73104000D01*
X143716000Y-72225750D01*
X143557250Y-72067000D01*
X143387691Y-72067000D01*
X143154302Y-72163673D01*
X142975673Y-72342301D01*
X142893885Y-72539752D01*
X142893776Y-72539186D01*
X142799776Y-72396088D01*
X142657868Y-72300300D01*
X142490000Y-72266635D01*
X141990000Y-72266635D01*
X141827186Y-72298224D01*
X141684088Y-72392224D01*
X141588300Y-72534132D01*
X141586827Y-72541474D01*
X141504327Y-72342301D01*
X141325698Y-72163673D01*
X141092309Y-72067000D01*
X140922750Y-72067000D01*
X140764000Y-72225750D01*
X140764000Y-73104000D01*
X140784000Y-73104000D01*
X140784000Y-73200000D01*
X140764000Y-73200000D01*
X140764000Y-74078250D01*
X140922750Y-74237000D01*
X141092309Y-74237000D01*
X141325698Y-74140327D01*
X141504327Y-73961699D01*
X141586114Y-73764247D01*
X141586224Y-73764814D01*
X141680224Y-73907912D01*
X141686000Y-73911810D01*
X141686000Y-74264812D01*
X141627186Y-74276224D01*
X141484088Y-74370224D01*
X141388300Y-74512132D01*
X141354635Y-74680000D01*
X141354635Y-75180000D01*
X141386224Y-75342814D01*
X141480224Y-75485912D01*
X141622132Y-75581700D01*
X141790000Y-75615365D01*
X142690000Y-75615365D01*
X142852814Y-75583776D01*
X142995912Y-75489776D01*
X143091700Y-75347868D01*
X143125365Y-75180000D01*
X143125365Y-74680000D01*
X143093776Y-74517186D01*
X142999776Y-74374088D01*
X142857868Y-74278300D01*
X142794000Y-74265491D01*
X142794000Y-73913031D01*
X142795912Y-73911776D01*
X142891700Y-73769868D01*
X142893172Y-73762525D01*
X142975673Y-73961699D01*
X143154302Y-74140327D01*
X143387691Y-74237000D01*
X143557250Y-74237000D01*
X143716000Y-74078250D01*
X143716000Y-77042526D01*
X143206000Y-77552526D01*
X143206000Y-76866000D01*
X143163829Y-76653994D01*
X143163829Y-76653993D01*
X143125365Y-76596428D01*
X143125365Y-76596427D01*
X143125365Y-76204000D01*
X143093776Y-76041186D01*
X142999776Y-75898088D01*
X142857868Y-75802300D01*
X142690000Y-75768635D01*
X141790000Y-75768635D01*
X141627186Y-75800224D01*
X141484088Y-75894224D01*
X141388300Y-76036132D01*
X141354635Y-76204000D01*
X141354635Y-76704000D01*
X141386224Y-76866814D01*
X141480224Y-77009912D01*
X141622132Y-77105700D01*
X141790000Y-77139365D01*
X142098000Y-77139365D01*
X142098000Y-77872526D01*
X140668000Y-76442526D01*
X140668000Y-74078250D01*
X140668000Y-73200000D01*
X140648000Y-73200000D01*
X140648000Y-73104000D01*
X140668000Y-73104000D01*
X140668000Y-72225750D01*
X140509250Y-72067000D01*
X140339691Y-72067000D01*
X140106302Y-72163673D01*
X139927673Y-72342301D01*
X139845885Y-72539752D01*
X139845776Y-72539186D01*
X139751776Y-72396088D01*
X139609868Y-72300300D01*
X139442000Y-72266635D01*
X138942000Y-72266635D01*
X138779186Y-72298224D01*
X138636088Y-72392224D01*
X138540300Y-72534132D01*
X138506635Y-72702000D01*
X138506635Y-73602000D01*
X138538224Y-73764814D01*
X138632224Y-73907912D01*
X138638000Y-73911810D01*
X138638000Y-74264812D01*
X138579186Y-74276224D01*
X138436088Y-74370224D01*
X138340300Y-74512132D01*
X138306635Y-74680000D01*
X138306635Y-75180000D01*
X138338224Y-75342814D01*
X138432224Y-75485912D01*
X138574132Y-75581700D01*
X138742000Y-75615365D01*
X139642000Y-75615365D01*
X139804814Y-75583776D01*
X139947912Y-75489776D01*
X140043700Y-75347868D01*
X140077365Y-75180000D01*
X140077365Y-74680000D01*
X140045776Y-74517186D01*
X139951776Y-74374088D01*
X139809868Y-74278300D01*
X139746000Y-74265491D01*
X139746000Y-73913031D01*
X139747912Y-73911776D01*
X139843700Y-73769868D01*
X139845172Y-73762525D01*
X139927673Y-73961699D01*
X140106302Y-74140327D01*
X140339691Y-74237000D01*
X140509250Y-74237000D01*
X140668000Y-74078250D01*
X140668000Y-76442526D01*
X140287737Y-76062263D01*
X140108007Y-75942171D01*
X139961604Y-75913049D01*
X139951776Y-75898088D01*
X139809868Y-75802300D01*
X139642000Y-75768635D01*
X138742000Y-75768635D01*
X138579186Y-75800224D01*
X138436088Y-75894224D01*
X138340300Y-76036132D01*
X138306635Y-76204000D01*
X138306635Y-76704000D01*
X138308826Y-76715297D01*
X138246999Y-76702999D01*
X134862381Y-76702999D01*
X134862381Y-72101864D01*
X134636993Y-71545034D01*
X134623158Y-71524328D01*
X134359747Y-71448135D01*
X134291865Y-71516017D01*
X134291865Y-71380253D01*
X134215672Y-71116842D01*
X133662560Y-70882477D01*
X133061864Y-70877619D01*
X132505034Y-71103007D01*
X132484328Y-71116842D01*
X132408135Y-71380253D01*
X133350000Y-72322118D01*
X134291865Y-71380253D01*
X134291865Y-71516017D01*
X133417882Y-72390000D01*
X134359747Y-73331865D01*
X134623158Y-73255672D01*
X134857523Y-72702560D01*
X134862381Y-72101864D01*
X134862381Y-76702999D01*
X134291865Y-76702999D01*
X134291865Y-73399747D01*
X133350000Y-72457882D01*
X133282118Y-72525764D01*
X133282118Y-72390000D01*
X132340253Y-71448135D01*
X132076842Y-71524328D01*
X131967602Y-71782137D01*
X131914426Y-71653440D01*
X131548487Y-71286861D01*
X131070120Y-71088226D01*
X130552152Y-71087774D01*
X130073440Y-71285574D01*
X129782381Y-71576124D01*
X129782381Y-69561864D01*
X129556993Y-69005034D01*
X129543158Y-68984328D01*
X129279747Y-68908135D01*
X129211865Y-68976017D01*
X129211865Y-68840253D01*
X129135672Y-68576842D01*
X128582560Y-68342477D01*
X127981864Y-68337619D01*
X127425034Y-68563007D01*
X127404328Y-68576842D01*
X127328135Y-68840253D01*
X128270000Y-69782118D01*
X129211865Y-68840253D01*
X129211865Y-68976017D01*
X128337882Y-69850000D01*
X129279747Y-70791865D01*
X129543158Y-70715672D01*
X129777523Y-70162560D01*
X129782381Y-69561864D01*
X129782381Y-71576124D01*
X129706861Y-71651513D01*
X129539834Y-72053758D01*
X129374426Y-71653440D01*
X129008487Y-71286861D01*
X128878282Y-71232795D01*
X129114966Y-71136993D01*
X129135672Y-71123158D01*
X129211865Y-70859747D01*
X128270000Y-69917882D01*
X127328135Y-70859747D01*
X127404328Y-71123158D01*
X127662137Y-71232397D01*
X127533440Y-71285574D01*
X127166861Y-71651513D01*
X126999834Y-72053758D01*
X126834426Y-71653440D01*
X126468487Y-71286861D01*
X126066241Y-71119834D01*
X126466560Y-70954426D01*
X126833139Y-70588487D01*
X126887204Y-70458282D01*
X126983007Y-70694966D01*
X126996842Y-70715672D01*
X127260253Y-70791865D01*
X128202118Y-69850000D01*
X127260253Y-68908135D01*
X126996842Y-68984328D01*
X126887602Y-69242137D01*
X126834426Y-69113440D01*
X126468487Y-68746861D01*
X125990120Y-68548226D01*
X125472152Y-68547774D01*
X124993440Y-68745574D01*
X124626861Y-69111513D01*
X124459834Y-69513758D01*
X124294426Y-69113440D01*
X123928487Y-68746861D01*
X123450120Y-68548226D01*
X122932152Y-68547774D01*
X122453440Y-68745574D01*
X122086861Y-69111513D01*
X121888226Y-69589880D01*
X121887774Y-70107848D01*
X122085574Y-70586560D01*
X122451513Y-70953139D01*
X122853758Y-71120165D01*
X122453440Y-71285574D01*
X122086861Y-71651513D01*
X121888226Y-72129880D01*
X121887774Y-72647848D01*
X122085574Y-73126560D01*
X122451513Y-73493139D01*
X122636000Y-73569744D01*
X122636000Y-76200000D01*
X122678171Y-76412007D01*
X122798263Y-76591737D01*
X123715575Y-77509049D01*
X123715349Y-77769592D01*
X123847747Y-78090020D01*
X124092690Y-78335391D01*
X124412887Y-78468349D01*
X124759592Y-78468651D01*
X125080020Y-78336253D01*
X125325391Y-78091310D01*
X125458349Y-77771113D01*
X125458651Y-77424408D01*
X125326253Y-77103980D01*
X125081310Y-76858609D01*
X124761113Y-76725651D01*
X124498896Y-76725422D01*
X123744000Y-75970526D01*
X123744000Y-73569858D01*
X123926560Y-73494426D01*
X124293139Y-73128487D01*
X124460165Y-72726241D01*
X124625574Y-73126560D01*
X124991513Y-73493139D01*
X125469880Y-73691774D01*
X125987848Y-73692226D01*
X126466560Y-73494426D01*
X126833139Y-73128487D01*
X127000165Y-72726241D01*
X127165574Y-73126560D01*
X127531513Y-73493139D01*
X128009880Y-73691774D01*
X128527848Y-73692226D01*
X129006560Y-73494426D01*
X129373139Y-73128487D01*
X129540165Y-72726241D01*
X129705574Y-73126560D01*
X130071513Y-73493139D01*
X130549880Y-73691774D01*
X131067848Y-73692226D01*
X131546560Y-73494426D01*
X131913139Y-73128487D01*
X131967204Y-72998282D01*
X132063007Y-73234966D01*
X132076842Y-73255672D01*
X132340253Y-73331865D01*
X133282118Y-72390000D01*
X133282118Y-72525764D01*
X132408135Y-73399747D01*
X132484328Y-73663158D01*
X133037440Y-73897523D01*
X133638136Y-73902381D01*
X134194966Y-73676993D01*
X134215672Y-73663158D01*
X134291865Y-73399747D01*
X134291865Y-76702999D01*
X131043199Y-76702999D01*
X130831192Y-76745170D01*
X130651462Y-76865262D01*
X130575262Y-76941462D01*
X130455170Y-77121192D01*
X130412999Y-77333199D01*
X130412999Y-79103723D01*
X129169031Y-77859755D01*
X129139079Y-77709174D01*
X128964143Y-77447365D01*
X128702334Y-77272429D01*
X128393508Y-77211000D01*
X127352492Y-77211000D01*
X127043666Y-77272429D01*
X126781857Y-77447365D01*
X126606921Y-77709174D01*
X126545492Y-78018000D01*
X126606921Y-78326826D01*
X126636652Y-78371321D01*
X126459673Y-78548302D01*
X126363000Y-78781691D01*
X126363000Y-79081250D01*
X126521750Y-79240000D01*
X127825000Y-79240000D01*
X127825000Y-79220000D01*
X127921000Y-79220000D01*
X127921000Y-79240000D01*
X127941000Y-79240000D01*
X127941000Y-79336000D01*
X127921000Y-79336000D01*
X127921000Y-79701750D01*
X127921000Y-80144250D01*
X127921000Y-80510000D01*
X129224250Y-80510000D01*
X129383000Y-80351250D01*
X129383000Y-80051691D01*
X129329694Y-79923000D01*
X129383000Y-79794309D01*
X129383000Y-79640672D01*
X129566000Y-79823672D01*
X129566000Y-84993000D01*
X129608171Y-85205007D01*
X129728263Y-85384737D01*
X130138498Y-85794972D01*
X130068088Y-85841224D01*
X129972300Y-85983132D01*
X129938635Y-86151000D01*
X129938635Y-86153161D01*
X129819737Y-86034263D01*
X129640007Y-85914171D01*
X129512494Y-85888807D01*
X129483776Y-85845088D01*
X129383000Y-85777064D01*
X129383000Y-83604309D01*
X129383000Y-83304750D01*
X129383000Y-82891250D01*
X129383000Y-82591691D01*
X129286327Y-82358302D01*
X129175457Y-82247431D01*
X129183365Y-82208000D01*
X129183365Y-81448000D01*
X129175672Y-81408352D01*
X129286327Y-81297698D01*
X129383000Y-81064309D01*
X129383000Y-80764750D01*
X129224250Y-80606000D01*
X127921000Y-80606000D01*
X127921000Y-80626000D01*
X127825000Y-80626000D01*
X127825000Y-80606000D01*
X127825000Y-80510000D01*
X127825000Y-80144250D01*
X127825000Y-79701750D01*
X127825000Y-79336000D01*
X126521750Y-79336000D01*
X126363000Y-79494750D01*
X126363000Y-79794309D01*
X126416305Y-79923000D01*
X126363000Y-80051691D01*
X126363000Y-80351250D01*
X126521750Y-80510000D01*
X127825000Y-80510000D01*
X127825000Y-80606000D01*
X126521750Y-80606000D01*
X126363000Y-80764750D01*
X126363000Y-81064309D01*
X126459673Y-81297698D01*
X126570542Y-81408568D01*
X126562635Y-81448000D01*
X126562635Y-82208000D01*
X126570327Y-82247647D01*
X126459673Y-82358302D01*
X126363000Y-82591691D01*
X126363000Y-82891250D01*
X126521750Y-83050000D01*
X127825000Y-83050000D01*
X127825000Y-83030000D01*
X127921000Y-83030000D01*
X127921000Y-83050000D01*
X129224250Y-83050000D01*
X129383000Y-82891250D01*
X129383000Y-83304750D01*
X129224250Y-83146000D01*
X127921000Y-83146000D01*
X127921000Y-83954250D01*
X128079750Y-84113000D01*
X128621691Y-84113000D01*
X128874310Y-84113000D01*
X129107699Y-84016327D01*
X129286327Y-83837698D01*
X129383000Y-83604309D01*
X129383000Y-85777064D01*
X129341868Y-85749300D01*
X129174000Y-85715635D01*
X127874000Y-85715635D01*
X127825000Y-85725141D01*
X127825000Y-83954250D01*
X127825000Y-83146000D01*
X126521750Y-83146000D01*
X126363000Y-83304750D01*
X126363000Y-83604309D01*
X126459673Y-83837698D01*
X126638301Y-84016327D01*
X126871690Y-84113000D01*
X127124309Y-84113000D01*
X127666250Y-84113000D01*
X127825000Y-83954250D01*
X127825000Y-85725141D01*
X127711186Y-85747224D01*
X127568088Y-85841224D01*
X127472300Y-85983132D01*
X127438635Y-86151000D01*
X127438635Y-86638339D01*
X127335673Y-86741301D01*
X127323000Y-86771896D01*
X127323000Y-86407250D01*
X127323000Y-86237691D01*
X127226327Y-86004302D01*
X127047699Y-85825673D01*
X126814310Y-85729000D01*
X126561691Y-85729000D01*
X126444750Y-85729000D01*
X126286000Y-85887750D01*
X126286000Y-86566000D01*
X127164250Y-86566000D01*
X127323000Y-86407250D01*
X127323000Y-86771896D01*
X127308691Y-86806441D01*
X127164250Y-86662000D01*
X126286000Y-86662000D01*
X126286000Y-86682000D01*
X126190000Y-86682000D01*
X126190000Y-86662000D01*
X126190000Y-86566000D01*
X126190000Y-85887750D01*
X126031250Y-85729000D01*
X125914309Y-85729000D01*
X125661690Y-85729000D01*
X125428301Y-85825673D01*
X125249673Y-86004302D01*
X125153000Y-86237691D01*
X125153000Y-86407250D01*
X125311750Y-86566000D01*
X126190000Y-86566000D01*
X126190000Y-86662000D01*
X125311750Y-86662000D01*
X125153000Y-86820750D01*
X125153000Y-86990309D01*
X125249673Y-87223698D01*
X125428301Y-87402327D01*
X125625752Y-87484114D01*
X125625186Y-87484224D01*
X125482088Y-87578224D01*
X125386300Y-87720132D01*
X125352635Y-87888000D01*
X125352635Y-88388000D01*
X125384224Y-88550814D01*
X125478224Y-88693912D01*
X125620132Y-88789700D01*
X125788000Y-88823365D01*
X126688000Y-88823365D01*
X126850814Y-88791776D01*
X126993912Y-88697776D01*
X126997810Y-88692000D01*
X127456290Y-88692000D01*
X127470224Y-88763814D01*
X127564224Y-88906912D01*
X127706132Y-89002700D01*
X127745380Y-89010571D01*
X127652651Y-89233887D01*
X127652349Y-89580592D01*
X127784747Y-89901020D01*
X128029690Y-90146391D01*
X128349887Y-90279349D01*
X128696592Y-90279651D01*
X129017020Y-90147253D01*
X129262391Y-89902310D01*
X129395349Y-89582113D01*
X129395651Y-89235408D01*
X129303061Y-89011324D01*
X129336814Y-89004776D01*
X129479912Y-88910776D01*
X129511958Y-88863299D01*
X129640006Y-88837829D01*
X129640007Y-88837829D01*
X129819737Y-88717737D01*
X129938635Y-88598839D01*
X129938635Y-88601000D01*
X129970224Y-88763814D01*
X130064224Y-88906912D01*
X130206132Y-89002700D01*
X130374000Y-89036365D01*
X131674000Y-89036365D01*
X131836814Y-89004776D01*
X131979912Y-88910776D01*
X132075700Y-88768868D01*
X132109365Y-88601000D01*
X132109365Y-88051000D01*
X132077776Y-87888186D01*
X131983776Y-87745088D01*
X131841868Y-87649300D01*
X131674000Y-87615635D01*
X130374000Y-87615635D01*
X130211186Y-87647224D01*
X130109001Y-87714348D01*
X130109001Y-87037136D01*
X130206132Y-87102700D01*
X130374000Y-87136365D01*
X131052960Y-87136365D01*
X131052961Y-87136365D01*
X131212000Y-87168000D01*
X132588968Y-87168000D01*
X132590224Y-87169912D01*
X132732132Y-87265700D01*
X132739474Y-87267172D01*
X132540301Y-87349673D01*
X132361673Y-87528302D01*
X132265000Y-87761691D01*
X132265000Y-87931250D01*
X132423750Y-88090000D01*
X133302000Y-88090000D01*
X133302000Y-88070000D01*
X133398000Y-88070000D01*
X133398000Y-88090000D01*
X133418000Y-88090000D01*
X133418000Y-88186000D01*
X133398000Y-88186000D01*
X133398000Y-88864250D01*
X133556750Y-89023000D01*
X133673691Y-89023000D01*
X133926310Y-89023000D01*
X134159699Y-88926327D01*
X134338327Y-88747698D01*
X134435000Y-88514309D01*
X134435000Y-88344750D01*
X134276252Y-88186002D01*
X134338528Y-88186002D01*
X136214518Y-90061992D01*
X136394248Y-90182084D01*
X136394249Y-90182084D01*
X136606255Y-90224255D01*
X136740065Y-90224255D01*
X136924135Y-90408646D01*
X137244332Y-90541604D01*
X137591037Y-90541906D01*
X137911465Y-90409508D01*
X138156836Y-90164565D01*
X138289794Y-89844368D01*
X138290096Y-89497663D01*
X138157698Y-89177235D01*
X137912755Y-88931864D01*
X137718892Y-88851365D01*
X138102000Y-88851365D01*
X138254480Y-88821780D01*
X138402000Y-88851365D01*
X138528008Y-88851365D01*
X138490171Y-88907993D01*
X138448000Y-89120000D01*
X138448000Y-90004692D01*
X138406088Y-90032224D01*
X138310300Y-90174132D01*
X138276635Y-90342000D01*
X138276635Y-91522000D01*
X138308224Y-91684814D01*
X138402224Y-91827912D01*
X138544132Y-91923700D01*
X138712000Y-91957365D01*
X139292000Y-91957365D01*
X139454814Y-91925776D01*
X139501638Y-91895017D01*
X139544132Y-91923700D01*
X139712000Y-91957365D01*
X140292000Y-91957365D01*
X140454814Y-91925776D01*
X140501638Y-91895017D01*
X140544132Y-91923700D01*
X140712000Y-91957365D01*
X141292000Y-91957365D01*
X141454814Y-91925776D01*
X141501638Y-91895017D01*
X141544132Y-91923700D01*
X141712000Y-91957365D01*
X142292000Y-91957365D01*
X142375000Y-91941261D01*
X142375000Y-93959880D01*
X142160113Y-93870651D01*
X141813408Y-93870349D01*
X141492980Y-94002747D01*
X141247609Y-94247690D01*
X141138108Y-94511396D01*
X140163356Y-93536644D01*
X139959943Y-93400728D01*
X139720000Y-93353000D01*
X139289506Y-93353000D01*
X139178310Y-93241609D01*
X138858113Y-93108651D01*
X138511408Y-93108349D01*
X138190980Y-93240747D01*
X137945609Y-93485690D01*
X137812651Y-93805887D01*
X137812373Y-94124403D01*
X137749408Y-94124349D01*
X137428980Y-94256747D01*
X137183609Y-94501690D01*
X137050651Y-94821887D01*
X137050349Y-95168592D01*
X137182747Y-95489020D01*
X137427690Y-95734391D01*
X137747887Y-95867349D01*
X138077000Y-95867635D01*
X138077000Y-96045250D01*
X138235750Y-96204000D01*
X138954000Y-96204000D01*
X138954000Y-96184000D01*
X139050000Y-96184000D01*
X139050000Y-96204000D01*
X139070000Y-96204000D01*
X139070000Y-96300000D01*
X139050000Y-96300000D01*
X139050000Y-97318250D01*
X139208750Y-97477000D01*
X139418310Y-97477000D01*
X139651699Y-97380327D01*
X139754660Y-97277365D01*
X140292000Y-97277365D01*
X140454814Y-97245776D01*
X140501638Y-97215017D01*
X140544132Y-97243700D01*
X140712000Y-97277365D01*
X141265966Y-97277365D01*
X141247609Y-97295690D01*
X141114651Y-97615887D01*
X141114349Y-97962592D01*
X141246747Y-98283020D01*
X141409077Y-98445634D01*
X141277186Y-98471224D01*
X141134088Y-98565224D01*
X141038300Y-98707132D01*
X141004635Y-98875000D01*
X141004635Y-101875000D01*
X141036224Y-102037814D01*
X141130224Y-102180912D01*
X141272132Y-102276700D01*
X141440000Y-102310365D01*
X143040000Y-102310365D01*
X143202814Y-102278776D01*
X143345912Y-102184776D01*
X143441700Y-102042868D01*
X143475365Y-101875000D01*
X143475365Y-101002000D01*
X145629288Y-101002000D01*
X145924635Y-101297347D01*
X145924635Y-102096000D01*
X145956224Y-102258814D01*
X146050224Y-102401912D01*
X146192132Y-102497700D01*
X146360000Y-102531365D01*
X147158653Y-102531365D01*
X147455000Y-102827712D01*
X147455000Y-103485539D01*
X147430300Y-103522132D01*
X147396635Y-103690000D01*
X147396635Y-104590000D01*
X147428224Y-104752814D01*
X147522224Y-104895912D01*
X147664132Y-104991700D01*
X147832000Y-105025365D01*
X148332000Y-105025365D01*
X148494814Y-104993776D01*
X148637912Y-104899776D01*
X148733700Y-104757868D01*
X148767365Y-104590000D01*
X148767365Y-103690000D01*
X148735776Y-103527186D01*
X148709000Y-103486424D01*
X148709000Y-102568000D01*
X148661273Y-102328058D01*
X148661272Y-102328057D01*
X148525356Y-102124644D01*
X147795365Y-101394653D01*
X147795365Y-100596000D01*
X147763776Y-100433186D01*
X147669776Y-100290088D01*
X147527868Y-100194300D01*
X147360000Y-100160635D01*
X146648077Y-100160635D01*
X147071347Y-99737365D01*
X148020000Y-99737365D01*
X148176898Y-99706923D01*
X148310302Y-99840327D01*
X148543691Y-99937000D01*
X149163250Y-99937000D01*
X149322000Y-99778250D01*
X149322000Y-98600000D01*
X149302000Y-98600000D01*
X149302000Y-98504000D01*
X149322000Y-98504000D01*
X149322000Y-98484000D01*
X149418000Y-98484000D01*
X149418000Y-98504000D01*
X150546250Y-98504000D01*
X150705000Y-98345250D01*
X150705000Y-98148999D01*
X150960635Y-98148999D01*
X150960635Y-100374653D01*
X150786252Y-100549035D01*
X150763776Y-100433186D01*
X150705000Y-100343710D01*
X150705000Y-99428310D01*
X150705000Y-99175691D01*
X150705000Y-98758750D01*
X150546250Y-98600000D01*
X149418000Y-98600000D01*
X149418000Y-99778250D01*
X149576750Y-99937000D01*
X150196309Y-99937000D01*
X150429698Y-99840327D01*
X150608327Y-99661699D01*
X150705000Y-99428310D01*
X150705000Y-100343710D01*
X150669776Y-100290088D01*
X150527868Y-100194300D01*
X150360000Y-100160635D01*
X149360000Y-100160635D01*
X149197186Y-100192224D01*
X149054088Y-100286224D01*
X148958300Y-100428132D01*
X148924635Y-100596000D01*
X148924635Y-102096000D01*
X148956224Y-102258814D01*
X149050224Y-102401912D01*
X149192132Y-102497700D01*
X149360000Y-102531365D01*
X150158653Y-102531365D01*
X151225349Y-103598061D01*
X151190088Y-103621224D01*
X151094300Y-103763132D01*
X151060635Y-103931000D01*
X151060635Y-104418339D01*
X150957673Y-104521301D01*
X150861000Y-104754690D01*
X150861000Y-104949250D01*
X151019750Y-105108000D01*
X152098000Y-105108000D01*
X152098000Y-105088000D01*
X152194000Y-105088000D01*
X152194000Y-105108000D01*
X152214000Y-105108000D01*
X152214000Y-105204000D01*
X152194000Y-105204000D01*
X152194000Y-105224000D01*
X152098000Y-105224000D01*
X152098000Y-105204000D01*
X151019750Y-105204000D01*
X150861000Y-105362750D01*
X150861000Y-105545000D01*
X150250457Y-105545000D01*
X150165776Y-105416088D01*
X150160000Y-105412189D01*
X150160000Y-104901031D01*
X150161912Y-104899776D01*
X150257700Y-104757868D01*
X150291365Y-104590000D01*
X150291365Y-103690000D01*
X150259776Y-103527186D01*
X150165776Y-103384088D01*
X150023868Y-103288300D01*
X149856000Y-103254635D01*
X149356000Y-103254635D01*
X149193186Y-103286224D01*
X149050088Y-103380224D01*
X148954300Y-103522132D01*
X148920635Y-103690000D01*
X148920635Y-104590000D01*
X148952224Y-104752814D01*
X149046224Y-104895912D01*
X149052000Y-104899810D01*
X149052000Y-105410968D01*
X149050088Y-105412224D01*
X148954300Y-105554132D01*
X148952827Y-105561474D01*
X148870327Y-105362301D01*
X148691698Y-105183673D01*
X148458309Y-105087000D01*
X148288750Y-105087000D01*
X148130000Y-105245750D01*
X148130000Y-106124000D01*
X148150000Y-106124000D01*
X148150000Y-106220000D01*
X148130000Y-106220000D01*
X148130000Y-107098250D01*
X148288750Y-107257000D01*
X148458309Y-107257000D01*
X148691698Y-107160327D01*
X148870327Y-106981699D01*
X148952114Y-106784247D01*
X148952224Y-106784814D01*
X149046224Y-106927912D01*
X149188132Y-107023700D01*
X149356000Y-107057365D01*
X149856000Y-107057365D01*
X150018814Y-107025776D01*
X150161912Y-106931776D01*
X150251535Y-106799000D01*
X151409410Y-106799000D01*
X151496000Y-106816365D01*
X152796000Y-106816365D01*
X152958814Y-106784776D01*
X153101912Y-106690776D01*
X153197700Y-106548868D01*
X153231365Y-106381000D01*
X153231365Y-105893660D01*
X153253275Y-105871749D01*
X153560635Y-106179109D01*
X153560635Y-106381000D01*
X153592224Y-106543814D01*
X153686224Y-106686912D01*
X153828132Y-106782700D01*
X153996000Y-106816365D01*
X155296000Y-106816365D01*
X155458814Y-106784776D01*
X155601912Y-106690776D01*
X155622685Y-106660000D01*
X155940552Y-106660000D01*
X155970279Y-106768646D01*
X156084717Y-106895993D01*
X156239408Y-106969367D01*
X157239408Y-107219367D01*
X157339536Y-107232331D01*
X157487020Y-107204675D01*
X157549570Y-107227421D01*
X157720592Y-107219367D01*
X158720592Y-106969367D01*
X158920912Y-106856776D01*
X159016700Y-106714868D01*
X159050365Y-106547000D01*
X159050365Y-105797000D01*
X158989721Y-105575354D01*
X158875283Y-105448007D01*
X158796000Y-105410400D01*
X158796000Y-104648000D01*
X158796000Y-99936198D01*
X158753829Y-99724192D01*
X158753829Y-99724191D01*
X158633737Y-99544461D01*
X157433276Y-98344000D01*
X163920141Y-98344000D01*
X163995574Y-98526560D01*
X164361513Y-98893139D01*
X164491717Y-98947204D01*
X164255034Y-99043007D01*
X164234328Y-99056842D01*
X164158135Y-99320253D01*
X165100000Y-100262118D01*
X166041865Y-99320253D01*
X165965672Y-99056842D01*
X165707862Y-98947602D01*
X165836560Y-98894426D01*
X166203139Y-98528487D01*
X166401774Y-98050120D01*
X166402226Y-97532152D01*
X166402226Y-99522667D01*
X166386993Y-99485034D01*
X166373158Y-99464328D01*
X166109747Y-99388135D01*
X165167882Y-100330000D01*
X166109747Y-101271865D01*
X166373158Y-101195672D01*
X166607523Y-100642560D01*
X166612381Y-100041864D01*
X166612381Y-107415441D01*
X166323017Y-107473000D01*
X166041865Y-107473000D01*
X166041865Y-101339747D01*
X165100000Y-100397882D01*
X165032118Y-100465764D01*
X165032118Y-100330000D01*
X164090253Y-99388135D01*
X163826842Y-99464328D01*
X163592477Y-100017440D01*
X163587619Y-100618136D01*
X163813007Y-101174966D01*
X163826842Y-101195672D01*
X164090253Y-101271865D01*
X165032118Y-100330000D01*
X165032118Y-100465764D01*
X164158135Y-101339747D01*
X164234328Y-101603158D01*
X164787440Y-101837523D01*
X165388136Y-101842381D01*
X165944966Y-101616993D01*
X165965672Y-101603158D01*
X166041865Y-101339747D01*
X166041865Y-107473000D01*
X148034000Y-107473000D01*
X148034000Y-107098250D01*
X148034000Y-106220000D01*
X148034000Y-106124000D01*
X148034000Y-105245750D01*
X147875250Y-105087000D01*
X147705691Y-105087000D01*
X147472302Y-105183673D01*
X147293673Y-105362301D01*
X147197000Y-105595690D01*
X147197000Y-105848309D01*
X147197000Y-105965250D01*
X147355750Y-106124000D01*
X148034000Y-106124000D01*
X148034000Y-106220000D01*
X147355750Y-106220000D01*
X147197000Y-106378750D01*
X147197000Y-106495691D01*
X147197000Y-106748310D01*
X147293673Y-106981699D01*
X147472302Y-107160327D01*
X147705691Y-107257000D01*
X147875250Y-107257000D01*
X148034000Y-107098250D01*
X148034000Y-107473000D01*
X143675000Y-107473000D01*
X143675000Y-106401309D01*
X143675000Y-104981750D01*
X143675000Y-104568250D01*
X143675000Y-103148691D01*
X143578327Y-102915302D01*
X143399699Y-102736673D01*
X143166310Y-102640000D01*
X142913691Y-102640000D01*
X142446750Y-102640000D01*
X142288000Y-102798750D01*
X142288000Y-104727000D01*
X143516250Y-104727000D01*
X143675000Y-104568250D01*
X143675000Y-104981750D01*
X143516250Y-104823000D01*
X142288000Y-104823000D01*
X142288000Y-106751250D01*
X142446750Y-106910000D01*
X142913691Y-106910000D01*
X143166310Y-106910000D01*
X143399699Y-106813327D01*
X143578327Y-106634698D01*
X143675000Y-106401309D01*
X143675000Y-107473000D01*
X142192000Y-107473000D01*
X142192000Y-106751250D01*
X142192000Y-104823000D01*
X142192000Y-104727000D01*
X142192000Y-102798750D01*
X142033250Y-102640000D01*
X141566309Y-102640000D01*
X141313690Y-102640000D01*
X141080301Y-102736673D01*
X140901673Y-102915302D01*
X140805000Y-103148691D01*
X140805000Y-104568250D01*
X140963750Y-104727000D01*
X142192000Y-104727000D01*
X142192000Y-104823000D01*
X140963750Y-104823000D01*
X140805000Y-104981750D01*
X140805000Y-106401309D01*
X140901673Y-106634698D01*
X141080301Y-106813327D01*
X141313690Y-106910000D01*
X141566309Y-106910000D01*
X142033250Y-106910000D01*
X142192000Y-106751250D01*
X142192000Y-107473000D01*
X138954000Y-107473000D01*
X138954000Y-97318250D01*
X138954000Y-96300000D01*
X138235750Y-96300000D01*
X138077000Y-96458750D01*
X138077000Y-96968309D01*
X138173673Y-97201698D01*
X138352301Y-97380327D01*
X138585690Y-97477000D01*
X138795250Y-97477000D01*
X138954000Y-97318250D01*
X138954000Y-107473000D01*
X138672381Y-107473000D01*
X138672381Y-105121864D01*
X138446993Y-104565034D01*
X138433158Y-104544328D01*
X138183001Y-104471968D01*
X138183001Y-102473999D01*
X138183001Y-98218001D01*
X138135274Y-97978059D01*
X138135273Y-97978058D01*
X137999357Y-97774645D01*
X135605356Y-95380644D01*
X135401943Y-95244728D01*
X135162000Y-95197000D01*
X135003497Y-95197000D01*
X134929868Y-95147300D01*
X134762000Y-95113635D01*
X134666000Y-95113635D01*
X134666000Y-94899187D01*
X134724814Y-94887776D01*
X134867912Y-94793776D01*
X134963700Y-94651868D01*
X134997365Y-94484000D01*
X134997365Y-93984000D01*
X134965776Y-93821186D01*
X134871776Y-93678088D01*
X134729868Y-93582300D01*
X134722525Y-93580827D01*
X134921699Y-93498327D01*
X135100327Y-93319698D01*
X135197000Y-93086309D01*
X135197000Y-92916750D01*
X135197000Y-92503250D01*
X135197000Y-92333691D01*
X135100327Y-92100302D01*
X134921699Y-91921673D01*
X134688310Y-91825000D01*
X134435691Y-91825000D01*
X134435000Y-91825000D01*
X134318750Y-91825000D01*
X134160000Y-91983750D01*
X134160000Y-92662000D01*
X135038250Y-92662000D01*
X135197000Y-92503250D01*
X135197000Y-92916750D01*
X135038250Y-92758000D01*
X134160000Y-92758000D01*
X134160000Y-92778000D01*
X134064000Y-92778000D01*
X134064000Y-92758000D01*
X134064000Y-92662000D01*
X134064000Y-91983750D01*
X133905250Y-91825000D01*
X133788309Y-91825000D01*
X133535690Y-91825000D01*
X133302301Y-91921673D01*
X133302000Y-91921974D01*
X133302000Y-88864250D01*
X133302000Y-88186000D01*
X132423750Y-88186000D01*
X132265000Y-88344750D01*
X132265000Y-88514309D01*
X132361673Y-88747698D01*
X132540301Y-88926327D01*
X132773690Y-89023000D01*
X133026309Y-89023000D01*
X133143250Y-89023000D01*
X133302000Y-88864250D01*
X133302000Y-91921974D01*
X133123673Y-92100302D01*
X133027000Y-92333691D01*
X133027000Y-92503250D01*
X133185750Y-92662000D01*
X134064000Y-92662000D01*
X134064000Y-92758000D01*
X133185750Y-92758000D01*
X133027000Y-92916750D01*
X133027000Y-93086309D01*
X133123673Y-93319698D01*
X133302301Y-93498327D01*
X133499752Y-93580114D01*
X133499186Y-93580224D01*
X133356088Y-93674224D01*
X133260300Y-93816132D01*
X133226635Y-93984000D01*
X133226635Y-94484000D01*
X133258224Y-94646814D01*
X133352224Y-94789912D01*
X133494132Y-94885700D01*
X133558000Y-94898508D01*
X133558000Y-95113635D01*
X133462000Y-95113635D01*
X133299186Y-95145224D01*
X133156088Y-95239224D01*
X133060300Y-95381132D01*
X133026635Y-95549000D01*
X133026635Y-96036339D01*
X133004724Y-96058250D01*
X132697365Y-95750891D01*
X132697365Y-95549000D01*
X132665776Y-95386186D01*
X132571776Y-95243088D01*
X132429868Y-95147300D01*
X132262000Y-95113635D01*
X132239000Y-95113635D01*
X132239000Y-94852181D01*
X132327912Y-94793776D01*
X132423700Y-94651868D01*
X132457365Y-94484000D01*
X132457365Y-93984000D01*
X132425776Y-93821186D01*
X132331776Y-93678088D01*
X132189868Y-93582300D01*
X132182525Y-93580827D01*
X132381699Y-93498327D01*
X132560327Y-93319698D01*
X132657000Y-93086309D01*
X132657000Y-92916750D01*
X132657000Y-92503250D01*
X132657000Y-92333691D01*
X132560327Y-92100302D01*
X132381699Y-91921673D01*
X132148310Y-91825000D01*
X131895691Y-91825000D01*
X131778750Y-91825000D01*
X131620000Y-91983750D01*
X131620000Y-92662000D01*
X132498250Y-92662000D01*
X132657000Y-92503250D01*
X132657000Y-92916750D01*
X132498250Y-92758000D01*
X131620000Y-92758000D01*
X131620000Y-92778000D01*
X131524000Y-92778000D01*
X131524000Y-92758000D01*
X131524000Y-92662000D01*
X131524000Y-91983750D01*
X131365250Y-91825000D01*
X131248309Y-91825000D01*
X130995690Y-91825000D01*
X130762301Y-91921673D01*
X130583673Y-92100302D01*
X130487000Y-92333691D01*
X130487000Y-92503250D01*
X130645750Y-92662000D01*
X131524000Y-92662000D01*
X131524000Y-92758000D01*
X130645750Y-92758000D01*
X130487000Y-92916750D01*
X130487000Y-93086309D01*
X130583673Y-93319698D01*
X130762301Y-93498327D01*
X130959752Y-93580114D01*
X130959186Y-93580224D01*
X130816088Y-93674224D01*
X130720300Y-93816132D01*
X130686635Y-93984000D01*
X130686635Y-94484000D01*
X130718224Y-94646814D01*
X130812224Y-94789912D01*
X130954132Y-94885700D01*
X130985000Y-94891890D01*
X130985000Y-95113635D01*
X130962000Y-95113635D01*
X130799186Y-95145224D01*
X130781532Y-95156820D01*
X130016355Y-94391643D01*
X129812942Y-94255727D01*
X129572999Y-94207999D01*
X129204201Y-94207999D01*
X128862760Y-94207999D01*
X128841000Y-94203635D01*
X128826000Y-94203635D01*
X128826000Y-93245750D01*
X128826000Y-92832250D01*
X128826000Y-91862691D01*
X128729327Y-91629302D01*
X128550699Y-91450673D01*
X128317310Y-91354000D01*
X128064691Y-91354000D01*
X127597750Y-91354000D01*
X127439000Y-91512750D01*
X127439000Y-92991000D01*
X128667250Y-92991000D01*
X128826000Y-92832250D01*
X128826000Y-93245750D01*
X128667250Y-93087000D01*
X127439000Y-93087000D01*
X127439000Y-93107000D01*
X127343000Y-93107000D01*
X127343000Y-93087000D01*
X127323000Y-93087000D01*
X127323000Y-92991000D01*
X127343000Y-92991000D01*
X127343000Y-91512750D01*
X127184250Y-91354000D01*
X126717309Y-91354000D01*
X126464690Y-91354000D01*
X126426000Y-91370025D01*
X126426000Y-91312691D01*
X126329327Y-91079302D01*
X126150699Y-90900673D01*
X125917310Y-90804000D01*
X125664691Y-90804000D01*
X125047750Y-90804000D01*
X124889000Y-90962750D01*
X124889000Y-92291000D01*
X124909000Y-92291000D01*
X124909000Y-92387000D01*
X124889000Y-92387000D01*
X124889000Y-93512750D01*
X124889000Y-93715250D01*
X124889000Y-94891000D01*
X124909000Y-94891000D01*
X124909000Y-94987000D01*
X124889000Y-94987000D01*
X124889000Y-95912750D01*
X124889000Y-96365250D01*
X124889000Y-97291000D01*
X124909000Y-97291000D01*
X124909000Y-97387000D01*
X124889000Y-97387000D01*
X124889000Y-98562750D01*
X124889000Y-98765250D01*
X124889000Y-99891000D01*
X124909000Y-99891000D01*
X124909000Y-99987000D01*
X124889000Y-99987000D01*
X124889000Y-101315250D01*
X125047750Y-101474000D01*
X125664691Y-101474000D01*
X125917310Y-101474000D01*
X126150699Y-101377327D01*
X126329327Y-101198698D01*
X126426000Y-100965309D01*
X126426000Y-100907974D01*
X126464690Y-100924000D01*
X126717309Y-100924000D01*
X127184250Y-100924000D01*
X127343000Y-100765250D01*
X127343000Y-99287000D01*
X127323000Y-99287000D01*
X127323000Y-99191000D01*
X127343000Y-99191000D01*
X127343000Y-99171000D01*
X127439000Y-99171000D01*
X127439000Y-99191000D01*
X128667250Y-99191000D01*
X128826000Y-99032250D01*
X128826000Y-98274000D01*
X128967310Y-98274000D01*
X129200699Y-98177327D01*
X129379327Y-97998698D01*
X129476000Y-97765309D01*
X129476000Y-97645750D01*
X129317250Y-97487000D01*
X127889000Y-97487000D01*
X127889000Y-97507000D01*
X127793000Y-97507000D01*
X127793000Y-97487000D01*
X127773000Y-97487000D01*
X127773000Y-97424365D01*
X128841000Y-97424365D01*
X129003814Y-97392776D01*
X129006517Y-97391000D01*
X129317250Y-97391000D01*
X129476000Y-97232250D01*
X129476000Y-97112691D01*
X129379327Y-96879302D01*
X129276365Y-96776339D01*
X129276365Y-96589000D01*
X129251711Y-96461932D01*
X129276365Y-96339000D01*
X129276365Y-95939000D01*
X129251711Y-95811932D01*
X129276365Y-95689000D01*
X129276365Y-95461999D01*
X129313286Y-95461999D01*
X130118644Y-96267356D01*
X130322057Y-96403272D01*
X130322058Y-96403273D01*
X130562000Y-96451000D01*
X130720502Y-96451000D01*
X130794132Y-96500700D01*
X130962000Y-96534365D01*
X131913891Y-96534365D01*
X132426062Y-97046536D01*
X132262000Y-97013635D01*
X130962000Y-97013635D01*
X130799186Y-97045224D01*
X130656088Y-97139224D01*
X130560300Y-97281132D01*
X130526635Y-97449000D01*
X130526635Y-97999000D01*
X130558224Y-98161814D01*
X130652224Y-98304912D01*
X130794132Y-98400700D01*
X130962000Y-98434365D01*
X131058000Y-98434365D01*
X131058000Y-98895052D01*
X130959186Y-98914224D01*
X130816088Y-99008224D01*
X130720300Y-99150132D01*
X130686635Y-99318000D01*
X130686635Y-99818000D01*
X130718224Y-99980814D01*
X130812224Y-100123912D01*
X130954132Y-100219700D01*
X130961474Y-100221172D01*
X130762301Y-100303673D01*
X130583673Y-100482302D01*
X130487000Y-100715691D01*
X130487000Y-100885250D01*
X130645750Y-101044000D01*
X131524000Y-101044000D01*
X131524000Y-101024000D01*
X131620000Y-101024000D01*
X131620000Y-101044000D01*
X132498250Y-101044000D01*
X132657000Y-100885250D01*
X132657000Y-100715691D01*
X132560327Y-100482302D01*
X132381699Y-100303673D01*
X132184247Y-100221885D01*
X132184814Y-100221776D01*
X132327912Y-100127776D01*
X132423700Y-99985868D01*
X132457365Y-99818000D01*
X132457365Y-99318000D01*
X132425776Y-99155186D01*
X132331776Y-99012088D01*
X132189868Y-98916300D01*
X132166000Y-98911513D01*
X132166000Y-98434365D01*
X132262000Y-98434365D01*
X132424814Y-98402776D01*
X132526999Y-98335651D01*
X132526999Y-99922801D01*
X132569170Y-100134808D01*
X132689262Y-100314538D01*
X132965462Y-100590738D01*
X133145192Y-100710830D01*
X133145193Y-100710830D01*
X133248807Y-100731440D01*
X133226635Y-100842000D01*
X133226635Y-101342000D01*
X133258224Y-101504814D01*
X133352224Y-101647912D01*
X133494132Y-101743700D01*
X133662000Y-101777365D01*
X134562000Y-101777365D01*
X134724814Y-101745776D01*
X134867912Y-101651776D01*
X134871810Y-101646000D01*
X135890968Y-101646000D01*
X135892224Y-101647912D01*
X136034132Y-101743700D01*
X136202000Y-101777365D01*
X136929001Y-101777365D01*
X136929001Y-102214287D01*
X134989601Y-104153686D01*
X134880120Y-104108226D01*
X134362152Y-104107774D01*
X133883440Y-104305574D01*
X133516861Y-104671513D01*
X133470567Y-104783000D01*
X132657000Y-104783000D01*
X132657000Y-101468309D01*
X132657000Y-101298750D01*
X132498250Y-101140000D01*
X131620000Y-101140000D01*
X131620000Y-101818250D01*
X131778750Y-101977000D01*
X131895691Y-101977000D01*
X132148310Y-101977000D01*
X132381699Y-101880327D01*
X132560327Y-101701698D01*
X132657000Y-101468309D01*
X132657000Y-104783000D01*
X131524000Y-104783000D01*
X131524000Y-101818250D01*
X131524000Y-101140000D01*
X130645750Y-101140000D01*
X130487000Y-101298750D01*
X130487000Y-101468309D01*
X130583673Y-101701698D01*
X130762301Y-101880327D01*
X130995690Y-101977000D01*
X131248309Y-101977000D01*
X131365250Y-101977000D01*
X131524000Y-101818250D01*
X131524000Y-104783000D01*
X130269542Y-104783000D01*
X130330140Y-104722508D01*
X130486821Y-104345179D01*
X130487178Y-103936613D01*
X130331156Y-103559011D01*
X130042508Y-103269860D01*
X129665179Y-103113179D01*
X129476000Y-103113013D01*
X129256613Y-103112822D01*
X128879011Y-103268844D01*
X128826000Y-103321762D01*
X128826000Y-100415309D01*
X128826000Y-99445750D01*
X128667250Y-99287000D01*
X127439000Y-99287000D01*
X127439000Y-100765250D01*
X127597750Y-100924000D01*
X128064691Y-100924000D01*
X128317310Y-100924000D01*
X128550699Y-100827327D01*
X128729327Y-100648698D01*
X128826000Y-100415309D01*
X128826000Y-103321762D01*
X128589860Y-103557492D01*
X128433179Y-103934821D01*
X128432822Y-104343387D01*
X128588844Y-104720989D01*
X128650747Y-104783000D01*
X128489712Y-104783000D01*
X127986877Y-104280165D01*
X127987178Y-103936613D01*
X127831156Y-103559011D01*
X127542508Y-103269860D01*
X127165179Y-103113179D01*
X126756613Y-103112822D01*
X126379011Y-103268844D01*
X126089860Y-103557492D01*
X125933179Y-103934821D01*
X125932822Y-104343387D01*
X126088844Y-104720989D01*
X126377492Y-105010140D01*
X126754821Y-105166821D01*
X127100410Y-105167122D01*
X127786644Y-105853356D01*
X127990057Y-105989272D01*
X127990058Y-105989272D01*
X128230000Y-106037000D01*
X133470304Y-106037000D01*
X133515574Y-106146560D01*
X133881513Y-106513139D01*
X134359880Y-106711774D01*
X134877848Y-106712226D01*
X135356560Y-106514426D01*
X135723139Y-106148487D01*
X135777204Y-106018282D01*
X135873007Y-106254966D01*
X135886842Y-106275672D01*
X136150253Y-106351865D01*
X137092118Y-105410000D01*
X137077975Y-105395857D01*
X137145857Y-105327975D01*
X137160000Y-105342118D01*
X138101865Y-104400253D01*
X138025672Y-104136842D01*
X137472560Y-103902477D01*
X137017911Y-103898800D01*
X137999357Y-102917355D01*
X138135273Y-102713942D01*
X138135273Y-102713941D01*
X138183001Y-102473999D01*
X138183001Y-104471968D01*
X138169747Y-104468135D01*
X137227882Y-105410000D01*
X138169747Y-106351865D01*
X138433158Y-106275672D01*
X138667523Y-105722560D01*
X138672381Y-105121864D01*
X138672381Y-107473000D01*
X138101865Y-107473000D01*
X138101865Y-106419747D01*
X137160000Y-105477882D01*
X136218135Y-106419747D01*
X136294328Y-106683158D01*
X136847440Y-106917523D01*
X137448136Y-106922381D01*
X138004966Y-106696993D01*
X138025672Y-106683158D01*
X138101865Y-106419747D01*
X138101865Y-107473000D01*
X125487178Y-107473000D01*
X125487178Y-103936613D01*
X125331156Y-103559011D01*
X125042508Y-103269860D01*
X124793000Y-103166255D01*
X124793000Y-101315250D01*
X124793000Y-99987000D01*
X124793000Y-99891000D01*
X124793000Y-98765250D01*
X124793000Y-98562750D01*
X124793000Y-97387000D01*
X124793000Y-97291000D01*
X124793000Y-96365250D01*
X124793000Y-95912750D01*
X124793000Y-94987000D01*
X124793000Y-94891000D01*
X124793000Y-93715250D01*
X124793000Y-93512750D01*
X124793000Y-92387000D01*
X124793000Y-92291000D01*
X124793000Y-90962750D01*
X124634250Y-90804000D01*
X124492226Y-90804000D01*
X124492226Y-84832152D01*
X124492226Y-79752152D01*
X124294426Y-79273440D01*
X123928487Y-78906861D01*
X123450120Y-78708226D01*
X122932152Y-78707774D01*
X122453440Y-78905574D01*
X122086861Y-79271513D01*
X121888226Y-79749880D01*
X121887774Y-80267848D01*
X122085574Y-80746560D01*
X122451513Y-81113139D01*
X122929880Y-81311774D01*
X123447848Y-81312226D01*
X123926560Y-81114426D01*
X124293139Y-80748487D01*
X124491774Y-80270120D01*
X124492226Y-79752152D01*
X124492226Y-84832152D01*
X124294426Y-84353440D01*
X123928487Y-83986861D01*
X123450120Y-83788226D01*
X122932152Y-83787774D01*
X122453440Y-83985574D01*
X122086861Y-84351513D01*
X121888226Y-84829880D01*
X121887774Y-85347848D01*
X122085574Y-85826560D01*
X122451513Y-86193139D01*
X122929880Y-86391774D01*
X123447848Y-86392226D01*
X123926560Y-86194426D01*
X124293139Y-85828487D01*
X124491774Y-85350120D01*
X124492226Y-84832152D01*
X124492226Y-90804000D01*
X124017309Y-90804000D01*
X123764690Y-90804000D01*
X123531301Y-90900673D01*
X123352673Y-91079302D01*
X123256000Y-91312691D01*
X123256000Y-92132250D01*
X123414750Y-92291000D01*
X124793000Y-92291000D01*
X124793000Y-92387000D01*
X123414750Y-92387000D01*
X123256000Y-92545750D01*
X123256000Y-93365309D01*
X123352673Y-93598698D01*
X123367974Y-93614000D01*
X123352673Y-93629302D01*
X123256000Y-93862691D01*
X123256000Y-94732250D01*
X123414750Y-94891000D01*
X124793000Y-94891000D01*
X124793000Y-94987000D01*
X123414750Y-94987000D01*
X123256000Y-95145750D01*
X123256000Y-96015309D01*
X123307234Y-96139000D01*
X123256000Y-96262691D01*
X123256000Y-97132250D01*
X123414750Y-97291000D01*
X124793000Y-97291000D01*
X124793000Y-97387000D01*
X123414750Y-97387000D01*
X123256000Y-97545750D01*
X123256000Y-98415309D01*
X123352673Y-98648698D01*
X123367974Y-98664000D01*
X123352673Y-98679302D01*
X123256000Y-98912691D01*
X123256000Y-99732250D01*
X123414750Y-99891000D01*
X124793000Y-99891000D01*
X124793000Y-99987000D01*
X123414750Y-99987000D01*
X123256000Y-100145750D01*
X123256000Y-100965309D01*
X123352673Y-101198698D01*
X123531301Y-101377327D01*
X123764690Y-101474000D01*
X124017309Y-101474000D01*
X124634250Y-101474000D01*
X124793000Y-101315250D01*
X124793000Y-103166255D01*
X124665179Y-103113179D01*
X124256613Y-103112822D01*
X123879011Y-103268844D01*
X123589860Y-103557492D01*
X123433179Y-103934821D01*
X123432822Y-104343387D01*
X123588844Y-104720989D01*
X123877492Y-105010140D01*
X124254821Y-105166821D01*
X124663387Y-105167178D01*
X125040989Y-105011156D01*
X125330140Y-104722508D01*
X125486821Y-104345179D01*
X125487178Y-103936613D01*
X125487178Y-107473000D01*
X123236982Y-107473000D01*
X122404099Y-107307329D01*
X121737846Y-106862153D01*
X121292670Y-106195900D01*
X121127000Y-105363017D01*
X121127000Y-69896982D01*
X121292670Y-69064099D01*
X121737846Y-68397846D01*
X122404099Y-67952670D01*
X123236982Y-67787000D01*
X166323017Y-67787000D01*
X167155900Y-67952670D01*
X167822153Y-68397846D01*
X168267329Y-69064099D01*
X168433000Y-69896982D01*
X168433000Y-105363017D01*
X168433000Y-105363017D01*
G37*
X168433000Y-105363017D02*
X168267329Y-106195900D01*
X167822153Y-106862153D01*
X167672226Y-106962331D01*
X167672226Y-84832152D01*
X167672226Y-79752152D01*
X167474426Y-79273440D01*
X167108487Y-78906861D01*
X166630120Y-78708226D01*
X166112152Y-78707774D01*
X165633440Y-78905574D01*
X165266861Y-79271513D01*
X165068226Y-79749880D01*
X165067774Y-80267848D01*
X165265574Y-80746560D01*
X165631513Y-81113139D01*
X166109880Y-81311774D01*
X166627848Y-81312226D01*
X167106560Y-81114426D01*
X167473139Y-80748487D01*
X167671774Y-80270120D01*
X167672226Y-79752152D01*
X167672226Y-84832152D01*
X167474426Y-84353440D01*
X167108487Y-83986861D01*
X166630120Y-83788226D01*
X166112152Y-83787774D01*
X165633440Y-83985574D01*
X165266861Y-84351513D01*
X165068226Y-84829880D01*
X165067774Y-85347848D01*
X165265574Y-85826560D01*
X165631513Y-86193139D01*
X166109880Y-86391774D01*
X166627848Y-86392226D01*
X167106560Y-86194426D01*
X167473139Y-85828487D01*
X167671774Y-85350120D01*
X167672226Y-84832152D01*
X167672226Y-106962331D01*
X167155900Y-107307329D01*
X166612381Y-107415441D01*
X166612381Y-100041864D01*
X166402226Y-99522667D01*
X166402226Y-97532152D01*
X166204426Y-97053440D01*
X165838487Y-96686861D01*
X165360120Y-96488226D01*
X164842152Y-96487774D01*
X164363440Y-96685574D01*
X164070000Y-96978501D01*
X163996861Y-97051513D01*
X163920255Y-97236000D01*
X162595000Y-97236000D01*
X162595000Y-94561310D01*
X162595000Y-94308691D01*
X162595000Y-93766750D01*
X162436250Y-93608000D01*
X161508000Y-93608000D01*
X161508000Y-94911250D01*
X161666750Y-95070000D01*
X162086309Y-95070000D01*
X162319698Y-94973327D01*
X162498327Y-94794699D01*
X162595000Y-94561310D01*
X162595000Y-97236000D01*
X156325276Y-97236000D01*
X155784528Y-96695252D01*
X155604798Y-96575160D01*
X155392791Y-96532989D01*
X152655661Y-96532989D01*
X150993037Y-94870365D01*
X151460000Y-94870365D01*
X151622814Y-94838776D01*
X151710182Y-94781384D01*
X151792132Y-94836700D01*
X151960000Y-94870365D01*
X152960000Y-94870365D01*
X153122814Y-94838776D01*
X153210182Y-94781384D01*
X153292132Y-94836700D01*
X153460000Y-94870365D01*
X154460000Y-94870365D01*
X154622814Y-94838776D01*
X154710182Y-94781384D01*
X154792132Y-94836700D01*
X154960000Y-94870365D01*
X155960000Y-94870365D01*
X156122814Y-94838776D01*
X156210182Y-94781384D01*
X156292132Y-94836700D01*
X156460000Y-94870365D01*
X157460000Y-94870365D01*
X157622814Y-94838776D01*
X157710182Y-94781384D01*
X157792132Y-94836700D01*
X157960000Y-94870365D01*
X158960000Y-94870365D01*
X159122814Y-94838776D01*
X159210182Y-94781384D01*
X159292132Y-94836700D01*
X159460000Y-94870365D01*
X160460000Y-94870365D01*
X160491272Y-94864297D01*
X160600302Y-94973327D01*
X160833691Y-95070000D01*
X161253250Y-95070000D01*
X161412000Y-94911250D01*
X161412000Y-93608000D01*
X161392000Y-93608000D01*
X161392000Y-93512000D01*
X161412000Y-93512000D01*
X161412000Y-93492000D01*
X161508000Y-93492000D01*
X161508000Y-93512000D01*
X162436250Y-93512000D01*
X162595000Y-93353250D01*
X162595000Y-92811309D01*
X162595000Y-92795000D01*
X162608002Y-92795000D01*
X162608002Y-92636252D01*
X162766750Y-92795000D01*
X163561309Y-92795000D01*
X163794698Y-92698327D01*
X163973327Y-92519699D01*
X164070000Y-92286310D01*
X164070000Y-92033691D01*
X164070000Y-91866750D01*
X164070000Y-91453250D01*
X164070000Y-91286309D01*
X164070000Y-91033690D01*
X163973327Y-90800301D01*
X163864127Y-90691102D01*
X163870365Y-90660000D01*
X163870365Y-89660000D01*
X163838776Y-89497186D01*
X163781384Y-89409817D01*
X163836700Y-89327868D01*
X163870365Y-89160000D01*
X163870365Y-88160000D01*
X163838776Y-87997186D01*
X163781384Y-87909817D01*
X163836700Y-87827868D01*
X163870365Y-87660000D01*
X163870365Y-86660000D01*
X163838776Y-86497186D01*
X163781384Y-86409817D01*
X163836700Y-86327868D01*
X163870365Y-86160000D01*
X163870365Y-85160000D01*
X163838776Y-84997186D01*
X163781384Y-84909817D01*
X163836700Y-84827868D01*
X163870365Y-84660000D01*
X163870365Y-83660000D01*
X163838776Y-83497186D01*
X163781384Y-83409817D01*
X163836700Y-83327868D01*
X163870365Y-83160000D01*
X163870365Y-82160000D01*
X163838776Y-81997186D01*
X163781384Y-81909817D01*
X163836700Y-81827868D01*
X163870365Y-81660000D01*
X163870365Y-80660000D01*
X163838776Y-80497186D01*
X163781384Y-80409817D01*
X163836700Y-80327868D01*
X163870365Y-80160000D01*
X163870365Y-79160000D01*
X163838776Y-78997186D01*
X163781384Y-78909817D01*
X163836700Y-78827868D01*
X163870365Y-78660000D01*
X163870365Y-77660000D01*
X163838776Y-77497186D01*
X163781384Y-77409817D01*
X163836700Y-77327868D01*
X163870365Y-77160000D01*
X163870365Y-76160000D01*
X163838776Y-75997186D01*
X163781384Y-75909817D01*
X163836700Y-75827868D01*
X163870365Y-75660000D01*
X163870365Y-74660000D01*
X163838776Y-74497186D01*
X163781384Y-74409817D01*
X163836700Y-74327868D01*
X163870365Y-74160000D01*
X163870365Y-73160000D01*
X163838776Y-72997186D01*
X163744776Y-72854088D01*
X163602868Y-72758300D01*
X163435000Y-72724635D01*
X161685000Y-72724635D01*
X161522186Y-72756224D01*
X161379088Y-72850224D01*
X161283300Y-72992132D01*
X161249635Y-73160000D01*
X161249635Y-74160000D01*
X161281224Y-74322814D01*
X161338615Y-74410182D01*
X161283300Y-74492132D01*
X161249635Y-74660000D01*
X161249635Y-75660000D01*
X161281224Y-75822814D01*
X161338615Y-75910182D01*
X161283300Y-75992132D01*
X161249635Y-76160000D01*
X161249635Y-77160000D01*
X161281224Y-77322814D01*
X161338615Y-77410182D01*
X161283300Y-77492132D01*
X161249635Y-77660000D01*
X161249635Y-78660000D01*
X161281224Y-78822814D01*
X161338615Y-78910182D01*
X161283300Y-78992132D01*
X161249635Y-79160000D01*
X161249635Y-80160000D01*
X161281224Y-80322814D01*
X161338615Y-80410182D01*
X161283300Y-80492132D01*
X161249635Y-80660000D01*
X161249635Y-81660000D01*
X161281224Y-81822814D01*
X161338615Y-81910182D01*
X161283300Y-81992132D01*
X161249635Y-82160000D01*
X161249635Y-83160000D01*
X161281224Y-83322814D01*
X161338615Y-83410182D01*
X161283300Y-83492132D01*
X161249635Y-83660000D01*
X161249635Y-84660000D01*
X161281224Y-84822814D01*
X161338615Y-84910182D01*
X161283300Y-84992132D01*
X161249635Y-85160000D01*
X161249635Y-86160000D01*
X161281224Y-86322814D01*
X161338615Y-86410182D01*
X161283300Y-86492132D01*
X161249635Y-86660000D01*
X161249635Y-87660000D01*
X161281224Y-87822814D01*
X161338615Y-87910182D01*
X161283300Y-87992132D01*
X161249635Y-88160000D01*
X161249635Y-89160000D01*
X161281224Y-89322814D01*
X161338615Y-89410182D01*
X161283300Y-89492132D01*
X161249635Y-89660000D01*
X161249635Y-90660000D01*
X161255702Y-90691272D01*
X161146673Y-90800301D01*
X161050000Y-91033690D01*
X161050000Y-91286309D01*
X161050000Y-91453250D01*
X161208750Y-91612000D01*
X162512000Y-91612000D01*
X162512000Y-91592000D01*
X162608000Y-91592000D01*
X162608000Y-91612000D01*
X163911250Y-91612000D01*
X164070000Y-91453250D01*
X164070000Y-91866750D01*
X163911250Y-91708000D01*
X162608000Y-91708000D01*
X162608000Y-91728000D01*
X162512000Y-91728000D01*
X162512000Y-91708000D01*
X161208750Y-91708000D01*
X161050000Y-91866750D01*
X161050000Y-92033691D01*
X161050000Y-92050000D01*
X160833691Y-92050000D01*
X160600302Y-92146673D01*
X160491102Y-92255872D01*
X160460000Y-92249635D01*
X159460000Y-92249635D01*
X159297186Y-92281224D01*
X159209817Y-92338615D01*
X159127868Y-92283300D01*
X158960000Y-92249635D01*
X157960000Y-92249635D01*
X157797186Y-92281224D01*
X157709817Y-92338615D01*
X157627868Y-92283300D01*
X157460000Y-92249635D01*
X156460000Y-92249635D01*
X156297186Y-92281224D01*
X156209817Y-92338615D01*
X156127868Y-92283300D01*
X155960000Y-92249635D01*
X154960000Y-92249635D01*
X154797186Y-92281224D01*
X154709817Y-92338615D01*
X154627868Y-92283300D01*
X154460000Y-92249635D01*
X153460000Y-92249635D01*
X153297186Y-92281224D01*
X153209817Y-92338615D01*
X153127868Y-92283300D01*
X152960000Y-92249635D01*
X151960000Y-92249635D01*
X151797186Y-92281224D01*
X151709817Y-92338615D01*
X151627868Y-92283300D01*
X151460000Y-92249635D01*
X151370000Y-92249635D01*
X151370000Y-92033691D01*
X151370000Y-91866750D01*
X151211250Y-91708000D01*
X149908000Y-91708000D01*
X149908000Y-92636250D01*
X150024635Y-92752885D01*
X150024635Y-93901963D01*
X149157999Y-93035327D01*
X149157999Y-92795000D01*
X149653250Y-92795000D01*
X149812000Y-92636250D01*
X149812000Y-91708000D01*
X149792000Y-91708000D01*
X149792000Y-91612000D01*
X149812000Y-91612000D01*
X149812000Y-91592000D01*
X149908000Y-91592000D01*
X149908000Y-91612000D01*
X151211250Y-91612000D01*
X151370000Y-91453250D01*
X151370000Y-91286309D01*
X151370000Y-91033690D01*
X151273327Y-90800301D01*
X151164127Y-90691102D01*
X151170365Y-90660000D01*
X151170365Y-89660000D01*
X151138776Y-89497186D01*
X151081384Y-89409817D01*
X151136700Y-89327868D01*
X151170365Y-89160000D01*
X151170365Y-88160000D01*
X151138776Y-87997186D01*
X151081384Y-87909817D01*
X151136700Y-87827868D01*
X151170365Y-87660000D01*
X151170365Y-86660000D01*
X151138776Y-86497186D01*
X151081384Y-86409817D01*
X151136700Y-86327868D01*
X151170365Y-86160000D01*
X151170365Y-85160000D01*
X151138776Y-84997186D01*
X151081384Y-84909817D01*
X151136700Y-84827868D01*
X151170365Y-84660000D01*
X151170365Y-83660000D01*
X151138776Y-83497186D01*
X151081384Y-83409817D01*
X151136700Y-83327868D01*
X151170365Y-83160000D01*
X151170365Y-82160000D01*
X151138776Y-81997186D01*
X151081384Y-81909817D01*
X151136700Y-81827868D01*
X151170365Y-81660000D01*
X151170365Y-80660000D01*
X151138776Y-80497186D01*
X151081384Y-80409817D01*
X151136700Y-80327868D01*
X151170365Y-80160000D01*
X151170365Y-79160000D01*
X151138776Y-78997186D01*
X151081384Y-78909817D01*
X151136700Y-78827868D01*
X151170365Y-78660000D01*
X151170365Y-77660000D01*
X151138776Y-77497186D01*
X151081384Y-77409817D01*
X151136700Y-77327868D01*
X151170365Y-77160000D01*
X151170365Y-76160000D01*
X151138776Y-75997186D01*
X151081384Y-75909817D01*
X151136700Y-75827868D01*
X151170365Y-75660000D01*
X151170365Y-74660000D01*
X151138776Y-74497186D01*
X151081384Y-74409817D01*
X151136700Y-74327868D01*
X151170365Y-74160000D01*
X151170365Y-73160000D01*
X151138776Y-72997186D01*
X151044776Y-72854088D01*
X150902868Y-72758300D01*
X150735000Y-72724635D01*
X148985000Y-72724635D01*
X148822186Y-72756224D01*
X148679088Y-72850224D01*
X148583300Y-72992132D01*
X148553379Y-73141330D01*
X148518994Y-73148170D01*
X148339263Y-73268263D01*
X148212262Y-73395264D01*
X148092170Y-73574994D01*
X148049999Y-73787001D01*
X148049999Y-74339093D01*
X147697000Y-74692092D01*
X147697000Y-73728310D01*
X147697000Y-73475691D01*
X147697000Y-73358750D01*
X147697000Y-72945250D01*
X147697000Y-72828309D01*
X147697000Y-72575690D01*
X147600327Y-72342301D01*
X147421698Y-72163673D01*
X147188309Y-72067000D01*
X147018750Y-72067000D01*
X146860000Y-72225750D01*
X146860000Y-73104000D01*
X147538250Y-73104000D01*
X147697000Y-72945250D01*
X147697000Y-73358750D01*
X147538250Y-73200000D01*
X146860000Y-73200000D01*
X146860000Y-74078250D01*
X147018750Y-74237000D01*
X147188309Y-74237000D01*
X147421698Y-74140327D01*
X147600327Y-73961699D01*
X147697000Y-73728310D01*
X147697000Y-74692092D01*
X146764000Y-75625092D01*
X146764000Y-74078250D01*
X146764000Y-73200000D01*
X146744000Y-73200000D01*
X146744000Y-73104000D01*
X146764000Y-73104000D01*
X146764000Y-72225750D01*
X146605250Y-72067000D01*
X146435691Y-72067000D01*
X146202302Y-72163673D01*
X146023673Y-72342301D01*
X145941885Y-72539752D01*
X145941776Y-72539186D01*
X145847776Y-72396088D01*
X145705868Y-72300300D01*
X145538000Y-72266635D01*
X145038000Y-72266635D01*
X144875186Y-72298224D01*
X144732088Y-72392224D01*
X144636300Y-72534132D01*
X144634827Y-72541474D01*
X144552327Y-72342301D01*
X144373698Y-72163673D01*
X144140309Y-72067000D01*
X143970750Y-72067000D01*
X143812000Y-72225750D01*
X143812000Y-73104000D01*
X143832000Y-73104000D01*
X143832000Y-73200000D01*
X143812000Y-73200000D01*
X143812000Y-74078250D01*
X143970750Y-74237000D01*
X144140309Y-74237000D01*
X144373698Y-74140327D01*
X144552327Y-73961699D01*
X144634114Y-73764247D01*
X144634224Y-73764814D01*
X144728224Y-73907912D01*
X144734000Y-73911810D01*
X144734000Y-74264812D01*
X144675186Y-74276224D01*
X144532088Y-74370224D01*
X144436300Y-74512132D01*
X144402635Y-74680000D01*
X144402635Y-75180000D01*
X144434224Y-75342814D01*
X144528224Y-75485912D01*
X144670132Y-75581700D01*
X144838000Y-75615365D01*
X145738000Y-75615365D01*
X145900814Y-75583776D01*
X146043912Y-75489776D01*
X146139700Y-75347868D01*
X146173365Y-75180000D01*
X146173365Y-74680000D01*
X146141776Y-74517186D01*
X146047776Y-74374088D01*
X145905868Y-74278300D01*
X145842000Y-74265491D01*
X145842000Y-73913031D01*
X145843912Y-73911776D01*
X145939700Y-73769868D01*
X145941172Y-73762525D01*
X146023673Y-73961699D01*
X146202302Y-74140327D01*
X146435691Y-74237000D01*
X146605250Y-74237000D01*
X146764000Y-74078250D01*
X146764000Y-75625092D01*
X146173365Y-76215727D01*
X146173365Y-76204000D01*
X146141776Y-76041186D01*
X146047776Y-75898088D01*
X145905868Y-75802300D01*
X145738000Y-75768635D01*
X144838000Y-75768635D01*
X144675186Y-75800224D01*
X144532088Y-75894224D01*
X144436300Y-76036132D01*
X144402635Y-76204000D01*
X144402635Y-76355891D01*
X143716000Y-77042526D01*
X143716000Y-74078250D01*
X143716000Y-73200000D01*
X143696000Y-73200000D01*
X143696000Y-73104000D01*
X143716000Y-73104000D01*
X143716000Y-72225750D01*
X143557250Y-72067000D01*
X143387691Y-72067000D01*
X143154302Y-72163673D01*
X142975673Y-72342301D01*
X142893885Y-72539752D01*
X142893776Y-72539186D01*
X142799776Y-72396088D01*
X142657868Y-72300300D01*
X142490000Y-72266635D01*
X141990000Y-72266635D01*
X141827186Y-72298224D01*
X141684088Y-72392224D01*
X141588300Y-72534132D01*
X141586827Y-72541474D01*
X141504327Y-72342301D01*
X141325698Y-72163673D01*
X141092309Y-72067000D01*
X140922750Y-72067000D01*
X140764000Y-72225750D01*
X140764000Y-73104000D01*
X140784000Y-73104000D01*
X140784000Y-73200000D01*
X140764000Y-73200000D01*
X140764000Y-74078250D01*
X140922750Y-74237000D01*
X141092309Y-74237000D01*
X141325698Y-74140327D01*
X141504327Y-73961699D01*
X141586114Y-73764247D01*
X141586224Y-73764814D01*
X141680224Y-73907912D01*
X141686000Y-73911810D01*
X141686000Y-74264812D01*
X141627186Y-74276224D01*
X141484088Y-74370224D01*
X141388300Y-74512132D01*
X141354635Y-74680000D01*
X141354635Y-75180000D01*
X141386224Y-75342814D01*
X141480224Y-75485912D01*
X141622132Y-75581700D01*
X141790000Y-75615365D01*
X142690000Y-75615365D01*
X142852814Y-75583776D01*
X142995912Y-75489776D01*
X143091700Y-75347868D01*
X143125365Y-75180000D01*
X143125365Y-74680000D01*
X143093776Y-74517186D01*
X142999776Y-74374088D01*
X142857868Y-74278300D01*
X142794000Y-74265491D01*
X142794000Y-73913031D01*
X142795912Y-73911776D01*
X142891700Y-73769868D01*
X142893172Y-73762525D01*
X142975673Y-73961699D01*
X143154302Y-74140327D01*
X143387691Y-74237000D01*
X143557250Y-74237000D01*
X143716000Y-74078250D01*
X143716000Y-77042526D01*
X143206000Y-77552526D01*
X143206000Y-76866000D01*
X143163829Y-76653994D01*
X143163829Y-76653993D01*
X143125365Y-76596428D01*
X143125365Y-76596427D01*
X143125365Y-76204000D01*
X143093776Y-76041186D01*
X142999776Y-75898088D01*
X142857868Y-75802300D01*
X142690000Y-75768635D01*
X141790000Y-75768635D01*
X141627186Y-75800224D01*
X141484088Y-75894224D01*
X141388300Y-76036132D01*
X141354635Y-76204000D01*
X141354635Y-76704000D01*
X141386224Y-76866814D01*
X141480224Y-77009912D01*
X141622132Y-77105700D01*
X141790000Y-77139365D01*
X142098000Y-77139365D01*
X142098000Y-77872526D01*
X140668000Y-76442526D01*
X140668000Y-74078250D01*
X140668000Y-73200000D01*
X140648000Y-73200000D01*
X140648000Y-73104000D01*
X140668000Y-73104000D01*
X140668000Y-72225750D01*
X140509250Y-72067000D01*
X140339691Y-72067000D01*
X140106302Y-72163673D01*
X139927673Y-72342301D01*
X139845885Y-72539752D01*
X139845776Y-72539186D01*
X139751776Y-72396088D01*
X139609868Y-72300300D01*
X139442000Y-72266635D01*
X138942000Y-72266635D01*
X138779186Y-72298224D01*
X138636088Y-72392224D01*
X138540300Y-72534132D01*
X138506635Y-72702000D01*
X138506635Y-73602000D01*
X138538224Y-73764814D01*
X138632224Y-73907912D01*
X138638000Y-73911810D01*
X138638000Y-74264812D01*
X138579186Y-74276224D01*
X138436088Y-74370224D01*
X138340300Y-74512132D01*
X138306635Y-74680000D01*
X138306635Y-75180000D01*
X138338224Y-75342814D01*
X138432224Y-75485912D01*
X138574132Y-75581700D01*
X138742000Y-75615365D01*
X139642000Y-75615365D01*
X139804814Y-75583776D01*
X139947912Y-75489776D01*
X140043700Y-75347868D01*
X140077365Y-75180000D01*
X140077365Y-74680000D01*
X140045776Y-74517186D01*
X139951776Y-74374088D01*
X139809868Y-74278300D01*
X139746000Y-74265491D01*
X139746000Y-73913031D01*
X139747912Y-73911776D01*
X139843700Y-73769868D01*
X139845172Y-73762525D01*
X139927673Y-73961699D01*
X140106302Y-74140327D01*
X140339691Y-74237000D01*
X140509250Y-74237000D01*
X140668000Y-74078250D01*
X140668000Y-76442526D01*
X140287737Y-76062263D01*
X140108007Y-75942171D01*
X139961604Y-75913049D01*
X139951776Y-75898088D01*
X139809868Y-75802300D01*
X139642000Y-75768635D01*
X138742000Y-75768635D01*
X138579186Y-75800224D01*
X138436088Y-75894224D01*
X138340300Y-76036132D01*
X138306635Y-76204000D01*
X138306635Y-76704000D01*
X138308826Y-76715297D01*
X138246999Y-76702999D01*
X134862381Y-76702999D01*
X134862381Y-72101864D01*
X134636993Y-71545034D01*
X134623158Y-71524328D01*
X134359747Y-71448135D01*
X134291865Y-71516017D01*
X134291865Y-71380253D01*
X134215672Y-71116842D01*
X133662560Y-70882477D01*
X133061864Y-70877619D01*
X132505034Y-71103007D01*
X132484328Y-71116842D01*
X132408135Y-71380253D01*
X133350000Y-72322118D01*
X134291865Y-71380253D01*
X134291865Y-71516017D01*
X133417882Y-72390000D01*
X134359747Y-73331865D01*
X134623158Y-73255672D01*
X134857523Y-72702560D01*
X134862381Y-72101864D01*
X134862381Y-76702999D01*
X134291865Y-76702999D01*
X134291865Y-73399747D01*
X133350000Y-72457882D01*
X133282118Y-72525764D01*
X133282118Y-72390000D01*
X132340253Y-71448135D01*
X132076842Y-71524328D01*
X131967602Y-71782137D01*
X131914426Y-71653440D01*
X131548487Y-71286861D01*
X131070120Y-71088226D01*
X130552152Y-71087774D01*
X130073440Y-71285574D01*
X129782381Y-71576124D01*
X129782381Y-69561864D01*
X129556993Y-69005034D01*
X129543158Y-68984328D01*
X129279747Y-68908135D01*
X129211865Y-68976017D01*
X129211865Y-68840253D01*
X129135672Y-68576842D01*
X128582560Y-68342477D01*
X127981864Y-68337619D01*
X127425034Y-68563007D01*
X127404328Y-68576842D01*
X127328135Y-68840253D01*
X128270000Y-69782118D01*
X129211865Y-68840253D01*
X129211865Y-68976017D01*
X128337882Y-69850000D01*
X129279747Y-70791865D01*
X129543158Y-70715672D01*
X129777523Y-70162560D01*
X129782381Y-69561864D01*
X129782381Y-71576124D01*
X129706861Y-71651513D01*
X129539834Y-72053758D01*
X129374426Y-71653440D01*
X129008487Y-71286861D01*
X128878282Y-71232795D01*
X129114966Y-71136993D01*
X129135672Y-71123158D01*
X129211865Y-70859747D01*
X128270000Y-69917882D01*
X127328135Y-70859747D01*
X127404328Y-71123158D01*
X127662137Y-71232397D01*
X127533440Y-71285574D01*
X127166861Y-71651513D01*
X126999834Y-72053758D01*
X126834426Y-71653440D01*
X126468487Y-71286861D01*
X126066241Y-71119834D01*
X126466560Y-70954426D01*
X126833139Y-70588487D01*
X126887204Y-70458282D01*
X126983007Y-70694966D01*
X126996842Y-70715672D01*
X127260253Y-70791865D01*
X128202118Y-69850000D01*
X127260253Y-68908135D01*
X126996842Y-68984328D01*
X126887602Y-69242137D01*
X126834426Y-69113440D01*
X126468487Y-68746861D01*
X125990120Y-68548226D01*
X125472152Y-68547774D01*
X124993440Y-68745574D01*
X124626861Y-69111513D01*
X124459834Y-69513758D01*
X124294426Y-69113440D01*
X123928487Y-68746861D01*
X123450120Y-68548226D01*
X122932152Y-68547774D01*
X122453440Y-68745574D01*
X122086861Y-69111513D01*
X121888226Y-69589880D01*
X121887774Y-70107848D01*
X122085574Y-70586560D01*
X122451513Y-70953139D01*
X122853758Y-71120165D01*
X122453440Y-71285574D01*
X122086861Y-71651513D01*
X121888226Y-72129880D01*
X121887774Y-72647848D01*
X122085574Y-73126560D01*
X122451513Y-73493139D01*
X122636000Y-73569744D01*
X122636000Y-76200000D01*
X122678171Y-76412007D01*
X122798263Y-76591737D01*
X123715575Y-77509049D01*
X123715349Y-77769592D01*
X123847747Y-78090020D01*
X124092690Y-78335391D01*
X124412887Y-78468349D01*
X124759592Y-78468651D01*
X125080020Y-78336253D01*
X125325391Y-78091310D01*
X125458349Y-77771113D01*
X125458651Y-77424408D01*
X125326253Y-77103980D01*
X125081310Y-76858609D01*
X124761113Y-76725651D01*
X124498896Y-76725422D01*
X123744000Y-75970526D01*
X123744000Y-73569858D01*
X123926560Y-73494426D01*
X124293139Y-73128487D01*
X124460165Y-72726241D01*
X124625574Y-73126560D01*
X124991513Y-73493139D01*
X125469880Y-73691774D01*
X125987848Y-73692226D01*
X126466560Y-73494426D01*
X126833139Y-73128487D01*
X127000165Y-72726241D01*
X127165574Y-73126560D01*
X127531513Y-73493139D01*
X128009880Y-73691774D01*
X128527848Y-73692226D01*
X129006560Y-73494426D01*
X129373139Y-73128487D01*
X129540165Y-72726241D01*
X129705574Y-73126560D01*
X130071513Y-73493139D01*
X130549880Y-73691774D01*
X131067848Y-73692226D01*
X131546560Y-73494426D01*
X131913139Y-73128487D01*
X131967204Y-72998282D01*
X132063007Y-73234966D01*
X132076842Y-73255672D01*
X132340253Y-73331865D01*
X133282118Y-72390000D01*
X133282118Y-72525764D01*
X132408135Y-73399747D01*
X132484328Y-73663158D01*
X133037440Y-73897523D01*
X133638136Y-73902381D01*
X134194966Y-73676993D01*
X134215672Y-73663158D01*
X134291865Y-73399747D01*
X134291865Y-76702999D01*
X131043199Y-76702999D01*
X130831192Y-76745170D01*
X130651462Y-76865262D01*
X130575262Y-76941462D01*
X130455170Y-77121192D01*
X130412999Y-77333199D01*
X130412999Y-79103723D01*
X129169031Y-77859755D01*
X129139079Y-77709174D01*
X128964143Y-77447365D01*
X128702334Y-77272429D01*
X128393508Y-77211000D01*
X127352492Y-77211000D01*
X127043666Y-77272429D01*
X126781857Y-77447365D01*
X126606921Y-77709174D01*
X126545492Y-78018000D01*
X126606921Y-78326826D01*
X126636652Y-78371321D01*
X126459673Y-78548302D01*
X126363000Y-78781691D01*
X126363000Y-79081250D01*
X126521750Y-79240000D01*
X127825000Y-79240000D01*
X127825000Y-79220000D01*
X127921000Y-79220000D01*
X127921000Y-79240000D01*
X127941000Y-79240000D01*
X127941000Y-79336000D01*
X127921000Y-79336000D01*
X127921000Y-79701750D01*
X127921000Y-80144250D01*
X127921000Y-80510000D01*
X129224250Y-80510000D01*
X129383000Y-80351250D01*
X129383000Y-80051691D01*
X129329694Y-79923000D01*
X129383000Y-79794309D01*
X129383000Y-79640672D01*
X129566000Y-79823672D01*
X129566000Y-84993000D01*
X129608171Y-85205007D01*
X129728263Y-85384737D01*
X130138498Y-85794972D01*
X130068088Y-85841224D01*
X129972300Y-85983132D01*
X129938635Y-86151000D01*
X129938635Y-86153161D01*
X129819737Y-86034263D01*
X129640007Y-85914171D01*
X129512494Y-85888807D01*
X129483776Y-85845088D01*
X129383000Y-85777064D01*
X129383000Y-83604309D01*
X129383000Y-83304750D01*
X129383000Y-82891250D01*
X129383000Y-82591691D01*
X129286327Y-82358302D01*
X129175457Y-82247431D01*
X129183365Y-82208000D01*
X129183365Y-81448000D01*
X129175672Y-81408352D01*
X129286327Y-81297698D01*
X129383000Y-81064309D01*
X129383000Y-80764750D01*
X129224250Y-80606000D01*
X127921000Y-80606000D01*
X127921000Y-80626000D01*
X127825000Y-80626000D01*
X127825000Y-80606000D01*
X127825000Y-80510000D01*
X127825000Y-80144250D01*
X127825000Y-79701750D01*
X127825000Y-79336000D01*
X126521750Y-79336000D01*
X126363000Y-79494750D01*
X126363000Y-79794309D01*
X126416305Y-79923000D01*
X126363000Y-80051691D01*
X126363000Y-80351250D01*
X126521750Y-80510000D01*
X127825000Y-80510000D01*
X127825000Y-80606000D01*
X126521750Y-80606000D01*
X126363000Y-80764750D01*
X126363000Y-81064309D01*
X126459673Y-81297698D01*
X126570542Y-81408568D01*
X126562635Y-81448000D01*
X126562635Y-82208000D01*
X126570327Y-82247647D01*
X126459673Y-82358302D01*
X126363000Y-82591691D01*
X126363000Y-82891250D01*
X126521750Y-83050000D01*
X127825000Y-83050000D01*
X127825000Y-83030000D01*
X127921000Y-83030000D01*
X127921000Y-83050000D01*
X129224250Y-83050000D01*
X129383000Y-82891250D01*
X129383000Y-83304750D01*
X129224250Y-83146000D01*
X127921000Y-83146000D01*
X127921000Y-83954250D01*
X128079750Y-84113000D01*
X128621691Y-84113000D01*
X128874310Y-84113000D01*
X129107699Y-84016327D01*
X129286327Y-83837698D01*
X129383000Y-83604309D01*
X129383000Y-85777064D01*
X129341868Y-85749300D01*
X129174000Y-85715635D01*
X127874000Y-85715635D01*
X127825000Y-85725141D01*
X127825000Y-83954250D01*
X127825000Y-83146000D01*
X126521750Y-83146000D01*
X126363000Y-83304750D01*
X126363000Y-83604309D01*
X126459673Y-83837698D01*
X126638301Y-84016327D01*
X126871690Y-84113000D01*
X127124309Y-84113000D01*
X127666250Y-84113000D01*
X127825000Y-83954250D01*
X127825000Y-85725141D01*
X127711186Y-85747224D01*
X127568088Y-85841224D01*
X127472300Y-85983132D01*
X127438635Y-86151000D01*
X127438635Y-86638339D01*
X127335673Y-86741301D01*
X127323000Y-86771896D01*
X127323000Y-86407250D01*
X127323000Y-86237691D01*
X127226327Y-86004302D01*
X127047699Y-85825673D01*
X126814310Y-85729000D01*
X126561691Y-85729000D01*
X126444750Y-85729000D01*
X126286000Y-85887750D01*
X126286000Y-86566000D01*
X127164250Y-86566000D01*
X127323000Y-86407250D01*
X127323000Y-86771896D01*
X127308691Y-86806441D01*
X127164250Y-86662000D01*
X126286000Y-86662000D01*
X126286000Y-86682000D01*
X126190000Y-86682000D01*
X126190000Y-86662000D01*
X126190000Y-86566000D01*
X126190000Y-85887750D01*
X126031250Y-85729000D01*
X125914309Y-85729000D01*
X125661690Y-85729000D01*
X125428301Y-85825673D01*
X125249673Y-86004302D01*
X125153000Y-86237691D01*
X125153000Y-86407250D01*
X125311750Y-86566000D01*
X126190000Y-86566000D01*
X126190000Y-86662000D01*
X125311750Y-86662000D01*
X125153000Y-86820750D01*
X125153000Y-86990309D01*
X125249673Y-87223698D01*
X125428301Y-87402327D01*
X125625752Y-87484114D01*
X125625186Y-87484224D01*
X125482088Y-87578224D01*
X125386300Y-87720132D01*
X125352635Y-87888000D01*
X125352635Y-88388000D01*
X125384224Y-88550814D01*
X125478224Y-88693912D01*
X125620132Y-88789700D01*
X125788000Y-88823365D01*
X126688000Y-88823365D01*
X126850814Y-88791776D01*
X126993912Y-88697776D01*
X126997810Y-88692000D01*
X127456290Y-88692000D01*
X127470224Y-88763814D01*
X127564224Y-88906912D01*
X127706132Y-89002700D01*
X127745380Y-89010571D01*
X127652651Y-89233887D01*
X127652349Y-89580592D01*
X127784747Y-89901020D01*
X128029690Y-90146391D01*
X128349887Y-90279349D01*
X128696592Y-90279651D01*
X129017020Y-90147253D01*
X129262391Y-89902310D01*
X129395349Y-89582113D01*
X129395651Y-89235408D01*
X129303061Y-89011324D01*
X129336814Y-89004776D01*
X129479912Y-88910776D01*
X129511958Y-88863299D01*
X129640006Y-88837829D01*
X129640007Y-88837829D01*
X129819737Y-88717737D01*
X129938635Y-88598839D01*
X129938635Y-88601000D01*
X129970224Y-88763814D01*
X130064224Y-88906912D01*
X130206132Y-89002700D01*
X130374000Y-89036365D01*
X131674000Y-89036365D01*
X131836814Y-89004776D01*
X131979912Y-88910776D01*
X132075700Y-88768868D01*
X132109365Y-88601000D01*
X132109365Y-88051000D01*
X132077776Y-87888186D01*
X131983776Y-87745088D01*
X131841868Y-87649300D01*
X131674000Y-87615635D01*
X130374000Y-87615635D01*
X130211186Y-87647224D01*
X130109001Y-87714348D01*
X130109001Y-87037136D01*
X130206132Y-87102700D01*
X130374000Y-87136365D01*
X131052960Y-87136365D01*
X131052961Y-87136365D01*
X131212000Y-87168000D01*
X132588968Y-87168000D01*
X132590224Y-87169912D01*
X132732132Y-87265700D01*
X132739474Y-87267172D01*
X132540301Y-87349673D01*
X132361673Y-87528302D01*
X132265000Y-87761691D01*
X132265000Y-87931250D01*
X132423750Y-88090000D01*
X133302000Y-88090000D01*
X133302000Y-88070000D01*
X133398000Y-88070000D01*
X133398000Y-88090000D01*
X133418000Y-88090000D01*
X133418000Y-88186000D01*
X133398000Y-88186000D01*
X133398000Y-88864250D01*
X133556750Y-89023000D01*
X133673691Y-89023000D01*
X133926310Y-89023000D01*
X134159699Y-88926327D01*
X134338327Y-88747698D01*
X134435000Y-88514309D01*
X134435000Y-88344750D01*
X134276252Y-88186002D01*
X134338528Y-88186002D01*
X136214518Y-90061992D01*
X136394248Y-90182084D01*
X136394249Y-90182084D01*
X136606255Y-90224255D01*
X136740065Y-90224255D01*
X136924135Y-90408646D01*
X137244332Y-90541604D01*
X137591037Y-90541906D01*
X137911465Y-90409508D01*
X138156836Y-90164565D01*
X138289794Y-89844368D01*
X138290096Y-89497663D01*
X138157698Y-89177235D01*
X137912755Y-88931864D01*
X137718892Y-88851365D01*
X138102000Y-88851365D01*
X138254480Y-88821780D01*
X138402000Y-88851365D01*
X138528008Y-88851365D01*
X138490171Y-88907993D01*
X138448000Y-89120000D01*
X138448000Y-90004692D01*
X138406088Y-90032224D01*
X138310300Y-90174132D01*
X138276635Y-90342000D01*
X138276635Y-91522000D01*
X138308224Y-91684814D01*
X138402224Y-91827912D01*
X138544132Y-91923700D01*
X138712000Y-91957365D01*
X139292000Y-91957365D01*
X139454814Y-91925776D01*
X139501638Y-91895017D01*
X139544132Y-91923700D01*
X139712000Y-91957365D01*
X140292000Y-91957365D01*
X140454814Y-91925776D01*
X140501638Y-91895017D01*
X140544132Y-91923700D01*
X140712000Y-91957365D01*
X141292000Y-91957365D01*
X141454814Y-91925776D01*
X141501638Y-91895017D01*
X141544132Y-91923700D01*
X141712000Y-91957365D01*
X142292000Y-91957365D01*
X142375000Y-91941261D01*
X142375000Y-93959880D01*
X142160113Y-93870651D01*
X141813408Y-93870349D01*
X141492980Y-94002747D01*
X141247609Y-94247690D01*
X141138108Y-94511396D01*
X140163356Y-93536644D01*
X139959943Y-93400728D01*
X139720000Y-93353000D01*
X139289506Y-93353000D01*
X139178310Y-93241609D01*
X138858113Y-93108651D01*
X138511408Y-93108349D01*
X138190980Y-93240747D01*
X137945609Y-93485690D01*
X137812651Y-93805887D01*
X137812373Y-94124403D01*
X137749408Y-94124349D01*
X137428980Y-94256747D01*
X137183609Y-94501690D01*
X137050651Y-94821887D01*
X137050349Y-95168592D01*
X137182747Y-95489020D01*
X137427690Y-95734391D01*
X137747887Y-95867349D01*
X138077000Y-95867635D01*
X138077000Y-96045250D01*
X138235750Y-96204000D01*
X138954000Y-96204000D01*
X138954000Y-96184000D01*
X139050000Y-96184000D01*
X139050000Y-96204000D01*
X139070000Y-96204000D01*
X139070000Y-96300000D01*
X139050000Y-96300000D01*
X139050000Y-97318250D01*
X139208750Y-97477000D01*
X139418310Y-97477000D01*
X139651699Y-97380327D01*
X139754660Y-97277365D01*
X140292000Y-97277365D01*
X140454814Y-97245776D01*
X140501638Y-97215017D01*
X140544132Y-97243700D01*
X140712000Y-97277365D01*
X141265966Y-97277365D01*
X141247609Y-97295690D01*
X141114651Y-97615887D01*
X141114349Y-97962592D01*
X141246747Y-98283020D01*
X141409077Y-98445634D01*
X141277186Y-98471224D01*
X141134088Y-98565224D01*
X141038300Y-98707132D01*
X141004635Y-98875000D01*
X141004635Y-101875000D01*
X141036224Y-102037814D01*
X141130224Y-102180912D01*
X141272132Y-102276700D01*
X141440000Y-102310365D01*
X143040000Y-102310365D01*
X143202814Y-102278776D01*
X143345912Y-102184776D01*
X143441700Y-102042868D01*
X143475365Y-101875000D01*
X143475365Y-101002000D01*
X145629288Y-101002000D01*
X145924635Y-101297347D01*
X145924635Y-102096000D01*
X145956224Y-102258814D01*
X146050224Y-102401912D01*
X146192132Y-102497700D01*
X146360000Y-102531365D01*
X147158653Y-102531365D01*
X147455000Y-102827712D01*
X147455000Y-103485539D01*
X147430300Y-103522132D01*
X147396635Y-103690000D01*
X147396635Y-104590000D01*
X147428224Y-104752814D01*
X147522224Y-104895912D01*
X147664132Y-104991700D01*
X147832000Y-105025365D01*
X148332000Y-105025365D01*
X148494814Y-104993776D01*
X148637912Y-104899776D01*
X148733700Y-104757868D01*
X148767365Y-104590000D01*
X148767365Y-103690000D01*
X148735776Y-103527186D01*
X148709000Y-103486424D01*
X148709000Y-102568000D01*
X148661273Y-102328058D01*
X148661272Y-102328057D01*
X148525356Y-102124644D01*
X147795365Y-101394653D01*
X147795365Y-100596000D01*
X147763776Y-100433186D01*
X147669776Y-100290088D01*
X147527868Y-100194300D01*
X147360000Y-100160635D01*
X146648077Y-100160635D01*
X147071347Y-99737365D01*
X148020000Y-99737365D01*
X148176898Y-99706923D01*
X148310302Y-99840327D01*
X148543691Y-99937000D01*
X149163250Y-99937000D01*
X149322000Y-99778250D01*
X149322000Y-98600000D01*
X149302000Y-98600000D01*
X149302000Y-98504000D01*
X149322000Y-98504000D01*
X149322000Y-98484000D01*
X149418000Y-98484000D01*
X149418000Y-98504000D01*
X150546250Y-98504000D01*
X150705000Y-98345250D01*
X150705000Y-98148999D01*
X150960635Y-98148999D01*
X150960635Y-100374653D01*
X150786252Y-100549035D01*
X150763776Y-100433186D01*
X150705000Y-100343710D01*
X150705000Y-99428310D01*
X150705000Y-99175691D01*
X150705000Y-98758750D01*
X150546250Y-98600000D01*
X149418000Y-98600000D01*
X149418000Y-99778250D01*
X149576750Y-99937000D01*
X150196309Y-99937000D01*
X150429698Y-99840327D01*
X150608327Y-99661699D01*
X150705000Y-99428310D01*
X150705000Y-100343710D01*
X150669776Y-100290088D01*
X150527868Y-100194300D01*
X150360000Y-100160635D01*
X149360000Y-100160635D01*
X149197186Y-100192224D01*
X149054088Y-100286224D01*
X148958300Y-100428132D01*
X148924635Y-100596000D01*
X148924635Y-102096000D01*
X148956224Y-102258814D01*
X149050224Y-102401912D01*
X149192132Y-102497700D01*
X149360000Y-102531365D01*
X150158653Y-102531365D01*
X151225349Y-103598061D01*
X151190088Y-103621224D01*
X151094300Y-103763132D01*
X151060635Y-103931000D01*
X151060635Y-104418339D01*
X150957673Y-104521301D01*
X150861000Y-104754690D01*
X150861000Y-104949250D01*
X151019750Y-105108000D01*
X152098000Y-105108000D01*
X152098000Y-105088000D01*
X152194000Y-105088000D01*
X152194000Y-105108000D01*
X152214000Y-105108000D01*
X152214000Y-105204000D01*
X152194000Y-105204000D01*
X152194000Y-105224000D01*
X152098000Y-105224000D01*
X152098000Y-105204000D01*
X151019750Y-105204000D01*
X150861000Y-105362750D01*
X150861000Y-105545000D01*
X150250457Y-105545000D01*
X150165776Y-105416088D01*
X150160000Y-105412189D01*
X150160000Y-104901031D01*
X150161912Y-104899776D01*
X150257700Y-104757868D01*
X150291365Y-104590000D01*
X150291365Y-103690000D01*
X150259776Y-103527186D01*
X150165776Y-103384088D01*
X150023868Y-103288300D01*
X149856000Y-103254635D01*
X149356000Y-103254635D01*
X149193186Y-103286224D01*
X149050088Y-103380224D01*
X148954300Y-103522132D01*
X148920635Y-103690000D01*
X148920635Y-104590000D01*
X148952224Y-104752814D01*
X149046224Y-104895912D01*
X149052000Y-104899810D01*
X149052000Y-105410968D01*
X149050088Y-105412224D01*
X148954300Y-105554132D01*
X148952827Y-105561474D01*
X148870327Y-105362301D01*
X148691698Y-105183673D01*
X148458309Y-105087000D01*
X148288750Y-105087000D01*
X148130000Y-105245750D01*
X148130000Y-106124000D01*
X148150000Y-106124000D01*
X148150000Y-106220000D01*
X148130000Y-106220000D01*
X148130000Y-107098250D01*
X148288750Y-107257000D01*
X148458309Y-107257000D01*
X148691698Y-107160327D01*
X148870327Y-106981699D01*
X148952114Y-106784247D01*
X148952224Y-106784814D01*
X149046224Y-106927912D01*
X149188132Y-107023700D01*
X149356000Y-107057365D01*
X149856000Y-107057365D01*
X150018814Y-107025776D01*
X150161912Y-106931776D01*
X150251535Y-106799000D01*
X151409410Y-106799000D01*
X151496000Y-106816365D01*
X152796000Y-106816365D01*
X152958814Y-106784776D01*
X153101912Y-106690776D01*
X153197700Y-106548868D01*
X153231365Y-106381000D01*
X153231365Y-105893660D01*
X153253275Y-105871749D01*
X153560635Y-106179109D01*
X153560635Y-106381000D01*
X153592224Y-106543814D01*
X153686224Y-106686912D01*
X153828132Y-106782700D01*
X153996000Y-106816365D01*
X155296000Y-106816365D01*
X155458814Y-106784776D01*
X155601912Y-106690776D01*
X155622685Y-106660000D01*
X155940552Y-106660000D01*
X155970279Y-106768646D01*
X156084717Y-106895993D01*
X156239408Y-106969367D01*
X157239408Y-107219367D01*
X157339536Y-107232331D01*
X157487020Y-107204675D01*
X157549570Y-107227421D01*
X157720592Y-107219367D01*
X158720592Y-106969367D01*
X158920912Y-106856776D01*
X159016700Y-106714868D01*
X159050365Y-106547000D01*
X159050365Y-105797000D01*
X158989721Y-105575354D01*
X158875283Y-105448007D01*
X158796000Y-105410400D01*
X158796000Y-104648000D01*
X158796000Y-99936198D01*
X158753829Y-99724192D01*
X158753829Y-99724191D01*
X158633737Y-99544461D01*
X157433276Y-98344000D01*
X163920141Y-98344000D01*
X163995574Y-98526560D01*
X164361513Y-98893139D01*
X164491717Y-98947204D01*
X164255034Y-99043007D01*
X164234328Y-99056842D01*
X164158135Y-99320253D01*
X165100000Y-100262118D01*
X166041865Y-99320253D01*
X165965672Y-99056842D01*
X165707862Y-98947602D01*
X165836560Y-98894426D01*
X166203139Y-98528487D01*
X166401774Y-98050120D01*
X166402226Y-97532152D01*
X166402226Y-99522667D01*
X166386993Y-99485034D01*
X166373158Y-99464328D01*
X166109747Y-99388135D01*
X165167882Y-100330000D01*
X166109747Y-101271865D01*
X166373158Y-101195672D01*
X166607523Y-100642560D01*
X166612381Y-100041864D01*
X166612381Y-107415441D01*
X166323017Y-107473000D01*
X166041865Y-107473000D01*
X166041865Y-101339747D01*
X165100000Y-100397882D01*
X165032118Y-100465764D01*
X165032118Y-100330000D01*
X164090253Y-99388135D01*
X163826842Y-99464328D01*
X163592477Y-100017440D01*
X163587619Y-100618136D01*
X163813007Y-101174966D01*
X163826842Y-101195672D01*
X164090253Y-101271865D01*
X165032118Y-100330000D01*
X165032118Y-100465764D01*
X164158135Y-101339747D01*
X164234328Y-101603158D01*
X164787440Y-101837523D01*
X165388136Y-101842381D01*
X165944966Y-101616993D01*
X165965672Y-101603158D01*
X166041865Y-101339747D01*
X166041865Y-107473000D01*
X148034000Y-107473000D01*
X148034000Y-107098250D01*
X148034000Y-106220000D01*
X148034000Y-106124000D01*
X148034000Y-105245750D01*
X147875250Y-105087000D01*
X147705691Y-105087000D01*
X147472302Y-105183673D01*
X147293673Y-105362301D01*
X147197000Y-105595690D01*
X147197000Y-105848309D01*
X147197000Y-105965250D01*
X147355750Y-106124000D01*
X148034000Y-106124000D01*
X148034000Y-106220000D01*
X147355750Y-106220000D01*
X147197000Y-106378750D01*
X147197000Y-106495691D01*
X147197000Y-106748310D01*
X147293673Y-106981699D01*
X147472302Y-107160327D01*
X147705691Y-107257000D01*
X147875250Y-107257000D01*
X148034000Y-107098250D01*
X148034000Y-107473000D01*
X143675000Y-107473000D01*
X143675000Y-106401309D01*
X143675000Y-104981750D01*
X143675000Y-104568250D01*
X143675000Y-103148691D01*
X143578327Y-102915302D01*
X143399699Y-102736673D01*
X143166310Y-102640000D01*
X142913691Y-102640000D01*
X142446750Y-102640000D01*
X142288000Y-102798750D01*
X142288000Y-104727000D01*
X143516250Y-104727000D01*
X143675000Y-104568250D01*
X143675000Y-104981750D01*
X143516250Y-104823000D01*
X142288000Y-104823000D01*
X142288000Y-106751250D01*
X142446750Y-106910000D01*
X142913691Y-106910000D01*
X143166310Y-106910000D01*
X143399699Y-106813327D01*
X143578327Y-106634698D01*
X143675000Y-106401309D01*
X143675000Y-107473000D01*
X142192000Y-107473000D01*
X142192000Y-106751250D01*
X142192000Y-104823000D01*
X142192000Y-104727000D01*
X142192000Y-102798750D01*
X142033250Y-102640000D01*
X141566309Y-102640000D01*
X141313690Y-102640000D01*
X141080301Y-102736673D01*
X140901673Y-102915302D01*
X140805000Y-103148691D01*
X140805000Y-104568250D01*
X140963750Y-104727000D01*
X142192000Y-104727000D01*
X142192000Y-104823000D01*
X140963750Y-104823000D01*
X140805000Y-104981750D01*
X140805000Y-106401309D01*
X140901673Y-106634698D01*
X141080301Y-106813327D01*
X141313690Y-106910000D01*
X141566309Y-106910000D01*
X142033250Y-106910000D01*
X142192000Y-106751250D01*
X142192000Y-107473000D01*
X138954000Y-107473000D01*
X138954000Y-97318250D01*
X138954000Y-96300000D01*
X138235750Y-96300000D01*
X138077000Y-96458750D01*
X138077000Y-96968309D01*
X138173673Y-97201698D01*
X138352301Y-97380327D01*
X138585690Y-97477000D01*
X138795250Y-97477000D01*
X138954000Y-97318250D01*
X138954000Y-107473000D01*
X138672381Y-107473000D01*
X138672381Y-105121864D01*
X138446993Y-104565034D01*
X138433158Y-104544328D01*
X138183001Y-104471968D01*
X138183001Y-102473999D01*
X138183001Y-98218001D01*
X138135274Y-97978059D01*
X138135273Y-97978058D01*
X137999357Y-97774645D01*
X135605356Y-95380644D01*
X135401943Y-95244728D01*
X135162000Y-95197000D01*
X135003497Y-95197000D01*
X134929868Y-95147300D01*
X134762000Y-95113635D01*
X134666000Y-95113635D01*
X134666000Y-94899187D01*
X134724814Y-94887776D01*
X134867912Y-94793776D01*
X134963700Y-94651868D01*
X134997365Y-94484000D01*
X134997365Y-93984000D01*
X134965776Y-93821186D01*
X134871776Y-93678088D01*
X134729868Y-93582300D01*
X134722525Y-93580827D01*
X134921699Y-93498327D01*
X135100327Y-93319698D01*
X135197000Y-93086309D01*
X135197000Y-92916750D01*
X135197000Y-92503250D01*
X135197000Y-92333691D01*
X135100327Y-92100302D01*
X134921699Y-91921673D01*
X134688310Y-91825000D01*
X134435691Y-91825000D01*
X134435000Y-91825000D01*
X134318750Y-91825000D01*
X134160000Y-91983750D01*
X134160000Y-92662000D01*
X135038250Y-92662000D01*
X135197000Y-92503250D01*
X135197000Y-92916750D01*
X135038250Y-92758000D01*
X134160000Y-92758000D01*
X134160000Y-92778000D01*
X134064000Y-92778000D01*
X134064000Y-92758000D01*
X134064000Y-92662000D01*
X134064000Y-91983750D01*
X133905250Y-91825000D01*
X133788309Y-91825000D01*
X133535690Y-91825000D01*
X133302301Y-91921673D01*
X133302000Y-91921974D01*
X133302000Y-88864250D01*
X133302000Y-88186000D01*
X132423750Y-88186000D01*
X132265000Y-88344750D01*
X132265000Y-88514309D01*
X132361673Y-88747698D01*
X132540301Y-88926327D01*
X132773690Y-89023000D01*
X133026309Y-89023000D01*
X133143250Y-89023000D01*
X133302000Y-88864250D01*
X133302000Y-91921974D01*
X133123673Y-92100302D01*
X133027000Y-92333691D01*
X133027000Y-92503250D01*
X133185750Y-92662000D01*
X134064000Y-92662000D01*
X134064000Y-92758000D01*
X133185750Y-92758000D01*
X133027000Y-92916750D01*
X133027000Y-93086309D01*
X133123673Y-93319698D01*
X133302301Y-93498327D01*
X133499752Y-93580114D01*
X133499186Y-93580224D01*
X133356088Y-93674224D01*
X133260300Y-93816132D01*
X133226635Y-93984000D01*
X133226635Y-94484000D01*
X133258224Y-94646814D01*
X133352224Y-94789912D01*
X133494132Y-94885700D01*
X133558000Y-94898508D01*
X133558000Y-95113635D01*
X133462000Y-95113635D01*
X133299186Y-95145224D01*
X133156088Y-95239224D01*
X133060300Y-95381132D01*
X133026635Y-95549000D01*
X133026635Y-96036339D01*
X133004724Y-96058250D01*
X132697365Y-95750891D01*
X132697365Y-95549000D01*
X132665776Y-95386186D01*
X132571776Y-95243088D01*
X132429868Y-95147300D01*
X132262000Y-95113635D01*
X132239000Y-95113635D01*
X132239000Y-94852181D01*
X132327912Y-94793776D01*
X132423700Y-94651868D01*
X132457365Y-94484000D01*
X132457365Y-93984000D01*
X132425776Y-93821186D01*
X132331776Y-93678088D01*
X132189868Y-93582300D01*
X132182525Y-93580827D01*
X132381699Y-93498327D01*
X132560327Y-93319698D01*
X132657000Y-93086309D01*
X132657000Y-92916750D01*
X132657000Y-92503250D01*
X132657000Y-92333691D01*
X132560327Y-92100302D01*
X132381699Y-91921673D01*
X132148310Y-91825000D01*
X131895691Y-91825000D01*
X131778750Y-91825000D01*
X131620000Y-91983750D01*
X131620000Y-92662000D01*
X132498250Y-92662000D01*
X132657000Y-92503250D01*
X132657000Y-92916750D01*
X132498250Y-92758000D01*
X131620000Y-92758000D01*
X131620000Y-92778000D01*
X131524000Y-92778000D01*
X131524000Y-92758000D01*
X131524000Y-92662000D01*
X131524000Y-91983750D01*
X131365250Y-91825000D01*
X131248309Y-91825000D01*
X130995690Y-91825000D01*
X130762301Y-91921673D01*
X130583673Y-92100302D01*
X130487000Y-92333691D01*
X130487000Y-92503250D01*
X130645750Y-92662000D01*
X131524000Y-92662000D01*
X131524000Y-92758000D01*
X130645750Y-92758000D01*
X130487000Y-92916750D01*
X130487000Y-93086309D01*
X130583673Y-93319698D01*
X130762301Y-93498327D01*
X130959752Y-93580114D01*
X130959186Y-93580224D01*
X130816088Y-93674224D01*
X130720300Y-93816132D01*
X130686635Y-93984000D01*
X130686635Y-94484000D01*
X130718224Y-94646814D01*
X130812224Y-94789912D01*
X130954132Y-94885700D01*
X130985000Y-94891890D01*
X130985000Y-95113635D01*
X130962000Y-95113635D01*
X130799186Y-95145224D01*
X130781532Y-95156820D01*
X130016355Y-94391643D01*
X129812942Y-94255727D01*
X129572999Y-94207999D01*
X129204201Y-94207999D01*
X128862760Y-94207999D01*
X128841000Y-94203635D01*
X128826000Y-94203635D01*
X128826000Y-93245750D01*
X128826000Y-92832250D01*
X128826000Y-91862691D01*
X128729327Y-91629302D01*
X128550699Y-91450673D01*
X128317310Y-91354000D01*
X128064691Y-91354000D01*
X127597750Y-91354000D01*
X127439000Y-91512750D01*
X127439000Y-92991000D01*
X128667250Y-92991000D01*
X128826000Y-92832250D01*
X128826000Y-93245750D01*
X128667250Y-93087000D01*
X127439000Y-93087000D01*
X127439000Y-93107000D01*
X127343000Y-93107000D01*
X127343000Y-93087000D01*
X127323000Y-93087000D01*
X127323000Y-92991000D01*
X127343000Y-92991000D01*
X127343000Y-91512750D01*
X127184250Y-91354000D01*
X126717309Y-91354000D01*
X126464690Y-91354000D01*
X126426000Y-91370025D01*
X126426000Y-91312691D01*
X126329327Y-91079302D01*
X126150699Y-90900673D01*
X125917310Y-90804000D01*
X125664691Y-90804000D01*
X125047750Y-90804000D01*
X124889000Y-90962750D01*
X124889000Y-92291000D01*
X124909000Y-92291000D01*
X124909000Y-92387000D01*
X124889000Y-92387000D01*
X124889000Y-93512750D01*
X124889000Y-93715250D01*
X124889000Y-94891000D01*
X124909000Y-94891000D01*
X124909000Y-94987000D01*
X124889000Y-94987000D01*
X124889000Y-95912750D01*
X124889000Y-96365250D01*
X124889000Y-97291000D01*
X124909000Y-97291000D01*
X124909000Y-97387000D01*
X124889000Y-97387000D01*
X124889000Y-98562750D01*
X124889000Y-98765250D01*
X124889000Y-99891000D01*
X124909000Y-99891000D01*
X124909000Y-99987000D01*
X124889000Y-99987000D01*
X124889000Y-101315250D01*
X125047750Y-101474000D01*
X125664691Y-101474000D01*
X125917310Y-101474000D01*
X126150699Y-101377327D01*
X126329327Y-101198698D01*
X126426000Y-100965309D01*
X126426000Y-100907974D01*
X126464690Y-100924000D01*
X126717309Y-100924000D01*
X127184250Y-100924000D01*
X127343000Y-100765250D01*
X127343000Y-99287000D01*
X127323000Y-99287000D01*
X127323000Y-99191000D01*
X127343000Y-99191000D01*
X127343000Y-99171000D01*
X127439000Y-99171000D01*
X127439000Y-99191000D01*
X128667250Y-99191000D01*
X128826000Y-99032250D01*
X128826000Y-98274000D01*
X128967310Y-98274000D01*
X129200699Y-98177327D01*
X129379327Y-97998698D01*
X129476000Y-97765309D01*
X129476000Y-97645750D01*
X129317250Y-97487000D01*
X127889000Y-97487000D01*
X127889000Y-97507000D01*
X127793000Y-97507000D01*
X127793000Y-97487000D01*
X127773000Y-97487000D01*
X127773000Y-97424365D01*
X128841000Y-97424365D01*
X129003814Y-97392776D01*
X129006517Y-97391000D01*
X129317250Y-97391000D01*
X129476000Y-97232250D01*
X129476000Y-97112691D01*
X129379327Y-96879302D01*
X129276365Y-96776339D01*
X129276365Y-96589000D01*
X129251711Y-96461932D01*
X129276365Y-96339000D01*
X129276365Y-95939000D01*
X129251711Y-95811932D01*
X129276365Y-95689000D01*
X129276365Y-95461999D01*
X129313286Y-95461999D01*
X130118644Y-96267356D01*
X130322057Y-96403272D01*
X130322058Y-96403273D01*
X130562000Y-96451000D01*
X130720502Y-96451000D01*
X130794132Y-96500700D01*
X130962000Y-96534365D01*
X131913891Y-96534365D01*
X132426062Y-97046536D01*
X132262000Y-97013635D01*
X130962000Y-97013635D01*
X130799186Y-97045224D01*
X130656088Y-97139224D01*
X130560300Y-97281132D01*
X130526635Y-97449000D01*
X130526635Y-97999000D01*
X130558224Y-98161814D01*
X130652224Y-98304912D01*
X130794132Y-98400700D01*
X130962000Y-98434365D01*
X131058000Y-98434365D01*
X131058000Y-98895052D01*
X130959186Y-98914224D01*
X130816088Y-99008224D01*
X130720300Y-99150132D01*
X130686635Y-99318000D01*
X130686635Y-99818000D01*
X130718224Y-99980814D01*
X130812224Y-100123912D01*
X130954132Y-100219700D01*
X130961474Y-100221172D01*
X130762301Y-100303673D01*
X130583673Y-100482302D01*
X130487000Y-100715691D01*
X130487000Y-100885250D01*
X130645750Y-101044000D01*
X131524000Y-101044000D01*
X131524000Y-101024000D01*
X131620000Y-101024000D01*
X131620000Y-101044000D01*
X132498250Y-101044000D01*
X132657000Y-100885250D01*
X132657000Y-100715691D01*
X132560327Y-100482302D01*
X132381699Y-100303673D01*
X132184247Y-100221885D01*
X132184814Y-100221776D01*
X132327912Y-100127776D01*
X132423700Y-99985868D01*
X132457365Y-99818000D01*
X132457365Y-99318000D01*
X132425776Y-99155186D01*
X132331776Y-99012088D01*
X132189868Y-98916300D01*
X132166000Y-98911513D01*
X132166000Y-98434365D01*
X132262000Y-98434365D01*
X132424814Y-98402776D01*
X132526999Y-98335651D01*
X132526999Y-99922801D01*
X132569170Y-100134808D01*
X132689262Y-100314538D01*
X132965462Y-100590738D01*
X133145192Y-100710830D01*
X133145193Y-100710830D01*
X133248807Y-100731440D01*
X133226635Y-100842000D01*
X133226635Y-101342000D01*
X133258224Y-101504814D01*
X133352224Y-101647912D01*
X133494132Y-101743700D01*
X133662000Y-101777365D01*
X134562000Y-101777365D01*
X134724814Y-101745776D01*
X134867912Y-101651776D01*
X134871810Y-101646000D01*
X135890968Y-101646000D01*
X135892224Y-101647912D01*
X136034132Y-101743700D01*
X136202000Y-101777365D01*
X136929001Y-101777365D01*
X136929001Y-102214287D01*
X134989601Y-104153686D01*
X134880120Y-104108226D01*
X134362152Y-104107774D01*
X133883440Y-104305574D01*
X133516861Y-104671513D01*
X133470567Y-104783000D01*
X132657000Y-104783000D01*
X132657000Y-101468309D01*
X132657000Y-101298750D01*
X132498250Y-101140000D01*
X131620000Y-101140000D01*
X131620000Y-101818250D01*
X131778750Y-101977000D01*
X131895691Y-101977000D01*
X132148310Y-101977000D01*
X132381699Y-101880327D01*
X132560327Y-101701698D01*
X132657000Y-101468309D01*
X132657000Y-104783000D01*
X131524000Y-104783000D01*
X131524000Y-101818250D01*
X131524000Y-101140000D01*
X130645750Y-101140000D01*
X130487000Y-101298750D01*
X130487000Y-101468309D01*
X130583673Y-101701698D01*
X130762301Y-101880327D01*
X130995690Y-101977000D01*
X131248309Y-101977000D01*
X131365250Y-101977000D01*
X131524000Y-101818250D01*
X131524000Y-104783000D01*
X130269542Y-104783000D01*
X130330140Y-104722508D01*
X130486821Y-104345179D01*
X130487178Y-103936613D01*
X130331156Y-103559011D01*
X130042508Y-103269860D01*
X129665179Y-103113179D01*
X129476000Y-103113013D01*
X129256613Y-103112822D01*
X128879011Y-103268844D01*
X128826000Y-103321762D01*
X128826000Y-100415309D01*
X128826000Y-99445750D01*
X128667250Y-99287000D01*
X127439000Y-99287000D01*
X127439000Y-100765250D01*
X127597750Y-100924000D01*
X128064691Y-100924000D01*
X128317310Y-100924000D01*
X128550699Y-100827327D01*
X128729327Y-100648698D01*
X128826000Y-100415309D01*
X128826000Y-103321762D01*
X128589860Y-103557492D01*
X128433179Y-103934821D01*
X128432822Y-104343387D01*
X128588844Y-104720989D01*
X128650747Y-104783000D01*
X128489712Y-104783000D01*
X127986877Y-104280165D01*
X127987178Y-103936613D01*
X127831156Y-103559011D01*
X127542508Y-103269860D01*
X127165179Y-103113179D01*
X126756613Y-103112822D01*
X126379011Y-103268844D01*
X126089860Y-103557492D01*
X125933179Y-103934821D01*
X125932822Y-104343387D01*
X126088844Y-104720989D01*
X126377492Y-105010140D01*
X126754821Y-105166821D01*
X127100410Y-105167122D01*
X127786644Y-105853356D01*
X127990057Y-105989272D01*
X127990058Y-105989272D01*
X128230000Y-106037000D01*
X133470304Y-106037000D01*
X133515574Y-106146560D01*
X133881513Y-106513139D01*
X134359880Y-106711774D01*
X134877848Y-106712226D01*
X135356560Y-106514426D01*
X135723139Y-106148487D01*
X135777204Y-106018282D01*
X135873007Y-106254966D01*
X135886842Y-106275672D01*
X136150253Y-106351865D01*
X137092118Y-105410000D01*
X137077975Y-105395857D01*
X137145857Y-105327975D01*
X137160000Y-105342118D01*
X138101865Y-104400253D01*
X138025672Y-104136842D01*
X137472560Y-103902477D01*
X137017911Y-103898800D01*
X137999357Y-102917355D01*
X138135273Y-102713942D01*
X138135273Y-102713941D01*
X138183001Y-102473999D01*
X138183001Y-104471968D01*
X138169747Y-104468135D01*
X137227882Y-105410000D01*
X138169747Y-106351865D01*
X138433158Y-106275672D01*
X138667523Y-105722560D01*
X138672381Y-105121864D01*
X138672381Y-107473000D01*
X138101865Y-107473000D01*
X138101865Y-106419747D01*
X137160000Y-105477882D01*
X136218135Y-106419747D01*
X136294328Y-106683158D01*
X136847440Y-106917523D01*
X137448136Y-106922381D01*
X138004966Y-106696993D01*
X138025672Y-106683158D01*
X138101865Y-106419747D01*
X138101865Y-107473000D01*
X125487178Y-107473000D01*
X125487178Y-103936613D01*
X125331156Y-103559011D01*
X125042508Y-103269860D01*
X124793000Y-103166255D01*
X124793000Y-101315250D01*
X124793000Y-99987000D01*
X124793000Y-99891000D01*
X124793000Y-98765250D01*
X124793000Y-98562750D01*
X124793000Y-97387000D01*
X124793000Y-97291000D01*
X124793000Y-96365250D01*
X124793000Y-95912750D01*
X124793000Y-94987000D01*
X124793000Y-94891000D01*
X124793000Y-93715250D01*
X124793000Y-93512750D01*
X124793000Y-92387000D01*
X124793000Y-92291000D01*
X124793000Y-90962750D01*
X124634250Y-90804000D01*
X124492226Y-90804000D01*
X124492226Y-84832152D01*
X124492226Y-79752152D01*
X124294426Y-79273440D01*
X123928487Y-78906861D01*
X123450120Y-78708226D01*
X122932152Y-78707774D01*
X122453440Y-78905574D01*
X122086861Y-79271513D01*
X121888226Y-79749880D01*
X121887774Y-80267848D01*
X122085574Y-80746560D01*
X122451513Y-81113139D01*
X122929880Y-81311774D01*
X123447848Y-81312226D01*
X123926560Y-81114426D01*
X124293139Y-80748487D01*
X124491774Y-80270120D01*
X124492226Y-79752152D01*
X124492226Y-84832152D01*
X124294426Y-84353440D01*
X123928487Y-83986861D01*
X123450120Y-83788226D01*
X122932152Y-83787774D01*
X122453440Y-83985574D01*
X122086861Y-84351513D01*
X121888226Y-84829880D01*
X121887774Y-85347848D01*
X122085574Y-85826560D01*
X122451513Y-86193139D01*
X122929880Y-86391774D01*
X123447848Y-86392226D01*
X123926560Y-86194426D01*
X124293139Y-85828487D01*
X124491774Y-85350120D01*
X124492226Y-84832152D01*
X124492226Y-90804000D01*
X124017309Y-90804000D01*
X123764690Y-90804000D01*
X123531301Y-90900673D01*
X123352673Y-91079302D01*
X123256000Y-91312691D01*
X123256000Y-92132250D01*
X123414750Y-92291000D01*
X124793000Y-92291000D01*
X124793000Y-92387000D01*
X123414750Y-92387000D01*
X123256000Y-92545750D01*
X123256000Y-93365309D01*
X123352673Y-93598698D01*
X123367974Y-93614000D01*
X123352673Y-93629302D01*
X123256000Y-93862691D01*
X123256000Y-94732250D01*
X123414750Y-94891000D01*
X124793000Y-94891000D01*
X124793000Y-94987000D01*
X123414750Y-94987000D01*
X123256000Y-95145750D01*
X123256000Y-96015309D01*
X123307234Y-96139000D01*
X123256000Y-96262691D01*
X123256000Y-97132250D01*
X123414750Y-97291000D01*
X124793000Y-97291000D01*
X124793000Y-97387000D01*
X123414750Y-97387000D01*
X123256000Y-97545750D01*
X123256000Y-98415309D01*
X123352673Y-98648698D01*
X123367974Y-98664000D01*
X123352673Y-98679302D01*
X123256000Y-98912691D01*
X123256000Y-99732250D01*
X123414750Y-99891000D01*
X124793000Y-99891000D01*
X124793000Y-99987000D01*
X123414750Y-99987000D01*
X123256000Y-100145750D01*
X123256000Y-100965309D01*
X123352673Y-101198698D01*
X123531301Y-101377327D01*
X123764690Y-101474000D01*
X124017309Y-101474000D01*
X124634250Y-101474000D01*
X124793000Y-101315250D01*
X124793000Y-103166255D01*
X124665179Y-103113179D01*
X124256613Y-103112822D01*
X123879011Y-103268844D01*
X123589860Y-103557492D01*
X123433179Y-103934821D01*
X123432822Y-104343387D01*
X123588844Y-104720989D01*
X123877492Y-105010140D01*
X124254821Y-105166821D01*
X124663387Y-105167178D01*
X125040989Y-105011156D01*
X125330140Y-104722508D01*
X125486821Y-104345179D01*
X125487178Y-103936613D01*
X125487178Y-107473000D01*
X123236982Y-107473000D01*
X122404099Y-107307329D01*
X121737846Y-106862153D01*
X121292670Y-106195900D01*
X121127000Y-105363017D01*
X121127000Y-69896982D01*
X121292670Y-69064099D01*
X121737846Y-68397846D01*
X122404099Y-67952670D01*
X123236982Y-67787000D01*
X166323017Y-67787000D01*
X167155900Y-67952670D01*
X167822153Y-68397846D01*
X168267329Y-69064099D01*
X168433000Y-69896982D01*
X168433000Y-105363017D01*
M02*
